<?xml version="1.0" encoding="UTF-8" standalone="no"?>
<!DOCTYPE svg PUBLIC "-//W3C//DTD SVG 1.1//EN"
 "http://www.w3.org/Graphics/SVG/1.1/DTD/svg11.dtd">
<!-- Generated by graphviz version 2.43.0 (0)
 -->
<!-- Title: MLMGOptions.cpp Pages: 1 -->
<svg width="669pt" height="140pt"
 viewBox="0.00 0.00 668.50 140.00" xmlns="http://www.w3.org/2000/svg" xmlns:xlink="http://www.w3.org/1999/xlink">
<g id="graph0" class="graph" transform="scale(1 1) rotate(0) translate(4 136)">
<title>MLMGOptions.cpp</title>
<polygon fill="white" stroke="transparent" points="-4,4 -4,-136 664.5,-136 664.5,4 -4,4"/>
<!-- Node1 -->
<g id="node1" class="node">
<title>Node1</title>
<g id="a_node1"><a xlink:title=" ">
<polygon fill="#bfbfbf" stroke="black" points="332.5,-112.5 332.5,-131.5 437.5,-131.5 437.5,-112.5 332.5,-112.5"/>
<text text-anchor="middle" x="385" y="-119.5" font-family="Helvetica,sans-Serif" font-size="10.00">MLMGOptions.cpp</text>
</a>
</g>
</g>
<!-- Node2 -->
<g id="node2" class="node">
<title>Node2</title>
<g id="a_node2"><a xlink:href="_m_l_m_g_options_8_h.html" target="_top" xlink:title=" ">
<polygon fill="white" stroke="black" points="85.5,-56.5 85.5,-75.5 254.5,-75.5 254.5,-56.5 85.5,-56.5"/>
<text text-anchor="middle" x="170" y="-63.5" font-family="Helvetica,sans-Serif" font-size="10.00">amr&#45;wind/core/MLMGOptions.H</text>
</a>
</g>
</g>
<!-- Node1&#45;&gt;Node2 -->
<g id="edge1" class="edge">
<title>Node1&#45;&gt;Node2</title>
<path fill="none" stroke="midnightblue" d="M350.93,-112.44C313.82,-103.12 254.34,-88.18 213.79,-78"/>
<polygon fill="midnightblue" stroke="midnightblue" points="214.46,-74.56 203.91,-75.52 212.75,-81.35 214.46,-74.56"/>
</g>
<!-- Node7 -->
<g id="node7" class="node">
<title>Node7</title>
<g id="a_node7"><a xlink:title=" ">
<polygon fill="white" stroke="#bfbfbf" points="272,-56.5 272,-75.5 370,-75.5 370,-56.5 272,-56.5"/>
<text text-anchor="middle" x="321" y="-63.5" font-family="Helvetica,sans-Serif" font-size="10.00">AMReX_MLMG.H</text>
</a>
</g>
</g>
<!-- Node1&#45;&gt;Node7 -->
<g id="edge6" class="edge">
<title>Node1&#45;&gt;Node7</title>
<path fill="none" stroke="midnightblue" d="M374.72,-112.32C365.16,-104.26 350.72,-92.08 339.22,-82.37"/>
<polygon fill="midnightblue" stroke="midnightblue" points="341.37,-79.61 331.47,-75.83 336.86,-84.96 341.37,-79.61"/>
</g>
<!-- Node8 -->
<g id="node8" class="node">
<title>Node8</title>
<g id="a_node8"><a xlink:title=" ">
<polygon fill="white" stroke="#bfbfbf" points="388.5,-56.5 388.5,-75.5 511.5,-75.5 511.5,-56.5 388.5,-56.5"/>
<text text-anchor="middle" x="450" y="-63.5" font-family="Helvetica,sans-Serif" font-size="10.00">hydro_MacProjector.H</text>
</a>
</g>
</g>
<!-- Node1&#45;&gt;Node8 -->
<g id="edge7" class="edge">
<title>Node1&#45;&gt;Node8</title>
<path fill="none" stroke="midnightblue" d="M395.44,-112.32C405.15,-104.26 419.82,-92.08 431.5,-82.37"/>
<polygon fill="midnightblue" stroke="midnightblue" points="433.91,-84.92 439.37,-75.83 429.44,-79.53 433.91,-84.92"/>
</g>
<!-- Node9 -->
<g id="node9" class="node">
<title>Node9</title>
<g id="a_node9"><a xlink:title=" ">
<polygon fill="white" stroke="#bfbfbf" points="529.5,-56.5 529.5,-75.5 660.5,-75.5 660.5,-56.5 529.5,-56.5"/>
<text text-anchor="middle" x="595" y="-63.5" font-family="Helvetica,sans-Serif" font-size="10.00">hydro_NodalProjector.H</text>
</a>
</g>
</g>
<!-- Node1&#45;&gt;Node9 -->
<g id="edge8" class="edge">
<title>Node1&#45;&gt;Node9</title>
<path fill="none" stroke="midnightblue" d="M418.28,-112.44C454.45,-103.14 512.38,-88.25 551.98,-78.06"/>
<polygon fill="midnightblue" stroke="midnightblue" points="553.07,-81.4 561.88,-75.52 551.32,-74.62 553.07,-81.4"/>
</g>
<!-- Node3 -->
<g id="node3" class="node">
<title>Node3</title>
<g id="a_node3"><a xlink:title=" ">
<polygon fill="white" stroke="#bfbfbf" points="0,-0.5 0,-19.5 44,-19.5 44,-0.5 0,-0.5"/>
<text text-anchor="middle" x="22" y="-7.5" font-family="Helvetica,sans-Serif" font-size="10.00">string</text>
</a>
</g>
</g>
<!-- Node2&#45;&gt;Node3 -->
<g id="edge2" class="edge">
<title>Node2&#45;&gt;Node3</title>
<path fill="none" stroke="midnightblue" d="M146.55,-56.44C121.58,-47.33 81.89,-32.85 54.05,-22.69"/>
<polygon fill="midnightblue" stroke="midnightblue" points="54.97,-19.3 44.37,-19.16 52.57,-25.88 54.97,-19.3"/>
</g>
<!-- Node4 -->
<g id="node4" class="node">
<title>Node4</title>
<g id="a_node4"><a xlink:title=" ">
<polygon fill="white" stroke="#bfbfbf" points="62,-0.5 62,-19.5 154,-19.5 154,-0.5 62,-0.5"/>
<text text-anchor="middle" x="108" y="-7.5" font-family="Helvetica,sans-Serif" font-size="10.00">AMReX_REAL.H</text>
</a>
</g>
</g>
<!-- Node2&#45;&gt;Node4 -->
<g id="edge3" class="edge">
<title>Node2&#45;&gt;Node4</title>
<path fill="none" stroke="midnightblue" d="M160.04,-56.32C150.87,-48.34 137.06,-36.31 125.97,-26.65"/>
<polygon fill="midnightblue" stroke="midnightblue" points="127.98,-23.76 118.14,-19.83 123.38,-29.04 127.98,-23.76"/>
</g>
<!-- Node5 -->
<g id="node5" class="node">
<title>Node5</title>
<g id="a_node5"><a xlink:title=" ">
<polygon fill="white" stroke="#bfbfbf" points="172.5,-0.5 172.5,-19.5 291.5,-19.5 291.5,-0.5 172.5,-0.5"/>
<text text-anchor="middle" x="232" y="-7.5" font-family="Helvetica,sans-Serif" font-size="10.00">AMReX_ParmParse.H</text>
</a>
</g>
</g>
<!-- Node2&#45;&gt;Node5 -->
<g id="edge4" class="edge">
<title>Node2&#45;&gt;Node5</title>
<path fill="none" stroke="midnightblue" d="M179.96,-56.32C189.13,-48.34 202.94,-36.31 214.03,-26.65"/>
<polygon fill="midnightblue" stroke="midnightblue" points="216.62,-29.04 221.86,-19.83 212.02,-23.76 216.62,-29.04"/>
</g>
<!-- Node6 -->
<g id="node6" class="node">
<title>Node6</title>
<g id="a_node6"><a xlink:title=" ">
<polygon fill="white" stroke="#bfbfbf" points="310,-0.5 310,-19.5 420,-19.5 420,-0.5 310,-0.5"/>
<text text-anchor="middle" x="365" y="-7.5" font-family="Helvetica,sans-Serif" font-size="10.00">AMReX_MLLinOp.H</text>
</a>
</g>
</g>
<!-- Node2&#45;&gt;Node6 -->
<g id="edge5" class="edge">
<title>Node2&#45;&gt;Node6</title>
<path fill="none" stroke="midnightblue" d="M200.9,-56.44C234.27,-47.2 287.59,-32.44 324.35,-22.26"/>
<polygon fill="midnightblue" stroke="midnightblue" points="325.54,-25.56 334.25,-19.52 323.67,-18.81 325.54,-25.56"/>
</g>
</g>
</svg>
