<?xml version="1.0" encoding="UTF-8" standalone="no"?>
<!DOCTYPE svg PUBLIC "-//W3C//DTD SVG 1.1//EN"
 "http://www.w3.org/Graphics/SVG/1.1/DTD/svg11.dtd">
<!-- Generated by graphviz version 2.43.0 (0)
 -->
<!-- Title: main.cpp Pages: 1 -->
<!--zoomable 397 -->
<svg id="main" version="1.1" xmlns="http://www.w3.org/2000/svg" xmlns:xlink="http://www.w3.org/1999/xlink" xml:space="preserve" onload="init(evt)">
<style type="text/css"><![CDATA[
.edge:hover path { stroke: red; }
.edge:hover polygon { stroke: red; fill: red; }
]]></style>
<script type="text/javascript"><![CDATA[
var edges = document.getElementsByTagName('g');
if (edges && edges.length) {
  for (var i=0;i<edges.length;i++) {
    if (edges[i].id.substr(0,4)=='edge') {
      edges[i].setAttribute('class','edge');
    }
  }
}
]]></script>
        <defs>
                <circle id="rim" cx="0" cy="0" r="7"/>
                <circle id="rim2" cx="0" cy="0" r="3.5"/>
                <g id="zoomPlus">
                        <use xlink:href="#rim" fill="#404040">
                                <set attributeName="fill" to="#808080" begin="zoomplus.mouseover" end="zoomplus.mouseout"/>
                        </use>
                        <path d="M-4,0h8M0,-4v8" fill="none" stroke="white" stroke-width="1.5" pointer-events="none"/>
                </g>
                <g id="zoomMin">
                        <use xlink:href="#rim" fill="#404040">
                                <set attributeName="fill" to="#808080" begin="zoomminus.mouseover" end="zoomminus.mouseout"/>
                        </use>
                        <path d="M-4,0h8" fill="none" stroke="white" stroke-width="1.5" pointer-events="none"/>
                </g>
                <g id="dirArrow">
                        <path fill="none" stroke="white" stroke-width="1.5" d="M0,-3.0v7 M-2.5,-0.5L0,-3.0L2.5,-0.5"/>
                </g>
               <g id="resetDef">
                       <use xlink:href="#rim2" fill="#404040">
                               <set attributeName="fill" to="#808080" begin="reset.mouseover" end="reset.mouseout"/>
                       </use>
               </g>
        </defs>

<script type="text/javascript">
var viewWidth = 2618;
var viewHeight = 397;
var sectionId = 'dynsection-0';
</script>
<script xlink:href="svgpan.js"/>
<svg id="graph" class="graph">
<g id="viewport">
<title>main.cpp</title>
<polygon fill="white" stroke="transparent" points="-4,4 -4,-393 2614.09,-393 2614.09,4 -4,4"/>
<!-- Node1 -->
<g id="node1" class="node">
<title>Node1</title>
<g id="a_node1"><a xlink:title=" ">
<polygon fill="#bfbfbf" stroke="black" points="2311,-369.5 2311,-388.5 2373,-388.5 2373,-369.5 2311,-369.5"/>
<text text-anchor="middle" x="2342" y="-376.5" font-family="Helvetica,sans-Serif" font-size="10.00">main.cpp</text>
</a>
</g>
</g>
<!-- Node2 -->
<g id="node2" class="node">
<title>Node2</title>
<g id="a_node2"><a xlink:href="incflo_8_h.html" target="_top" xlink:title=" ">
<polygon fill="white" stroke="black" points="1495.5,-308 1495.5,-327 1598.5,-327 1598.5,-308 1495.5,-308"/>
<text text-anchor="middle" x="1547" y="-315" font-family="Helvetica,sans-Serif" font-size="10.00">amr&#45;wind/incflo.H</text>
</a>
</g>
</g>
<!-- Node1&#45;&gt;Node2 -->
<g id="edge1" class="edge">
<title>Node1&#45;&gt;Node2</title>
<path fill="none" stroke="midnightblue" d="M2310.84,-375.67C2192.36,-366.8 1768.62,-335.09 1608.69,-323.12"/>
<polygon fill="midnightblue" stroke="midnightblue" points="1608.78,-319.61 1598.55,-322.36 1608.26,-326.59 1608.78,-319.61"/>
</g>
<!-- Node41 -->
<g id="node41" class="node">
<title>Node41</title>
<g id="a_node41"><a xlink:href="console__io_8_h.html" target="_top" xlink:title=" ">
<polygon fill="white" stroke="black" points="2290.5,-302.5 2290.5,-332.5 2393.5,-332.5 2393.5,-302.5 2290.5,-302.5"/>
<text text-anchor="start" x="2298.5" y="-320.5" font-family="Helvetica,sans-Serif" font-size="10.00">amr&#45;wind/utilities</text>
<text text-anchor="middle" x="2342" y="-309.5" font-family="Helvetica,sans-Serif" font-size="10.00">/console_io.H</text>
</a>
</g>
</g>
<!-- Node1&#45;&gt;Node41 -->
<g id="edge75" class="edge">
<title>Node1&#45;&gt;Node41</title>
<path fill="none" stroke="midnightblue" d="M2342,-369.48C2342,-362.47 2342,-352.19 2342,-342.7"/>
<polygon fill="midnightblue" stroke="midnightblue" points="2345.5,-342.52 2342,-332.52 2338.5,-342.52 2345.5,-342.52"/>
</g>
<!-- Node43 -->
<g id="node43" class="node">
<title>Node43</title>
<g id="a_node43"><a xlink:title=" ">
<polygon fill="white" stroke="#bfbfbf" points="2412,-308 2412,-327 2534,-327 2534,-308 2412,-308"/>
<text text-anchor="middle" x="2473" y="-315" font-family="Helvetica,sans-Serif" font-size="10.00">AMReX_FileSystem.H</text>
</a>
</g>
</g>
<!-- Node1&#45;&gt;Node43 -->
<g id="edge78" class="edge">
<title>Node1&#45;&gt;Node43</title>
<path fill="none" stroke="midnightblue" d="M2360.77,-369.48C2382.85,-359.45 2419.72,-342.7 2445.14,-331.15"/>
<polygon fill="midnightblue" stroke="midnightblue" points="2446.61,-334.33 2454.27,-327.01 2443.71,-327.96 2446.61,-334.33"/>
</g>
<!-- Node3 -->
<g id="node3" class="node">
<title>Node3</title>
<g id="a_node3"><a xlink:title=" ">
<polygon fill="white" stroke="#bfbfbf" points="1240,-118 1240,-137 1350,-137 1350,-118 1240,-118"/>
<text text-anchor="middle" x="1295" y="-125" font-family="Helvetica,sans-Serif" font-size="10.00">AMReX_AmrCore.H</text>
</a>
</g>
</g>
<!-- Node2&#45;&gt;Node3 -->
<g id="edge2" class="edge">
<title>Node2&#45;&gt;Node3</title>
<path fill="none" stroke="midnightblue" d="M1495.41,-314.71C1423.33,-310.99 1298.14,-299.74 1270,-266 1241.08,-231.33 1267.41,-174.42 1283.95,-145.92"/>
<polygon fill="midnightblue" stroke="midnightblue" points="1287.1,-147.47 1289.28,-137.1 1281.11,-143.84 1287.1,-147.47"/>
</g>
<!-- Node4 -->
<g id="node4" class="node">
<title>Node4</title>
<g id="a_node4"><a xlink:title=" ">
<polygon fill="white" stroke="#bfbfbf" points="1413,-246.5 1413,-265.5 1539,-265.5 1539,-246.5 1413,-246.5"/>
<text text-anchor="middle" x="1476" y="-253.5" font-family="Helvetica,sans-Serif" font-size="10.00">AMReX_MultiFabUtil.H</text>
</a>
</g>
</g>
<!-- Node2&#45;&gt;Node4 -->
<g id="edge3" class="edge">
<title>Node2&#45;&gt;Node4</title>
<path fill="none" stroke="midnightblue" d="M1536.83,-307.98C1525.65,-298.61 1507.48,-283.38 1493.91,-272.01"/>
<polygon fill="midnightblue" stroke="midnightblue" points="1496.07,-269.25 1486.15,-265.51 1491.57,-274.61 1496.07,-269.25"/>
</g>
<!-- Node5 -->
<g id="node5" class="node">
<title>Node5</title>
<g id="a_node5"><a xlink:title=" ">
<polygon fill="white" stroke="#bfbfbf" points="1557.5,-246.5 1557.5,-265.5 1676.5,-265.5 1676.5,-246.5 1557.5,-246.5"/>
<text text-anchor="middle" x="1617" y="-253.5" font-family="Helvetica,sans-Serif" font-size="10.00">AMReX_ParmParse.H</text>
</a>
</g>
</g>
<!-- Node2&#45;&gt;Node5 -->
<g id="edge4" class="edge">
<title>Node2&#45;&gt;Node5</title>
<path fill="none" stroke="midnightblue" d="M1557.03,-307.98C1568.05,-298.61 1585.96,-283.38 1599.34,-272.01"/>
<polygon fill="midnightblue" stroke="midnightblue" points="1601.64,-274.65 1606.99,-265.51 1597.1,-269.32 1601.64,-274.65"/>
</g>
<!-- Node6 -->
<g id="node6" class="node">
<title>Node6</title>
<g id="a_node6"><a xlink:title=" ">
<polygon fill="white" stroke="#bfbfbf" points="0,-56.5 0,-75.5 112,-75.5 112,-56.5 0,-56.5"/>
<text text-anchor="middle" x="56" y="-63.5" font-family="Helvetica,sans-Serif" font-size="10.00">AMReX_iMultiFab.H</text>
</a>
</g>
</g>
<!-- Node2&#45;&gt;Node6 -->
<g id="edge5" class="edge">
<title>Node2&#45;&gt;Node6</title>
<path fill="none" stroke="midnightblue" d="M1495.21,-314.48C1243.17,-304.12 153.09,-253.16 55,-143 41.25,-127.56 44.71,-102.55 49.46,-85.47"/>
<polygon fill="midnightblue" stroke="midnightblue" points="52.91,-86.16 52.6,-75.57 46.24,-84.04 52.91,-86.16"/>
</g>
<!-- Node7 -->
<g id="node7" class="node">
<title>Node7</title>
<g id="a_node7"><a xlink:title=" ">
<polygon fill="white" stroke="#bfbfbf" points="1694.5,-246.5 1694.5,-265.5 1825.5,-265.5 1825.5,-246.5 1694.5,-246.5"/>
<text text-anchor="middle" x="1760" y="-253.5" font-family="Helvetica,sans-Serif" font-size="10.00">hydro_NodalProjector.H</text>
</a>
</g>
</g>
<!-- Node2&#45;&gt;Node7 -->
<g id="edge6" class="edge">
<title>Node2&#45;&gt;Node7</title>
<path fill="none" stroke="midnightblue" d="M1577.52,-307.98C1614.92,-297.53 1678.43,-279.79 1719.79,-268.23"/>
<polygon fill="midnightblue" stroke="midnightblue" points="1720.85,-271.57 1729.54,-265.51 1718.97,-264.83 1720.85,-271.57"/>
</g>
<!-- Node8 -->
<g id="node8" class="node">
<title>Node8</title>
<g id="a_node8"><a xlink:href="incflo__enums_8_h.html" target="_top" xlink:title=" ">
<polygon fill="white" stroke="black" points="1783.5,-56.5 1783.5,-75.5 1924.5,-75.5 1924.5,-56.5 1783.5,-56.5"/>
<text text-anchor="middle" x="1854" y="-63.5" font-family="Helvetica,sans-Serif" font-size="10.00">amr&#45;wind/incflo_enums.H</text>
</a>
</g>
</g>
<!-- Node2&#45;&gt;Node8 -->
<g id="edge7" class="edge">
<title>Node2&#45;&gt;Node8</title>
<path fill="none" stroke="midnightblue" d="M1598.64,-314.72C1672.76,-311.01 1803.81,-299.73 1835,-266 1881.53,-215.67 1867.57,-124.55 1858.77,-85.54"/>
<polygon fill="midnightblue" stroke="midnightblue" points="1862.12,-84.5 1856.37,-75.6 1855.31,-86.14 1862.12,-84.5"/>
</g>
<!-- Node9 -->
<g id="node9" class="node">
<title>Node9</title>
<g id="a_node9"><a xlink:href="_c_f_d_sim_8_h.html" target="_top" xlink:title=" ">
<polygon fill="white" stroke="black" points="1279,-246.5 1279,-265.5 1395,-265.5 1395,-246.5 1279,-246.5"/>
<text text-anchor="middle" x="1337" y="-253.5" font-family="Helvetica,sans-Serif" font-size="10.00">amr&#45;wind/CFDSim.H</text>
</a>
</g>
</g>
<!-- Node2&#45;&gt;Node9 -->
<g id="edge8" class="edge">
<title>Node2&#45;&gt;Node9</title>
<path fill="none" stroke="midnightblue" d="M1516.91,-307.98C1480.11,-297.55 1417.69,-279.86 1376.91,-268.31"/>
<polygon fill="midnightblue" stroke="midnightblue" points="1377.61,-264.87 1367.03,-265.51 1375.7,-271.6 1377.61,-264.87"/>
</g>
<!-- Node10 -->
<g id="node10" class="node">
<title>Node10</title>
<g id="a_node10"><a xlink:href="_sim_time_8_h.html" target="_top" xlink:title=" ">
<polygon fill="white" stroke="black" points="2180,-185 2180,-204 2324,-204 2324,-185 2180,-185"/>
<text text-anchor="middle" x="2252" y="-192" font-family="Helvetica,sans-Serif" font-size="10.00">amr&#45;wind/core/SimTime.H</text>
</a>
</g>
</g>
<!-- Node2&#45;&gt;Node10 -->
<g id="edge73" class="edge">
<title>Node2&#45;&gt;Node10</title>
<path fill="none" stroke="midnightblue" d="M1598.77,-308.77C1662.28,-299.2 1773.18,-282.16 1868,-266 1985.74,-245.93 2123.33,-220.09 2197.66,-205.93"/>
<polygon fill="midnightblue" stroke="midnightblue" points="2198.55,-209.32 2207.72,-204.01 2197.24,-202.45 2198.55,-209.32"/>
</g>
<!-- Node14 -->
<g id="node14" class="node">
<title>Node14</title>
<g id="a_node14"><a xlink:href="_field_repo_8_h.html" target="_top" xlink:title=" ">
<polygon fill="white" stroke="black" points="749.5,-185 749.5,-204 898.5,-204 898.5,-185 749.5,-185"/>
<text text-anchor="middle" x="824" y="-192" font-family="Helvetica,sans-Serif" font-size="10.00">amr&#45;wind/core/FieldRepo.H</text>
</a>
</g>
</g>
<!-- Node2&#45;&gt;Node14 -->
<g id="edge74" class="edge">
<title>Node2&#45;&gt;Node14</title>
<path fill="none" stroke="midnightblue" d="M1495.42,-308.22C1433.88,-298.31 1327.9,-281.16 1237,-266 1110.92,-244.97 963.32,-219.59 883.16,-205.74"/>
<polygon fill="midnightblue" stroke="midnightblue" points="883.7,-202.29 873.25,-204.03 882.51,-209.18 883.7,-202.29"/>
</g>
<!-- Node9&#45;&gt;Node3 -->
<g id="edge9" class="edge">
<title>Node9&#45;&gt;Node3</title>
<path fill="none" stroke="midnightblue" d="M1334.11,-246.31C1327.34,-225.9 1310.31,-174.6 1301.11,-146.91"/>
<polygon fill="midnightblue" stroke="midnightblue" points="1304.38,-145.64 1297.91,-137.26 1297.74,-147.85 1304.38,-145.64"/>
</g>
<!-- Node9&#45;&gt;Node10 -->
<g id="edge10" class="edge">
<title>Node9&#45;&gt;Node10</title>
<path fill="none" stroke="midnightblue" d="M1395.07,-246.92C1398.09,-246.59 1401.08,-246.28 1404,-246 1680.97,-219.46 1751.28,-227.03 2029,-210 2075.6,-207.14 2127.66,-203.77 2169.75,-200.99"/>
<polygon fill="midnightblue" stroke="midnightblue" points="2170.2,-204.47 2179.95,-200.32 2169.74,-197.49 2170.2,-204.47"/>
</g>
<!-- Node9&#45;&gt;Node14 -->
<g id="edge14" class="edge">
<title>Node9&#45;&gt;Node14</title>
<path fill="none" stroke="midnightblue" d="M1278.65,-248.23C1187.79,-237.69 1012.12,-217.32 907.75,-205.21"/>
<polygon fill="midnightblue" stroke="midnightblue" points="907.9,-201.71 897.57,-204.03 907.1,-208.66 907.9,-201.71"/>
</g>
<!-- Node31 -->
<g id="node31" class="node">
<title>Node31</title>
<g id="a_node31"><a xlink:href="_p_d_e_base_8_h.html" target="_top" xlink:title=" ">
<polygon fill="white" stroke="black" points="1416.5,-179.5 1416.5,-209.5 1571.5,-209.5 1571.5,-179.5 1416.5,-179.5"/>
<text text-anchor="start" x="1424.5" y="-197.5" font-family="Helvetica,sans-Serif" font-size="10.00">amr&#45;wind/equation_systems</text>
<text text-anchor="middle" x="1494" y="-186.5" font-family="Helvetica,sans-Serif" font-size="10.00">/PDEBase.H</text>
</a>
</g>
</g>
<!-- Node9&#45;&gt;Node31 -->
<g id="edge51" class="edge">
<title>Node9&#45;&gt;Node31</title>
<path fill="none" stroke="midnightblue" d="M1359.49,-246.48C1382.35,-237.81 1418.41,-224.15 1447.45,-213.14"/>
<polygon fill="midnightblue" stroke="midnightblue" points="1448.89,-216.34 1457,-209.52 1446.41,-209.79 1448.89,-216.34"/>
</g>
<!-- Node39 -->
<g id="node39" class="node">
<title>Node39</title>
<g id="a_node39"><a xlink:href="_physics_8_h.html" target="_top" xlink:title=" ">
<polygon fill="white" stroke="black" points="1882.5,-185 1882.5,-204 2019.5,-204 2019.5,-185 1882.5,-185"/>
<text text-anchor="middle" x="1951" y="-192" font-family="Helvetica,sans-Serif" font-size="10.00">amr&#45;wind/core/Physics.H</text>
</a>
</g>
</g>
<!-- Node9&#45;&gt;Node39 -->
<g id="edge68" class="edge">
<title>Node9&#45;&gt;Node39</title>
<path fill="none" stroke="midnightblue" d="M1395.09,-247.05C1398.1,-246.68 1401.08,-246.33 1404,-246 1570.39,-227.15 1765.86,-210.4 1872.24,-201.74"/>
<polygon fill="midnightblue" stroke="midnightblue" points="1872.57,-205.22 1882.26,-200.93 1872.01,-198.25 1872.57,-205.22"/>
</g>
<!-- Node11 -->
<g id="node11" class="node">
<title>Node11</title>
<g id="a_node11"><a xlink:title=" ">
<polygon fill="white" stroke="#bfbfbf" points="2206,-118 2206,-137 2298,-137 2298,-118 2206,-118"/>
<text text-anchor="middle" x="2252" y="-125" font-family="Helvetica,sans-Serif" font-size="10.00">AMReX_REAL.H</text>
</a>
</g>
</g>
<!-- Node10&#45;&gt;Node11 -->
<g id="edge11" class="edge">
<title>Node10&#45;&gt;Node11</title>
<path fill="none" stroke="midnightblue" d="M2252,-184.73C2252,-175.18 2252,-159.62 2252,-147.28"/>
<polygon fill="midnightblue" stroke="midnightblue" points="2255.5,-147.13 2252,-137.13 2248.5,-147.13 2255.5,-147.13"/>
</g>
<!-- Node12 -->
<g id="node12" class="node">
<title>Node12</title>
<g id="a_node12"><a xlink:title=" ">
<polygon fill="white" stroke="#bfbfbf" points="2316,-118 2316,-137 2450,-137 2450,-118 2316,-118"/>
<text text-anchor="middle" x="2383" y="-125" font-family="Helvetica,sans-Serif" font-size="10.00">AMReX_GpuQualifiers.H</text>
</a>
</g>
</g>
<!-- Node10&#45;&gt;Node12 -->
<g id="edge12" class="edge">
<title>Node10&#45;&gt;Node12</title>
<path fill="none" stroke="midnightblue" d="M2269.4,-184.87C2291.61,-173.84 2330.29,-154.66 2356.26,-141.77"/>
<polygon fill="midnightblue" stroke="midnightblue" points="2358.13,-144.75 2365.53,-137.17 2355.02,-138.48 2358.13,-144.75"/>
</g>
<!-- Node13 -->
<g id="node13" class="node">
<title>Node13</title>
<g id="a_node13"><a xlink:title=" ">
<polygon fill="white" stroke="#bfbfbf" points="2468,-118 2468,-137 2584,-137 2584,-118 2468,-118"/>
<text text-anchor="middle" x="2526" y="-125" font-family="Helvetica,sans-Serif" font-size="10.00">AMReX_Extension.H</text>
</a>
</g>
</g>
<!-- Node10&#45;&gt;Node13 -->
<g id="edge13" class="edge">
<title>Node10&#45;&gt;Node13</title>
<path fill="none" stroke="midnightblue" d="M2288.1,-184.94C2337.39,-173.24 2425.76,-152.28 2479.81,-139.46"/>
<polygon fill="midnightblue" stroke="midnightblue" points="2480.9,-142.8 2489.82,-137.08 2479.28,-135.99 2480.9,-142.8"/>
</g>
<!-- Node14&#45;&gt;Node3 -->
<g id="edge48" class="edge">
<title>Node14&#45;&gt;Node3</title>
<path fill="none" stroke="midnightblue" d="M898.73,-185.97C979.65,-177.38 1112.4,-162.04 1226,-143 1232.81,-141.86 1239.98,-140.51 1247,-139.11"/>
<polygon fill="midnightblue" stroke="midnightblue" points="1248.05,-142.47 1257.14,-137.04 1246.65,-135.62 1248.05,-142.47"/>
</g>
<!-- Node14&#45;&gt;Node6 -->
<g id="edge50" class="edge">
<title>Node14&#45;&gt;Node6</title>
<path fill="none" stroke="midnightblue" d="M749.5,-193.37C570.24,-192.38 125.92,-185.59 75,-143 58.49,-129.19 55.13,-103.41 54.97,-85.74"/>
<polygon fill="midnightblue" stroke="midnightblue" points="58.47,-85.81 55.21,-75.73 51.48,-85.65 58.47,-85.81"/>
</g>
<!-- Node15 -->
<g id="node15" class="node">
<title>Node15</title>
<g id="a_node15"><a xlink:title=" ">
<polygon fill="white" stroke="#bfbfbf" points="780,-0.5 780,-19.5 824,-19.5 824,-0.5 780,-0.5"/>
<text text-anchor="middle" x="802" y="-7.5" font-family="Helvetica,sans-Serif" font-size="10.00">string</text>
</a>
</g>
</g>
<!-- Node14&#45;&gt;Node15 -->
<g id="edge15" class="edge">
<title>Node14&#45;&gt;Node15</title>
<path fill="none" stroke="midnightblue" d="M749.18,-186.33C638.05,-172.85 449.52,-137.4 519,-56 550.96,-18.56 702.65,-12.11 769.84,-11.12"/>
<polygon fill="midnightblue" stroke="midnightblue" points="769.91,-14.62 779.86,-11 769.82,-7.62 769.91,-14.62"/>
</g>
<!-- Node16 -->
<g id="node16" class="node">
<title>Node16</title>
<g id="a_node16"><a xlink:title=" ">
<polygon fill="white" stroke="#bfbfbf" points="1415.5,-56.5 1415.5,-75.5 1508.5,-75.5 1508.5,-56.5 1415.5,-56.5"/>
<text text-anchor="middle" x="1462" y="-63.5" font-family="Helvetica,sans-Serif" font-size="10.00">unordered_map</text>
</a>
</g>
</g>
<!-- Node14&#45;&gt;Node16 -->
<g id="edge16" class="edge">
<title>Node14&#45;&gt;Node16</title>
<path fill="none" stroke="midnightblue" d="M898.64,-188.08C990.79,-180.57 1141.63,-165.33 1193,-143 1212.99,-134.31 1211.26,-121.25 1231,-112 1261.28,-97.81 1347.26,-83.37 1405.35,-74.8"/>
<polygon fill="midnightblue" stroke="midnightblue" points="1406.1,-78.23 1415.49,-73.32 1405.09,-71.3 1406.1,-78.23"/>
</g>
<!-- Node17 -->
<g id="node17" class="node">
<title>Node17</title>
<g id="a_node17"><a xlink:href="_field_desc_types_8_h.html" target="_top" xlink:title=" ">
<polygon fill="white" stroke="black" points="317,-0.5 317,-19.5 493,-19.5 493,-0.5 317,-0.5"/>
<text text-anchor="middle" x="405" y="-7.5" font-family="Helvetica,sans-Serif" font-size="10.00">amr&#45;wind/core/FieldDescTypes.H</text>
</a>
</g>
</g>
<!-- Node14&#45;&gt;Node17 -->
<g id="edge17" class="edge">
<title>Node14&#45;&gt;Node17</title>
<path fill="none" stroke="midnightblue" d="M749.34,-191.68C598.25,-186.16 265.32,-164.05 203,-76 197.87,-68.74 197.44,-62.94 203,-56 216.71,-38.9 263.25,-27.87 308.2,-21.02"/>
<polygon fill="midnightblue" stroke="midnightblue" points="308.96,-24.45 318.35,-19.54 307.95,-17.52 308.96,-24.45"/>
</g>
<!-- Node18 -->
<g id="node18" class="node">
<title>Node18</title>
<g id="a_node18"><a xlink:href="_field_utils_8_h.html" target="_top" xlink:title=" ">
<polygon fill="white" stroke="black" points="212,-56.5 212,-75.5 358,-75.5 358,-56.5 212,-56.5"/>
<text text-anchor="middle" x="285" y="-63.5" font-family="Helvetica,sans-Serif" font-size="10.00">amr&#45;wind/core/FieldUtils.H</text>
</a>
</g>
</g>
<!-- Node14&#45;&gt;Node18 -->
<g id="edge18" class="edge">
<title>Node14&#45;&gt;Node18</title>
<path fill="none" stroke="midnightblue" d="M749.24,-186.95C680.13,-179.81 574.99,-166.19 486,-143 422.54,-126.46 351.45,-96.8 313.14,-79.84"/>
<polygon fill="midnightblue" stroke="midnightblue" points="314.24,-76.5 303.68,-75.61 311.39,-82.89 314.24,-76.5"/>
</g>
<!-- Node19 -->
<g id="node19" class="node">
<title>Node19</title>
<g id="a_node19"><a xlink:title=" ">
<polygon fill="white" stroke="#bfbfbf" points="1151.5,-0.5 1151.5,-19.5 1260.5,-19.5 1260.5,-0.5 1151.5,-0.5"/>
<text text-anchor="middle" x="1206" y="-7.5" font-family="Helvetica,sans-Serif" font-size="10.00">AMReX_MultiFab.H</text>
</a>
</g>
</g>
<!-- Node14&#45;&gt;Node19 -->
<g id="edge49" class="edge">
<title>Node14&#45;&gt;Node19</title>
<path fill="none" stroke="midnightblue" d="M898.52,-192.13C1111,-187.85 1706.41,-173.22 1735,-143 1753.95,-122.97 1720.06,-59.91 1715,-56 1680.57,-29.39 1399.98,-17.14 1270.74,-12.86"/>
<polygon fill="midnightblue" stroke="midnightblue" points="1270.69,-9.36 1260.58,-12.53 1270.46,-16.36 1270.69,-9.36"/>
</g>
<!-- Node21 -->
<g id="node21" class="node">
<title>Node21</title>
<g id="a_node21"><a xlink:href="_field_8_h.html" target="_top" xlink:title=" ">
<polygon fill="white" stroke="black" points="1060,-118 1060,-137 1184,-137 1184,-118 1060,-118"/>
<text text-anchor="middle" x="1122" y="-125" font-family="Helvetica,sans-Serif" font-size="10.00">amr&#45;wind/core/Field.H</text>
</a>
</g>
</g>
<!-- Node14&#45;&gt;Node21 -->
<g id="edge22" class="edge">
<title>Node14&#45;&gt;Node21</title>
<path fill="none" stroke="midnightblue" d="M863.26,-184.94C917.2,-173.17 1014.18,-152.02 1072.86,-139.22"/>
<polygon fill="midnightblue" stroke="midnightblue" points="1073.62,-142.63 1082.65,-137.08 1072.13,-135.8 1073.62,-142.63"/>
</g>
<!-- Node28 -->
<g id="node28" class="node">
<title>Node28</title>
<g id="a_node28"><a xlink:href="_int_field_8_h.html" target="_top" xlink:title=" ">
<polygon fill="white" stroke="black" points="84.5,-118 84.5,-137 221.5,-137 221.5,-118 84.5,-118"/>
<text text-anchor="middle" x="153" y="-125" font-family="Helvetica,sans-Serif" font-size="10.00">amr&#45;wind/core/IntField.H</text>
</a>
</g>
</g>
<!-- Node14&#45;&gt;Node28 -->
<g id="edge37" class="edge">
<title>Node14&#45;&gt;Node28</title>
<path fill="none" stroke="midnightblue" d="M749.06,-189.17C637.09,-182.21 419.65,-166.88 236,-143 226.84,-141.81 217.15,-140.32 207.74,-138.76"/>
<polygon fill="midnightblue" stroke="midnightblue" points="208.14,-135.28 197.69,-137.04 206.96,-142.18 208.14,-135.28"/>
</g>
<!-- Node29 -->
<g id="node29" class="node">
<title>Node29</title>
<g id="a_node29"><a xlink:href="_scratch_field_8_h.html" target="_top" xlink:title=" ">
<polygon fill="white" stroke="black" points="614,-118 614,-137 774,-137 774,-118 614,-118"/>
<text text-anchor="middle" x="694" y="-125" font-family="Helvetica,sans-Serif" font-size="10.00">amr&#45;wind/core/ScratchField.H</text>
</a>
</g>
</g>
<!-- Node14&#45;&gt;Node29 -->
<g id="edge41" class="edge">
<title>Node14&#45;&gt;Node29</title>
<path fill="none" stroke="midnightblue" d="M806.74,-184.87C784.69,-173.84 746.31,-154.66 720.54,-141.77"/>
<polygon fill="midnightblue" stroke="midnightblue" points="721.84,-138.51 711.33,-137.17 718.71,-144.77 721.84,-138.51"/>
</g>
<!-- Node18&#45;&gt;Node17 -->
<g id="edge19" class="edge">
<title>Node18&#45;&gt;Node17</title>
<path fill="none" stroke="midnightblue" d="M304.01,-56.44C323.59,-47.64 354.31,-33.81 376.73,-23.72"/>
<polygon fill="midnightblue" stroke="midnightblue" points="378.39,-26.81 386.07,-19.52 375.52,-20.43 378.39,-26.81"/>
</g>
<!-- Node18&#45;&gt;Node19 -->
<g id="edge20" class="edge">
<title>Node18&#45;&gt;Node19</title>
<path fill="none" stroke="midnightblue" d="M358.04,-60.72C533.17,-50.45 974.79,-24.56 1141.21,-14.8"/>
<polygon fill="midnightblue" stroke="midnightblue" points="1141.52,-18.29 1151.29,-14.21 1141.11,-11.3 1141.52,-18.29"/>
</g>
<!-- Node20 -->
<g id="node20" class="node">
<title>Node20</title>
<g id="a_node20"><a xlink:title=" ">
<polygon fill="white" stroke="#bfbfbf" points="175,-0.5 175,-19.5 299,-19.5 299,-0.5 175,-0.5"/>
<text text-anchor="middle" x="237" y="-7.5" font-family="Helvetica,sans-Serif" font-size="10.00">AMReX_Interpolater.H</text>
</a>
</g>
</g>
<!-- Node18&#45;&gt;Node20 -->
<g id="edge21" class="edge">
<title>Node18&#45;&gt;Node20</title>
<path fill="none" stroke="midnightblue" d="M277.07,-56.08C270.15,-48.3 259.93,-36.8 251.55,-27.37"/>
<polygon fill="midnightblue" stroke="midnightblue" points="254.04,-24.9 244.78,-19.75 248.81,-29.55 254.04,-24.9"/>
</g>
<!-- Node21&#45;&gt;Node8 -->
<g id="edge30" class="edge">
<title>Node21&#45;&gt;Node8</title>
<path fill="none" stroke="midnightblue" d="M1181.04,-117.99C1197.21,-115.84 1214.76,-113.66 1231,-112 1333.91,-101.45 1629.48,-81.63 1773.37,-72.22"/>
<polygon fill="midnightblue" stroke="midnightblue" points="1773.71,-75.7 1783.46,-71.56 1773.25,-68.72 1773.71,-75.7"/>
</g>
<!-- Node21&#45;&gt;Node15 -->
<g id="edge23" class="edge">
<title>Node21&#45;&gt;Node15</title>
<path fill="none" stroke="midnightblue" d="M1108.33,-117.93C1084.52,-103.32 1033.52,-73.51 987,-56 959.16,-45.52 879.02,-27.54 833.89,-17.78"/>
<polygon fill="midnightblue" stroke="midnightblue" points="834.53,-14.33 824.02,-15.65 833.06,-21.18 834.53,-14.33"/>
</g>
<!-- Node21&#45;&gt;Node16 -->
<g id="edge25" class="edge">
<title>Node21&#45;&gt;Node16</title>
<path fill="none" stroke="midnightblue" d="M1165.78,-118C1176.32,-115.99 1187.56,-113.89 1198,-112 1269.35,-99.11 1351.74,-85.23 1405.24,-76.34"/>
<polygon fill="midnightblue" stroke="midnightblue" points="1405.92,-79.78 1415.22,-74.69 1404.78,-72.87 1405.92,-79.78"/>
</g>
<!-- Node21&#45;&gt;Node17 -->
<g id="edge31" class="edge">
<title>Node21&#45;&gt;Node17</title>
<path fill="none" stroke="midnightblue" d="M1068.99,-117.96C939.56,-97.11 607.85,-43.68 468.33,-21.2"/>
<polygon fill="midnightblue" stroke="midnightblue" points="468.66,-17.71 458.23,-19.57 467.54,-24.62 468.66,-17.71"/>
</g>
<!-- Node21&#45;&gt;Node19 -->
<g id="edge27" class="edge">
<title>Node21&#45;&gt;Node19</title>
<path fill="none" stroke="midnightblue" d="M1165.17,-117.96C1235.06,-104.08 1365.39,-77.97 1367,-76 1397.31,-38.8 1327.67,-22.73 1270.66,-15.9"/>
<polygon fill="midnightblue" stroke="midnightblue" points="1270.88,-12.4 1260.55,-14.76 1270.1,-19.36 1270.88,-12.4"/>
</g>
<!-- Node22 -->
<g id="node22" class="node">
<title>Node22</title>
<g id="a_node22"><a xlink:title=" ">
<polygon fill="white" stroke="#bfbfbf" points="1631,-56.5 1631,-75.5 1689,-75.5 1689,-56.5 1631,-56.5"/>
<text text-anchor="middle" x="1660" y="-63.5" font-family="Helvetica,sans-Serif" font-size="10.00">memory</text>
</a>
</g>
</g>
<!-- Node21&#45;&gt;Node22 -->
<g id="edge24" class="edge">
<title>Node21&#45;&gt;Node22</title>
<path fill="none" stroke="midnightblue" d="M1183.64,-117.97C1199.09,-115.92 1215.64,-113.8 1231,-112 1387.63,-93.6 1427.25,-93.27 1584,-76 1595.95,-74.68 1608.95,-73.17 1620.76,-71.77"/>
<polygon fill="midnightblue" stroke="midnightblue" points="1621.27,-75.23 1630.78,-70.57 1620.44,-68.28 1621.27,-75.23"/>
</g>
<!-- Node23 -->
<g id="node23" class="node">
<title>Node23</title>
<g id="a_node23"><a xlink:title=" ">
<polygon fill="white" stroke="#bfbfbf" points="1072,-56.5 1072,-75.5 1136,-75.5 1136,-56.5 1072,-56.5"/>
<text text-anchor="middle" x="1104" y="-63.5" font-family="Helvetica,sans-Serif" font-size="10.00">algorithm</text>
</a>
</g>
</g>
<!-- Node21&#45;&gt;Node23 -->
<g id="edge26" class="edge">
<title>Node21&#45;&gt;Node23</title>
<path fill="none" stroke="midnightblue" d="M1119.42,-117.98C1116.85,-109.49 1112.83,-96.2 1109.54,-85.32"/>
<polygon fill="midnightblue" stroke="midnightblue" points="1112.82,-84.07 1106.57,-75.51 1106.12,-86.09 1112.82,-84.07"/>
</g>
<!-- Node24 -->
<g id="node24" class="node">
<title>Node24</title>
<g id="a_node24"><a xlink:title=" ">
<polygon fill="white" stroke="#bfbfbf" points="1154.5,-56.5 1154.5,-75.5 1253.5,-75.5 1253.5,-56.5 1154.5,-56.5"/>
<text text-anchor="middle" x="1204" y="-63.5" font-family="Helvetica,sans-Serif" font-size="10.00">AMReX_BCRec.H</text>
</a>
</g>
</g>
<!-- Node21&#45;&gt;Node24 -->
<g id="edge28" class="edge">
<title>Node21&#45;&gt;Node24</title>
<path fill="none" stroke="midnightblue" d="M1133.75,-117.98C1146.78,-108.52 1168.04,-93.1 1183.76,-81.69"/>
<polygon fill="midnightblue" stroke="midnightblue" points="1186.23,-84.21 1192.27,-75.51 1182.12,-78.55 1186.23,-84.21"/>
</g>
<!-- Node25 -->
<g id="node25" class="node">
<title>Node25</title>
<g id="a_node25"><a xlink:title=" ">
<polygon fill="white" stroke="#bfbfbf" points="1271.5,-56.5 1271.5,-75.5 1358.5,-75.5 1358.5,-56.5 1271.5,-56.5"/>
<text text-anchor="middle" x="1315" y="-63.5" font-family="Helvetica,sans-Serif" font-size="10.00">AMReX_Gpu.H</text>
</a>
</g>
</g>
<!-- Node21&#45;&gt;Node25 -->
<g id="edge29" class="edge">
<title>Node21&#45;&gt;Node25</title>
<path fill="none" stroke="midnightblue" d="M1149.65,-117.98C1183.19,-107.64 1239.87,-90.16 1277.37,-78.6"/>
<polygon fill="midnightblue" stroke="midnightblue" points="1278.87,-81.8 1287.4,-75.51 1276.81,-75.11 1278.87,-81.8"/>
</g>
<!-- Node26 -->
<g id="node26" class="node">
<title>Node26</title>
<g id="a_node26"><a xlink:href="_view_field_8_h.html" target="_top" xlink:title=" ">
<polygon fill="white" stroke="black" points="830,-56.5 830,-75.5 978,-75.5 978,-56.5 830,-56.5"/>
<text text-anchor="middle" x="904" y="-63.5" font-family="Helvetica,sans-Serif" font-size="10.00">amr&#45;wind/core/ViewField.H</text>
</a>
</g>
</g>
<!-- Node21&#45;&gt;Node26 -->
<g id="edge32" class="edge">
<title>Node21&#45;&gt;Node26</title>
<path fill="none" stroke="midnightblue" d="M1090.77,-117.98C1052.4,-107.5 987.21,-89.71 944.89,-78.16"/>
<polygon fill="midnightblue" stroke="midnightblue" points="945.74,-74.77 935.18,-75.51 943.9,-81.52 945.74,-74.77"/>
</g>
<!-- Node26&#45;&gt;Node15 -->
<g id="edge33" class="edge">
<title>Node26&#45;&gt;Node15</title>
<path fill="none" stroke="midnightblue" d="M887.61,-56.32C871.33,-47.7 846.13,-34.36 827.28,-24.39"/>
<polygon fill="midnightblue" stroke="midnightblue" points="828.82,-21.24 818.35,-19.65 825.55,-27.43 828.82,-21.24"/>
</g>
<!-- Node26&#45;&gt;Node17 -->
<g id="edge34" class="edge">
<title>Node26&#45;&gt;Node17</title>
<path fill="none" stroke="midnightblue" d="M829.83,-56.97C740.16,-47.27 589.37,-30.95 493.65,-20.59"/>
<polygon fill="midnightblue" stroke="midnightblue" points="494.01,-17.11 483.7,-19.52 493.26,-24.07 494.01,-17.11"/>
</g>
<!-- Node26&#45;&gt;Node19 -->
<g id="edge35" class="edge">
<title>Node26&#45;&gt;Node19</title>
<path fill="none" stroke="midnightblue" d="M951.85,-56.44C1005.2,-46.9 1091.44,-31.48 1148.44,-21.29"/>
<polygon fill="midnightblue" stroke="midnightblue" points="1149.14,-24.72 1158.37,-19.52 1147.91,-17.83 1149.14,-24.72"/>
</g>
<!-- Node27 -->
<g id="node27" class="node">
<title>Node27</title>
<g id="a_node27"><a xlink:title=" ">
<polygon fill="white" stroke="#bfbfbf" points="855,-0.5 855,-19.5 953,-19.5 953,-0.5 855,-0.5"/>
<text text-anchor="middle" x="904" y="-7.5" font-family="Helvetica,sans-Serif" font-size="10.00">AMReX_Vector.H</text>
</a>
</g>
</g>
<!-- Node26&#45;&gt;Node27 -->
<g id="edge36" class="edge">
<title>Node26&#45;&gt;Node27</title>
<path fill="none" stroke="midnightblue" d="M904,-56.08C904,-49.01 904,-38.86 904,-29.99"/>
<polygon fill="midnightblue" stroke="midnightblue" points="907.5,-29.75 904,-19.75 900.5,-29.75 907.5,-29.75"/>
</g>
<!-- Node28&#45;&gt;Node6 -->
<g id="edge40" class="edge">
<title>Node28&#45;&gt;Node6</title>
<path fill="none" stroke="midnightblue" d="M139.1,-117.98C123.33,-108.3 97.36,-92.37 78.65,-80.89"/>
<polygon fill="midnightblue" stroke="midnightblue" points="80.23,-77.75 69.87,-75.51 76.57,-83.72 80.23,-77.75"/>
</g>
<!-- Node28&#45;&gt;Node15 -->
<g id="edge38" class="edge">
<title>Node28&#45;&gt;Node15</title>
<path fill="none" stroke="midnightblue" d="M189.31,-117.98C250.34,-103.84 377.47,-75.19 486,-56 589.04,-37.78 712,-21.95 769.43,-14.9"/>
<polygon fill="midnightblue" stroke="midnightblue" points="770.19,-18.34 779.7,-13.65 769.35,-11.39 770.19,-18.34"/>
</g>
<!-- Node28&#45;&gt;Node17 -->
<g id="edge39" class="edge">
<title>Node28&#45;&gt;Node17</title>
<path fill="none" stroke="midnightblue" d="M152.34,-117.68C151.73,-102.7 152.87,-72.34 170,-56 181.77,-44.77 267.1,-30.44 331.57,-21"/>
<polygon fill="midnightblue" stroke="midnightblue" points="332.33,-24.43 341.73,-19.53 331.33,-17.5 332.33,-24.43"/>
</g>
<!-- Node29&#45;&gt;Node15 -->
<g id="edge42" class="edge">
<title>Node29&#45;&gt;Node15</title>
<path fill="none" stroke="midnightblue" d="M700.07,-117.83C709.87,-104.1 730.1,-76.76 750,-56 760.2,-45.36 772.65,-34.52 782.81,-26.15"/>
<polygon fill="midnightblue" stroke="midnightblue" points="785.14,-28.76 790.71,-19.75 780.74,-23.32 785.14,-28.76"/>
</g>
<!-- Node29&#45;&gt;Node17 -->
<g id="edge43" class="edge">
<title>Node29&#45;&gt;Node17</title>
<path fill="none" stroke="midnightblue" d="M654.51,-117.94C618.43,-109.46 564.01,-95.01 519,-76 485.21,-61.73 448.83,-39.7 426.49,-25.31"/>
<polygon fill="midnightblue" stroke="midnightblue" points="428.1,-22.19 417.82,-19.66 424.28,-28.06 428.1,-22.19"/>
</g>
<!-- Node29&#45;&gt;Node19 -->
<g id="edge45" class="edge">
<title>Node29&#45;&gt;Node19</title>
<path fill="none" stroke="midnightblue" d="M756.16,-117.96C815.76,-109.26 908.09,-94.44 987,-76 1021.83,-67.86 1116.3,-38.92 1169.08,-22.53"/>
<polygon fill="midnightblue" stroke="midnightblue" points="1170.22,-25.84 1178.73,-19.53 1168.14,-19.16 1170.22,-25.84"/>
</g>
<!-- Node29&#45;&gt;Node26 -->
<g id="edge44" class="edge">
<title>Node29&#45;&gt;Node26</title>
<path fill="none" stroke="midnightblue" d="M724.09,-117.98C760.89,-107.55 823.31,-89.86 864.09,-78.31"/>
<polygon fill="midnightblue" stroke="midnightblue" points="865.3,-81.6 873.97,-75.51 863.39,-74.87 865.3,-81.6"/>
</g>
<!-- Node29&#45;&gt;Node27 -->
<g id="edge46" class="edge">
<title>Node29&#45;&gt;Node27</title>
<path fill="none" stroke="midnightblue" d="M709.22,-117.99C733.03,-104.69 780.54,-78.2 821,-56 840.46,-45.32 862.56,-33.35 879.06,-24.44"/>
<polygon fill="midnightblue" stroke="midnightblue" points="880.92,-27.41 888.06,-19.58 877.6,-21.25 880.92,-27.41"/>
</g>
<!-- Node30 -->
<g id="node30" class="node">
<title>Node30</title>
<g id="a_node30"><a xlink:title=" ">
<polygon fill="white" stroke="#bfbfbf" points="528.5,-56.5 528.5,-75.5 659.5,-75.5 659.5,-56.5 528.5,-56.5"/>
<text text-anchor="middle" x="594" y="-63.5" font-family="Helvetica,sans-Serif" font-size="10.00">AMReX_PhysBCFunct.H</text>
</a>
</g>
</g>
<!-- Node29&#45;&gt;Node30 -->
<g id="edge47" class="edge">
<title>Node29&#45;&gt;Node30</title>
<path fill="none" stroke="midnightblue" d="M679.67,-117.98C663.34,-108.25 636.4,-92.23 617.09,-80.74"/>
<polygon fill="midnightblue" stroke="midnightblue" points="618.68,-77.61 608.3,-75.51 615.11,-83.63 618.68,-77.61"/>
</g>
<!-- Node31&#45;&gt;Node8 -->
<g id="edge67" class="edge">
<title>Node31&#45;&gt;Node8</title>
<path fill="none" stroke="midnightblue" d="M1571.61,-190.47C1628.71,-185.63 1706.88,-173.43 1769,-143 1798.33,-128.63 1825.16,-101.21 1840.53,-83.53"/>
<polygon fill="midnightblue" stroke="midnightblue" points="1843.34,-85.64 1847.12,-75.74 1837.99,-81.12 1843.34,-85.64"/>
</g>
<!-- Node31&#45;&gt;Node15 -->
<g id="edge52" class="edge">
<title>Node31&#45;&gt;Node15</title>
<path fill="none" stroke="midnightblue" d="M1416.15,-188.65C1327.19,-182.17 1177.54,-168.45 1051,-143 946.62,-122.01 896.32,-151.25 821,-76 808.92,-63.94 804.43,-44.65 802.81,-30.21"/>
<polygon fill="midnightblue" stroke="midnightblue" points="806.28,-29.61 802.03,-19.9 799.29,-30.14 806.28,-29.61"/>
</g>
<!-- Node31&#45;&gt;Node17 -->
<g id="edge66" class="edge">
<title>Node31&#45;&gt;Node17</title>
<path fill="none" stroke="midnightblue" d="M1416.3,-193.28C1228.95,-192.09 756.62,-184.88 605,-143 543.11,-125.9 529.69,-112.69 477,-76 455.97,-61.36 434.51,-41.16 420.55,-27.19"/>
<polygon fill="midnightblue" stroke="midnightblue" points="422.77,-24.45 413.27,-19.76 417.78,-29.35 422.77,-24.45"/>
</g>
<!-- Node32 -->
<g id="node32" class="node">
<title>Node32</title>
<g id="a_node32"><a xlink:href="_factory_8_h.html" target="_top" xlink:title=" ">
<polygon fill="white" stroke="black" points="1882,-118 1882,-137 2016,-137 2016,-118 1882,-118"/>
<text text-anchor="middle" x="1949" y="-125" font-family="Helvetica,sans-Serif" font-size="10.00">amr&#45;wind/core/Factory.H</text>
</a>
</g>
</g>
<!-- Node31&#45;&gt;Node32 -->
<g id="edge53" class="edge">
<title>Node31&#45;&gt;Node32</title>
<path fill="none" stroke="midnightblue" d="M1571.7,-182.4C1658.08,-170.06 1796.31,-150.31 1879.31,-138.46"/>
<polygon fill="midnightblue" stroke="midnightblue" points="1879.99,-141.89 1889.4,-137.01 1879,-134.96 1879.99,-141.89"/>
</g>
<!-- Node36 -->
<g id="node36" class="node">
<title>Node36</title>
<g id="a_node36"><a xlink:href="_coll_mgr_8_h.html" target="_top" xlink:title=" ">
<polygon fill="white" stroke="black" points="1589.5,-118 1589.5,-137 1726.5,-137 1726.5,-118 1589.5,-118"/>
<text text-anchor="middle" x="1658" y="-125" font-family="Helvetica,sans-Serif" font-size="10.00">amr&#45;wind/core/CollMgr.H</text>
</a>
</g>
</g>
<!-- Node31&#45;&gt;Node36 -->
<g id="edge59" class="edge">
<title>Node31&#45;&gt;Node36</title>
<path fill="none" stroke="midnightblue" d="M1529.59,-179.4C1558.62,-167.89 1599.22,-151.8 1626.95,-140.81"/>
<polygon fill="midnightblue" stroke="midnightblue" points="1628.53,-143.95 1636.54,-137.01 1625.95,-137.44 1628.53,-143.95"/>
</g>
<!-- Node37 -->
<g id="node37" class="node">
<title>Node37</title>
<g id="a_node37"><a xlink:href="_p_d_e_fields_8_h.html" target="_top" xlink:title=" ">
<polygon fill="white" stroke="black" points="1416.5,-112.5 1416.5,-142.5 1571.5,-142.5 1571.5,-112.5 1416.5,-112.5"/>
<text text-anchor="start" x="1424.5" y="-130.5" font-family="Helvetica,sans-Serif" font-size="10.00">amr&#45;wind/equation_systems</text>
<text text-anchor="middle" x="1494" y="-119.5" font-family="Helvetica,sans-Serif" font-size="10.00">/PDEFields.H</text>
</a>
</g>
</g>
<!-- Node31&#45;&gt;Node37 -->
<g id="edge64" class="edge">
<title>Node31&#45;&gt;Node37</title>
<path fill="none" stroke="midnightblue" d="M1494,-179.4C1494,-171.64 1494,-161.81 1494,-152.86"/>
<polygon fill="midnightblue" stroke="midnightblue" points="1497.5,-152.58 1494,-142.58 1490.5,-152.58 1497.5,-152.58"/>
</g>
<!-- Node32&#45;&gt;Node16 -->
<g id="edge55" class="edge">
<title>Node32&#45;&gt;Node16</title>
<path fill="none" stroke="midnightblue" d="M1881.7,-119.51C1798.86,-110.71 1653.66,-94.63 1518.83,-76.06"/>
<polygon fill="midnightblue" stroke="midnightblue" points="1519.11,-72.57 1508.73,-74.66 1518.15,-79.5 1519.11,-72.57"/>
</g>
<!-- Node32&#45;&gt;Node22 -->
<g id="edge54" class="edge">
<title>Node32&#45;&gt;Node22</title>
<path fill="none" stroke="midnightblue" d="M1907.59,-117.98C1851.88,-106.5 1753.49,-86.25 1699.02,-75.03"/>
<polygon fill="midnightblue" stroke="midnightblue" points="1699.56,-71.57 1689.06,-72.98 1698.15,-78.43 1699.56,-71.57"/>
</g>
<!-- Node33 -->
<g id="node33" class="node">
<title>Node33</title>
<g id="a_node33"><a xlink:title=" ">
<polygon fill="white" stroke="#bfbfbf" points="2131,-56.5 2131,-75.5 2191,-75.5 2191,-56.5 2131,-56.5"/>
<text text-anchor="middle" x="2161" y="-63.5" font-family="Helvetica,sans-Serif" font-size="10.00">iostream</text>
</a>
</g>
</g>
<!-- Node32&#45;&gt;Node33 -->
<g id="edge56" class="edge">
<title>Node32&#45;&gt;Node33</title>
<path fill="none" stroke="midnightblue" d="M1979.37,-117.98C2016.61,-107.53 2079.81,-89.79 2120.98,-78.23"/>
<polygon fill="midnightblue" stroke="midnightblue" points="2122,-81.58 2130.68,-75.51 2120.11,-74.84 2122,-81.58"/>
</g>
<!-- Node34 -->
<g id="node34" class="node">
<title>Node34</title>
<g id="a_node34"><a xlink:title=" ">
<polygon fill="white" stroke="#bfbfbf" points="1943,-56.5 1943,-75.5 2033,-75.5 2033,-56.5 1943,-56.5"/>
<text text-anchor="middle" x="1988" y="-63.5" font-family="Helvetica,sans-Serif" font-size="10.00">AMReX_Print.H</text>
</a>
</g>
</g>
<!-- Node32&#45;&gt;Node34 -->
<g id="edge57" class="edge">
<title>Node32&#45;&gt;Node34</title>
<path fill="none" stroke="midnightblue" d="M1954.59,-117.98C1960.38,-109.14 1969.59,-95.09 1976.87,-83.98"/>
<polygon fill="midnightblue" stroke="midnightblue" points="1979.87,-85.79 1982.42,-75.51 1974.01,-81.95 1979.87,-85.79"/>
</g>
<!-- Node35 -->
<g id="node35" class="node">
<title>Node35</title>
<g id="a_node35"><a xlink:title=" ">
<polygon fill="white" stroke="#bfbfbf" points="2051,-56.5 2051,-75.5 2113,-75.5 2113,-56.5 2051,-56.5"/>
<text text-anchor="middle" x="2082" y="-63.5" font-family="Helvetica,sans-Serif" font-size="10.00">AMReX.H</text>
</a>
</g>
</g>
<!-- Node32&#45;&gt;Node35 -->
<g id="edge58" class="edge">
<title>Node32&#45;&gt;Node35</title>
<path fill="none" stroke="midnightblue" d="M1968.06,-117.98C1990.47,-107.95 2027.91,-91.2 2053.71,-79.65"/>
<polygon fill="midnightblue" stroke="midnightblue" points="2055.28,-82.79 2062.98,-75.51 2052.42,-76.4 2055.28,-82.79"/>
</g>
<!-- Node36&#45;&gt;Node15 -->
<g id="edge60" class="edge">
<title>Node36&#45;&gt;Node15</title>
<path fill="none" stroke="midnightblue" d="M1652.14,-117.76C1641.01,-102.02 1615.15,-69.35 1584,-56 1433.09,8.69 1008.91,-40.51 846,-20 842.22,-19.52 838.28,-18.9 834.38,-18.21"/>
<polygon fill="midnightblue" stroke="midnightblue" points="834.76,-14.72 824.27,-16.25 833.42,-21.59 834.76,-14.72"/>
</g>
<!-- Node36&#45;&gt;Node16 -->
<g id="edge62" class="edge">
<title>Node36&#45;&gt;Node16</title>
<path fill="none" stroke="midnightblue" d="M1629.92,-117.98C1595.71,-107.59 1537.8,-90.01 1499.73,-78.45"/>
<polygon fill="midnightblue" stroke="midnightblue" points="1500.62,-75.06 1490.03,-75.51 1498.58,-81.76 1500.62,-75.06"/>
</g>
<!-- Node36&#45;&gt;Node22 -->
<g id="edge61" class="edge">
<title>Node36&#45;&gt;Node22</title>
<path fill="none" stroke="midnightblue" d="M1658.29,-117.98C1658.57,-109.58 1659.01,-96.48 1659.37,-85.66"/>
<polygon fill="midnightblue" stroke="midnightblue" points="1662.88,-85.62 1659.71,-75.51 1655.88,-85.39 1662.88,-85.62"/>
</g>
<!-- Node36&#45;&gt;Node27 -->
<g id="edge63" class="edge">
<title>Node36&#45;&gt;Node27</title>
<path fill="none" stroke="midnightblue" d="M1669.37,-117.84C1686.72,-103.62 1715.98,-75.02 1698,-56 1685.39,-42.66 1145.39,-20.41 963.26,-13.28"/>
<polygon fill="midnightblue" stroke="midnightblue" points="963.2,-9.77 953.07,-12.88 962.92,-16.77 963.2,-9.77"/>
</g>
<!-- Node38 -->
<g id="node38" class="node">
<title>Node38</title>
<g id="a_node38"><a xlink:title=" ">
<polygon fill="white" stroke="#bfbfbf" points="1527,-56.5 1527,-75.5 1575,-75.5 1575,-56.5 1527,-56.5"/>
<text text-anchor="middle" x="1551" y="-63.5" font-family="Helvetica,sans-Serif" font-size="10.00">iosfwd</text>
</a>
</g>
</g>
<!-- Node37&#45;&gt;Node38 -->
<g id="edge65" class="edge">
<title>Node37&#45;&gt;Node38</title>
<path fill="none" stroke="midnightblue" d="M1507.51,-112.4C1515.96,-103.58 1526.88,-92.18 1535.66,-83.02"/>
<polygon fill="midnightblue" stroke="midnightblue" points="1538.32,-85.3 1542.71,-75.66 1533.26,-80.46 1538.32,-85.3"/>
</g>
<!-- Node39&#45;&gt;Node19 -->
<g id="edge71" class="edge">
<title>Node39&#45;&gt;Node19</title>
<path fill="none" stroke="midnightblue" d="M2019.79,-190.07C2063.25,-184.89 2118.61,-172.44 2159,-143 2193.54,-117.82 2229.53,-86.9 2200,-56 2167.87,-22.38 1486.42,-13.48 1270.8,-11.5"/>
<polygon fill="midnightblue" stroke="midnightblue" points="1270.62,-8 1260.59,-11.41 1270.56,-15 1270.62,-8"/>
</g>
<!-- Node39&#45;&gt;Node32 -->
<g id="edge69" class="edge">
<title>Node39&#45;&gt;Node32</title>
<path fill="none" stroke="midnightblue" d="M1950.73,-184.73C1950.44,-175.18 1949.96,-159.62 1949.58,-147.28"/>
<polygon fill="midnightblue" stroke="midnightblue" points="1953.07,-147.01 1949.27,-137.13 1946.07,-147.23 1953.07,-147.01"/>
</g>
<!-- Node39&#45;&gt;Node36 -->
<g id="edge70" class="edge">
<title>Node39&#45;&gt;Node36</title>
<path fill="none" stroke="midnightblue" d="M1912.39,-184.94C1859.47,-173.2 1764.41,-152.11 1706.67,-139.3"/>
<polygon fill="midnightblue" stroke="midnightblue" points="1707.21,-135.83 1696.69,-137.08 1705.7,-142.67 1707.21,-135.83"/>
</g>
<!-- Node40 -->
<g id="node40" class="node">
<title>Node40</title>
<g id="a_node40"><a xlink:title=" ">
<polygon fill="white" stroke="#bfbfbf" points="2034.5,-118 2034.5,-137 2149.5,-137 2149.5,-118 2034.5,-118"/>
<text text-anchor="middle" x="2092" y="-125" font-family="Helvetica,sans-Serif" font-size="10.00">AMReX_Geometry.H</text>
</a>
</g>
</g>
<!-- Node39&#45;&gt;Node40 -->
<g id="edge72" class="edge">
<title>Node39&#45;&gt;Node40</title>
<path fill="none" stroke="midnightblue" d="M1969.72,-184.87C1993.85,-173.75 2036,-154.32 2063.95,-141.43"/>
<polygon fill="midnightblue" stroke="midnightblue" points="2065.58,-144.53 2073.2,-137.17 2062.65,-138.18 2065.58,-144.53"/>
</g>
<!-- Node41&#45;&gt;Node33 -->
<g id="edge76" class="edge">
<title>Node41&#45;&gt;Node33</title>
<path fill="none" stroke="midnightblue" d="M2386.29,-302.5C2476.61,-271.79 2667.51,-194.67 2593,-112 2567.04,-83.19 2303.83,-71.62 2201.44,-68.19"/>
<polygon fill="midnightblue" stroke="midnightblue" points="2201.3,-64.69 2191.19,-67.86 2201.08,-71.68 2201.3,-64.69"/>
</g>
<!-- Node42 -->
<g id="node42" class="node">
<title>Node42</title>
<g id="a_node42"><a xlink:title=" ">
<polygon fill="white" stroke="#bfbfbf" points="2293,-246.5 2293,-265.5 2391,-265.5 2391,-246.5 2293,-246.5"/>
<text text-anchor="middle" x="2342" y="-253.5" font-family="Helvetica,sans-Serif" font-size="10.00">AMReX_MLMG.H</text>
</a>
</g>
</g>
<!-- Node41&#45;&gt;Node42 -->
<g id="edge77" class="edge">
<title>Node41&#45;&gt;Node42</title>
<path fill="none" stroke="midnightblue" d="M2342,-302.4C2342,-294.47 2342,-284.46 2342,-275.86"/>
<polygon fill="midnightblue" stroke="midnightblue" points="2345.5,-275.66 2342,-265.66 2338.5,-275.66 2345.5,-275.66"/>
</g>
</g>
</svg>
        <g id="navigator" transform="translate(0 0)" fill="#404254">
                <rect fill="#f2f5e9" fill-opacity="0.5" stroke="#606060" stroke-width=".5" x="0" y="0" width="60" height="60"/>
                <use id="zoomplus" xlink:href="#zoomPlus" x="17" y="9" onmousedown="handleZoom(evt,'in')"/>
                <use id="zoomminus" xlink:href="#zoomMin" x="42" y="9" onmousedown="handleZoom(evt,'out')"/>
                <use id="reset" xlink:href="#resetDef" x="30" y="36" onmousedown="handleReset()"/>
                <g id="arrowUp" xlink:href="#dirArrow" transform="translate(30 24)" onmousedown="handlePan(0,-1)">
                  <use xlink:href="#rim" fill="#404040">
                        <set attributeName="fill" to="#808080" begin="arrowUp.mouseover" end="arrowUp.mouseout"/>
                  </use>
                  <path fill="none" stroke="white" stroke-width="1.5" d="M0,-3.0v7 M-2.5,-0.5L0,-3.0L2.5,-0.5"/>
                </g>
                <g id="arrowRight" xlink:href="#dirArrow" transform="rotate(90) translate(36 -43)" onmousedown="handlePan(1,0)">
                  <use xlink:href="#rim" fill="#404040">
                        <set attributeName="fill" to="#808080" begin="arrowRight.mouseover" end="arrowRight.mouseout"/>
                  </use>
                  <path fill="none" stroke="white" stroke-width="1.5" d="M0,-3.0v7 M-2.5,-0.5L0,-3.0L2.5,-0.5"/>
                </g>
                <g id="arrowDown" xlink:href="#dirArrow" transform="rotate(180) translate(-30 -48)" onmousedown="handlePan(0,1)">
                  <use xlink:href="#rim" fill="#404040">
                        <set attributeName="fill" to="#808080" begin="arrowDown.mouseover" end="arrowDown.mouseout"/>
                  </use>
                  <path fill="none" stroke="white" stroke-width="1.5" d="M0,-3.0v7 M-2.5,-0.5L0,-3.0L2.5,-0.5"/>
                </g>
                <g id="arrowLeft" xlink:href="#dirArrow" transform="rotate(270) translate(-36 17)" onmousedown="handlePan(-1,0)">
                  <use xlink:href="#rim" fill="#404040">
                        <set attributeName="fill" to="#808080" begin="arrowLeft.mouseover" end="arrowLeft.mouseout"/>
                  </use>
                  <path fill="none" stroke="white" stroke-width="1.5" d="M0,-3.0v7 M-2.5,-0.5L0,-3.0L2.5,-0.5"/>
                </g>
        </g>
        <svg viewBox="0 0 15 15" width="100%" height="30px" preserveAspectRatio="xMaxYMin meet">
         <g id="arrow_out" transform="scale(0.3 0.3)">
          <a xlink:href="main_8cpp__incl_org.svg" target="_base">
           <rect id="button" ry="5" rx="5" y="6" x="6" height="38" width="38"
                fill="#f2f5e9" fill-opacity="0.5" stroke="#606060" stroke-width="1.0"/>
           <path id="arrow"
             d="M 11.500037,31.436501 C 11.940474,20.09759 22.043105,11.32322 32.158766,21.979434 L 37.068811,17.246167 C 37.068811,17.246167 37.088388,32 37.088388,32 L 22.160133,31.978069 C 22.160133,31.978069 26.997745,27.140456 26.997745,27.140456 C 18.528582,18.264221 13.291696,25.230495 11.500037,31.436501 z"
             style="fill:#404040;"/>
          </a>
         </g>
        </svg>
</svg>
