<?xml version="1.0" encoding="UTF-8" standalone="no"?>
<!DOCTYPE svg PUBLIC "-//W3C//DTD SVG 1.1//EN"
 "http://www.w3.org/Graphics/SVG/1.1/DTD/svg11.dtd">
<!-- Generated by graphviz version 2.43.0 (0)
 -->
<!-- Title: nc_interface.H Pages: 1 -->
<!--zoomable 319 -->
<svg id="main" version="1.1" xmlns="http://www.w3.org/2000/svg" xmlns:xlink="http://www.w3.org/1999/xlink" xml:space="preserve" onload="init(evt)">
<style type="text/css"><![CDATA[
.edge:hover path { stroke: red; }
.edge:hover polygon { stroke: red; fill: red; }
]]></style>
<script type="text/javascript"><![CDATA[
var edges = document.getElementsByTagName('g');
if (edges && edges.length) {
  for (var i=0;i<edges.length;i++) {
    if (edges[i].id.substr(0,4)=='edge') {
      edges[i].setAttribute('class','edge');
    }
  }
}
]]></script>
        <defs>
                <circle id="rim" cx="0" cy="0" r="7"/>
                <circle id="rim2" cx="0" cy="0" r="3.5"/>
                <g id="zoomPlus">
                        <use xlink:href="#rim" fill="#404040">
                                <set attributeName="fill" to="#808080" begin="zoomplus.mouseover" end="zoomplus.mouseout"/>
                        </use>
                        <path d="M-4,0h8M0,-4v8" fill="none" stroke="white" stroke-width="1.5" pointer-events="none"/>
                </g>
                <g id="zoomMin">
                        <use xlink:href="#rim" fill="#404040">
                                <set attributeName="fill" to="#808080" begin="zoomminus.mouseover" end="zoomminus.mouseout"/>
                        </use>
                        <path d="M-4,0h8" fill="none" stroke="white" stroke-width="1.5" pointer-events="none"/>
                </g>
                <g id="dirArrow">
                        <path fill="none" stroke="white" stroke-width="1.5" d="M0,-3.0v7 M-2.5,-0.5L0,-3.0L2.5,-0.5"/>
                </g>
               <g id="resetDef">
                       <use xlink:href="#rim2" fill="#404040">
                               <set attributeName="fill" to="#808080" begin="reset.mouseover" end="reset.mouseout"/>
                       </use>
               </g>
        </defs>

<script type="text/javascript">
var viewWidth = 2638;
var viewHeight = 319;
var sectionId = 'dynsection-1';
</script>
<script xlink:href="svgpan.js"/>
<svg id="graph" class="graph">
<g id="viewport">
<title>nc_interface.H</title>
<polygon fill="white" stroke="transparent" points="-4,4 -4,-315 2634,-315 2634,4 -4,4"/>
<!-- Node1 -->
<g id="node1" class="node">
<title>Node1</title>
<g id="a_node1"><a xlink:title=" ">
<polygon fill="#bfbfbf" stroke="black" points="1719,-291.5 1719,-310.5 1806,-310.5 1806,-291.5 1719,-291.5"/>
<text text-anchor="middle" x="1762.5" y="-298.5" font-family="Helvetica,sans-Serif" font-size="10.00">nc_interface.H</text>
</a>
</g>
</g>
<!-- Node2 -->
<g id="node2" class="node">
<title>Node2</title>
<g id="a_node2"><a xlink:href="_a_b_l_boundary_plane_8_h.html" target="_top" xlink:title=" ">
<polygon fill="white" stroke="black" points="759,-235.5 759,-254.5 878,-254.5 878,-235.5 759,-235.5"/>
<text text-anchor="middle" x="818.5" y="-242.5" font-family="Helvetica,sans-Serif" font-size="10.00">ABLBoundaryPlane.H</text>
</a>
</g>
</g>
<!-- Node1&#45;&gt;Node2 -->
<g id="edge1" class="edge">
<title>Node1&#45;&gt;Node2</title>
<path fill="none" stroke="midnightblue" d="M1708.82,-297.37C1577.95,-290.88 1232,-273.31 943.5,-255 922.22,-253.65 898.91,-252.01 878.25,-250.51"/>
<polygon fill="midnightblue" stroke="midnightblue" points="1708.82,-300.87 1718.98,-297.87 1709.16,-293.88 1708.82,-300.87"/>
</g>
<!-- Node11 -->
<g id="node11" class="node">
<title>Node11</title>
<g id="a_node11"><a xlink:href="_a_b_l_boundary_plane_8cpp.html" target="_top" xlink:title=" ">
<polygon fill="white" stroke="black" points="869,-118 869,-137 998,-137 998,-118 869,-118"/>
<text text-anchor="middle" x="933.5" y="-125" font-family="Helvetica,sans-Serif" font-size="10.00">ABLBoundaryPlane.cpp</text>
</a>
</g>
</g>
<!-- Node1&#45;&gt;Node11 -->
<g id="edge39" class="edge">
<title>Node1&#45;&gt;Node11</title>
<path fill="none" stroke="midnightblue" d="M1708.57,-298.91C1575.27,-295.78 1233.17,-284.99 1123.5,-255 1069.82,-240.32 1057.45,-230.39 1011.5,-199 983.47,-179.85 954.99,-151.31 941.52,-137.14"/>
<polygon fill="midnightblue" stroke="midnightblue" points="1708.85,-302.42 1718.93,-299.15 1709.01,-295.42 1708.85,-302.42"/>
</g>
<!-- Node14 -->
<g id="node14" class="node">
<title>Node14</title>
<g id="a_node14"><a xlink:href="bluff__body__ops_8cpp.html" target="_top" xlink:title=" ">
<polygon fill="white" stroke="black" points="1132.5,-235.5 1132.5,-254.5 1242.5,-254.5 1242.5,-235.5 1132.5,-235.5"/>
<text text-anchor="middle" x="1187.5" y="-242.5" font-family="Helvetica,sans-Serif" font-size="10.00">bluff_body_ops.cpp</text>
</a>
</g>
</g>
<!-- Node1&#45;&gt;Node14 -->
<g id="edge15" class="edge">
<title>Node1&#45;&gt;Node14</title>
<path fill="none" stroke="midnightblue" d="M1708.63,-296.18C1615.36,-289.36 1417.81,-274 1251.5,-255 1248.6,-254.67 1245.63,-254.31 1242.63,-253.94"/>
<polygon fill="midnightblue" stroke="midnightblue" points="1708.45,-299.68 1718.68,-296.91 1708.96,-292.69 1708.45,-299.68"/>
</g>
<!-- Node15 -->
<g id="node15" class="node">
<title>Node15</title>
<g id="a_node15"><a xlink:href="_synthetic_turbulence_8cpp.html" target="_top" xlink:title=" ">
<polygon fill="white" stroke="black" points="1261,-235.5 1261,-254.5 1396,-254.5 1396,-235.5 1261,-235.5"/>
<text text-anchor="middle" x="1328.5" y="-242.5" font-family="Helvetica,sans-Serif" font-size="10.00">SyntheticTurbulence.cpp</text>
</a>
</g>
</g>
<!-- Node1&#45;&gt;Node15 -->
<g id="edge16" class="edge">
<title>Node1&#45;&gt;Node15</title>
<path fill="none" stroke="midnightblue" d="M1708.68,-293.3C1629.67,-283.47 1482.33,-265.14 1396.11,-254.41"/>
<polygon fill="midnightblue" stroke="midnightblue" points="1708.54,-296.81 1718.9,-294.58 1709.41,-289.87 1708.54,-296.81"/>
</g>
<!-- Node16 -->
<g id="node16" class="node">
<title>Node16</title>
<g id="a_node16"><a xlink:href="nc__interface_8cpp.html" target="_top" xlink:title=" ">
<polygon fill="white" stroke="black" points="1414,-235.5 1414,-254.5 1511,-254.5 1511,-235.5 1414,-235.5"/>
<text text-anchor="middle" x="1462.5" y="-242.5" font-family="Helvetica,sans-Serif" font-size="10.00">nc_interface.cpp</text>
</a>
</g>
</g>
<!-- Node1&#45;&gt;Node16 -->
<g id="edge17" class="edge">
<title>Node1&#45;&gt;Node16</title>
<path fill="none" stroke="midnightblue" d="M1708.69,-290.32C1652.11,-280.13 1563.94,-264.26 1509.89,-254.53"/>
<polygon fill="midnightblue" stroke="midnightblue" points="1708.42,-293.82 1718.88,-292.15 1709.66,-286.93 1708.42,-293.82"/>
</g>
<!-- Node17 -->
<g id="node17" class="node">
<title>Node17</title>
<g id="a_node17"><a xlink:href="_sampler_base_8_h.html" target="_top" xlink:title=" ">
<polygon fill="white" stroke="black" points="1529.5,-235.5 1529.5,-254.5 1621.5,-254.5 1621.5,-235.5 1529.5,-235.5"/>
<text text-anchor="middle" x="1575.5" y="-242.5" font-family="Helvetica,sans-Serif" font-size="10.00">SamplerBase.H</text>
</a>
</g>
</g>
<!-- Node1&#45;&gt;Node17 -->
<g id="edge18" class="edge">
<title>Node1&#45;&gt;Node17</title>
<path fill="none" stroke="midnightblue" d="M1722.91,-288.57C1687.63,-278.38 1636.81,-263.7 1604.99,-254.52"/>
<polygon fill="midnightblue" stroke="midnightblue" points="1722.29,-292.03 1732.87,-291.44 1724.23,-285.31 1722.29,-292.03"/>
</g>
<!-- Node29 -->
<g id="node29" class="node">
<title>Node29</title>
<g id="a_node29"><a xlink:href="_sampling_8cpp.html" target="_top" xlink:title=" ">
<polygon fill="white" stroke="black" points="1525,-118 1525,-137 1608,-137 1608,-118 1525,-118"/>
<text text-anchor="middle" x="1566.5" y="-125" font-family="Helvetica,sans-Serif" font-size="10.00">Sampling.cpp</text>
</a>
</g>
</g>
<!-- Node1&#45;&gt;Node29 -->
<g id="edge38" class="edge">
<title>Node1&#45;&gt;Node29</title>
<path fill="none" stroke="midnightblue" d="M1752.56,-282.36C1737.43,-256.8 1706.43,-209.21 1669.5,-179 1645.92,-159.71 1613.73,-145.44 1591.65,-137.08"/>
<polygon fill="midnightblue" stroke="midnightblue" points="1749.69,-284.39 1757.73,-291.29 1755.75,-280.88 1749.69,-284.39"/>
</g>
<!-- Node32 -->
<g id="node32" class="node">
<title>Node32</title>
<g id="a_node32"><a xlink:href="_a_b_l_stats_8cpp.html" target="_top" xlink:title=" ">
<polygon fill="white" stroke="black" points="1667.5,-118 1667.5,-137 1747.5,-137 1747.5,-118 1667.5,-118"/>
<text text-anchor="middle" x="1707.5" y="-125" font-family="Helvetica,sans-Serif" font-size="10.00">ABLStats.cpp</text>
</a>
</g>
</g>
<!-- Node1&#45;&gt;Node32 -->
<g id="edge40" class="edge">
<title>Node1&#45;&gt;Node32</title>
<path fill="none" stroke="midnightblue" d="M1755.83,-281.81C1752.89,-273.64 1749.44,-263.86 1746.5,-255 1731.88,-210.94 1716.05,-157.65 1710.02,-137.13"/>
<polygon fill="midnightblue" stroke="midnightblue" points="1752.62,-283.21 1759.32,-291.41 1759.2,-280.82 1752.62,-283.21"/>
</g>
<!-- Node33 -->
<g id="node33" class="node">
<title>Node33</title>
<g id="a_node33"><a xlink:href="_enstrophy_8cpp.html" target="_top" xlink:title=" ">
<polygon fill="white" stroke="black" points="1755.5,-235.5 1755.5,-254.5 1839.5,-254.5 1839.5,-235.5 1755.5,-235.5"/>
<text text-anchor="middle" x="1797.5" y="-242.5" font-family="Helvetica,sans-Serif" font-size="10.00">Enstrophy.cpp</text>
</a>
</g>
</g>
<!-- Node1&#45;&gt;Node33 -->
<g id="edge34" class="edge">
<title>Node1&#45;&gt;Node33</title>
<path fill="none" stroke="midnightblue" d="M1773.8,-282.57C1779.82,-273.27 1786.97,-262.25 1791.83,-254.75"/>
<polygon fill="midnightblue" stroke="midnightblue" points="1770.78,-280.79 1768.28,-291.08 1776.66,-284.6 1770.78,-280.79"/>
</g>
<!-- Node34 -->
<g id="node34" class="node">
<title>Node34</title>
<g id="a_node34"><a xlink:href="_field_norms_8cpp.html" target="_top" xlink:title=" ">
<polygon fill="white" stroke="black" points="1857.5,-235.5 1857.5,-254.5 1949.5,-254.5 1949.5,-235.5 1857.5,-235.5"/>
<text text-anchor="middle" x="1903.5" y="-242.5" font-family="Helvetica,sans-Serif" font-size="10.00">FieldNorms.cpp</text>
</a>
</g>
</g>
<!-- Node1&#45;&gt;Node34 -->
<g id="edge35" class="edge">
<title>Node1&#45;&gt;Node34</title>
<path fill="none" stroke="midnightblue" d="M1794.43,-287.77C1820.91,-277.63 1857.89,-263.47 1881.26,-254.52"/>
<polygon fill="midnightblue" stroke="midnightblue" points="1792.93,-284.6 1784.84,-291.44 1795.43,-291.14 1792.93,-284.6"/>
</g>
<!-- Node35 -->
<g id="node35" class="node">
<title>Node35</title>
<g id="a_node35"><a xlink:href="_free_surface_8cpp.html" target="_top" xlink:title=" ">
<polygon fill="white" stroke="black" points="1968,-235.5 1968,-254.5 2063,-254.5 2063,-235.5 1968,-235.5"/>
<text text-anchor="middle" x="2015.5" y="-242.5" font-family="Helvetica,sans-Serif" font-size="10.00">FreeSurface.cpp</text>
</a>
</g>
</g>
<!-- Node1&#45;&gt;Node35 -->
<g id="edge36" class="edge">
<title>Node1&#45;&gt;Node35</title>
<path fill="none" stroke="midnightblue" d="M1812.42,-289.35C1860.23,-279.14 1931.45,-263.94 1975.6,-254.52"/>
<polygon fill="midnightblue" stroke="midnightblue" points="1811.64,-285.93 1802.59,-291.44 1813.1,-292.78 1811.64,-285.93"/>
</g>
<!-- Node36 -->
<g id="node36" class="node">
<title>Node36</title>
<g id="a_node36"><a xlink:href="_kinetic_energy_8cpp.html" target="_top" xlink:title=" ">
<polygon fill="white" stroke="black" points="2081,-235.5 2081,-254.5 2184,-254.5 2184,-235.5 2081,-235.5"/>
<text text-anchor="middle" x="2132.5" y="-242.5" font-family="Helvetica,sans-Serif" font-size="10.00">KineticEnergy.cpp</text>
</a>
</g>
</g>
<!-- Node1&#45;&gt;Node36 -->
<g id="edge37" class="edge">
<title>Node1&#45;&gt;Node36</title>
<path fill="none" stroke="midnightblue" d="M1816.06,-292.3C1877.87,-283.4 1982.55,-268.27 2072.5,-255 2075.21,-254.6 2077.99,-254.19 2080.79,-253.77"/>
<polygon fill="midnightblue" stroke="midnightblue" points="1815.55,-288.84 1806.15,-293.73 1816.54,-295.77 1815.55,-288.84"/>
</g>
<!-- Node37 -->
<g id="node37" class="node">
<title>Node37</title>
<g id="a_node37"><a xlink:href="uniform__ct__ops_8cpp.html" target="_top" xlink:title=" ">
<polygon fill="white" stroke="black" points="2202.5,-235.5 2202.5,-254.5 2314.5,-254.5 2314.5,-235.5 2202.5,-235.5"/>
<text text-anchor="middle" x="2258.5" y="-242.5" font-family="Helvetica,sans-Serif" font-size="10.00">uniform_ct_ops.cpp</text>
</a>
</g>
</g>
<!-- Node1&#45;&gt;Node37 -->
<g id="edge41" class="edge">
<title>Node1&#45;&gt;Node37</title>
<path fill="none" stroke="midnightblue" d="M1816.34,-294.96C1897.98,-287.2 2057.96,-271.46 2193.5,-255 2196.44,-254.64 2199.45,-254.27 2202.5,-253.88"/>
<polygon fill="midnightblue" stroke="midnightblue" points="1815.92,-291.49 1806.3,-295.92 1816.58,-298.46 1815.92,-291.49"/>
</g>
<!-- Node38 -->
<g id="node38" class="node">
<title>Node38</title>
<g id="a_node38"><a xlink:href="_fast_iface_8cpp.html" target="_top" xlink:title=" ">
<polygon fill="white" stroke="black" points="2332.5,-235.5 2332.5,-254.5 2412.5,-254.5 2412.5,-235.5 2332.5,-235.5"/>
<text text-anchor="middle" x="2372.5" y="-242.5" font-family="Helvetica,sans-Serif" font-size="10.00">FastIface.cpp</text>
</a>
</g>
</g>
<!-- Node1&#45;&gt;Node38 -->
<g id="edge42" class="edge">
<title>Node1&#45;&gt;Node38</title>
<path fill="none" stroke="midnightblue" d="M1816.48,-297.5C1916.72,-292.45 2138.25,-279.38 2323.5,-255 2326.42,-254.62 2329.42,-254.18 2332.44,-253.7"/>
<polygon fill="midnightblue" stroke="midnightblue" points="1816.12,-294.01 1806.3,-298 1816.47,-301 1816.12,-294.01"/>
</g>
<!-- Node39 -->
<g id="node39" class="node">
<title>Node39</title>
<g id="a_node39"><a xlink:href="turbine__utils_8cpp.html" target="_top" xlink:title=" ">
<polygon fill="white" stroke="black" points="2430.5,-235.5 2430.5,-254.5 2528.5,-254.5 2528.5,-235.5 2430.5,-235.5"/>
<text text-anchor="middle" x="2479.5" y="-242.5" font-family="Helvetica,sans-Serif" font-size="10.00">turbine_utils.cpp</text>
</a>
</g>
</g>
<!-- Node1&#45;&gt;Node39 -->
<g id="edge43" class="edge">
<title>Node1&#45;&gt;Node39</title>
<path fill="none" stroke="midnightblue" d="M1816.26,-297.89C1928.82,-293.14 2197.42,-279.99 2421.5,-255 2424.44,-254.67 2427.45,-254.3 2430.49,-253.91"/>
<polygon fill="midnightblue" stroke="midnightblue" points="1816.03,-294.4 1806.18,-298.31 1816.32,-301.39 1816.03,-294.4"/>
</g>
<!-- Node40 -->
<g id="node40" class="node">
<title>Node40</title>
<g id="a_node40"><a xlink:href="wing__ops_8cpp.html" target="_top" xlink:title=" ">
<polygon fill="white" stroke="black" points="2547,-235.5 2547,-254.5 2630,-254.5 2630,-235.5 2547,-235.5"/>
<text text-anchor="middle" x="2588.5" y="-242.5" font-family="Helvetica,sans-Serif" font-size="10.00">wing_ops.cpp</text>
</a>
</g>
</g>
<!-- Node1&#45;&gt;Node40 -->
<g id="edge44" class="edge">
<title>Node1&#45;&gt;Node40</title>
<path fill="none" stroke="midnightblue" d="M1816.55,-299.03C1943.02,-296.29 2267.98,-286.5 2537.5,-255 2540.54,-254.65 2543.67,-254.23 2546.81,-253.77"/>
<polygon fill="midnightblue" stroke="midnightblue" points="1816.28,-295.53 1806.35,-299.24 1816.43,-302.53 1816.28,-295.53"/>
</g>
<!-- Node3 -->
<g id="node3" class="node">
<title>Node3</title>
<g id="a_node3"><a xlink:href="_a_b_l_8_h.html" target="_top" xlink:title=" ">
<polygon fill="white" stroke="black" points="461.5,-179.5 461.5,-198.5 507.5,-198.5 507.5,-179.5 461.5,-179.5"/>
<text text-anchor="middle" x="484.5" y="-186.5" font-family="Helvetica,sans-Serif" font-size="10.00">ABL.H</text>
</a>
</g>
</g>
<!-- Node2&#45;&gt;Node3 -->
<g id="edge2" class="edge">
<title>Node2&#45;&gt;Node3</title>
<path fill="none" stroke="midnightblue" d="M755.28,-233.78C680.01,-221.61 558.15,-201.91 507.61,-193.74"/>
<polygon fill="midnightblue" stroke="midnightblue" points="755.15,-237.3 765.58,-235.44 756.26,-230.39 755.15,-237.3"/>
</g>
<!-- Node9 -->
<g id="node9" class="node">
<title>Node9</title>
<g id="a_node9"><a xlink:href="_a_b_l_8cpp.html" target="_top" xlink:title=" ">
<polygon fill="white" stroke="black" points="678.5,-118 678.5,-137 734.5,-137 734.5,-118 678.5,-118"/>
<text text-anchor="middle" x="706.5" y="-125" font-family="Helvetica,sans-Serif" font-size="10.00">ABL.cpp</text>
</a>
</g>
</g>
<!-- Node2&#45;&gt;Node9 -->
<g id="edge10" class="edge">
<title>Node2&#45;&gt;Node9</title>
<path fill="none" stroke="midnightblue" d="M798.6,-228.89C788.05,-220.53 775.12,-209.69 764.5,-199 743.94,-178.31 722.97,-150.94 712.8,-137.18"/>
<polygon fill="midnightblue" stroke="midnightblue" points="796.75,-231.89 806.79,-235.28 801.06,-226.37 796.75,-231.89"/>
</g>
<!-- Node2&#45;&gt;Node11 -->
<g id="edge11" class="edge">
<title>Node2&#45;&gt;Node11</title>
<path fill="none" stroke="midnightblue" d="M837.48,-229.02C847.85,-220.55 860.74,-209.58 871.5,-199 892.89,-177.98 915.56,-150.75 926.62,-137.1"/>
<polygon fill="midnightblue" stroke="midnightblue" points="835.05,-226.48 829.46,-235.47 839.44,-231.93 835.05,-226.48"/>
</g>
<!-- Node12 -->
<g id="node12" class="node">
<title>Node12</title>
<g id="a_node12"><a xlink:href="_a_b_l_fill_inflow_8_h.html" target="_top" xlink:title=" ">
<polygon fill="white" stroke="black" points="774,-179.5 774,-198.5 863,-198.5 863,-179.5 774,-179.5"/>
<text text-anchor="middle" x="818.5" y="-186.5" font-family="Helvetica,sans-Serif" font-size="10.00">ABLFillInflow.H</text>
</a>
</g>
</g>
<!-- Node2&#45;&gt;Node12 -->
<g id="edge12" class="edge">
<title>Node2&#45;&gt;Node12</title>
<path fill="none" stroke="midnightblue" d="M818.5,-224.8C818.5,-215.91 818.5,-205.78 818.5,-198.75"/>
<polygon fill="midnightblue" stroke="midnightblue" points="815,-225.08 818.5,-235.08 822,-225.08 815,-225.08"/>
</g>
<!-- Node4 -->
<g id="node4" class="node">
<title>Node4</title>
<g id="a_node4"><a xlink:href="_a_b_l_forcing_8cpp.html" target="_top" xlink:title=" ">
<polygon fill="white" stroke="black" points="135,-118 135,-137 226,-137 226,-118 135,-118"/>
<text text-anchor="middle" x="180.5" y="-125" font-family="Helvetica,sans-Serif" font-size="10.00">ABLForcing.cpp</text>
</a>
</g>
</g>
<!-- Node3&#45;&gt;Node4 -->
<g id="edge3" class="edge">
<title>Node3&#45;&gt;Node4</title>
<path fill="none" stroke="midnightblue" d="M451.28,-182.85C403.38,-175.24 312.25,-160.03 235.5,-143 227.59,-141.25 219.11,-139.13 211.23,-137.06"/>
<polygon fill="midnightblue" stroke="midnightblue" points="450.95,-186.35 461.38,-184.45 452.05,-179.43 450.95,-186.35"/>
</g>
<!-- Node5 -->
<g id="node5" class="node">
<title>Node5</title>
<g id="a_node5"><a xlink:href="_a_b_l_mean_boussinesq_8cpp.html" target="_top" xlink:title=" ">
<polygon fill="white" stroke="black" points="244.5,-118 244.5,-137 382.5,-137 382.5,-118 244.5,-118"/>
<text text-anchor="middle" x="313.5" y="-125" font-family="Helvetica,sans-Serif" font-size="10.00">ABLMeanBoussinesq.cpp</text>
</a>
</g>
</g>
<!-- Node3&#45;&gt;Node5 -->
<g id="edge4" class="edge">
<title>Node3&#45;&gt;Node5</title>
<path fill="none" stroke="midnightblue" d="M451.75,-176.6C418.58,-165.06 368.04,-147.48 338.13,-137.07"/>
<polygon fill="midnightblue" stroke="midnightblue" points="450.84,-179.99 461.44,-179.98 453.14,-173.38 450.84,-179.99"/>
</g>
<!-- Node6 -->
<g id="node6" class="node">
<title>Node6</title>
<g id="a_node6"><a xlink:href="incflo_8cpp.html" target="_top" xlink:title=" ">
<polygon fill="white" stroke="black" points="401,-118 401,-137 464,-137 464,-118 401,-118"/>
<text text-anchor="middle" x="432.5" y="-125" font-family="Helvetica,sans-Serif" font-size="10.00">incflo.cpp</text>
</a>
</g>
</g>
<!-- Node3&#45;&gt;Node6 -->
<g id="edge5" class="edge">
<title>Node3&#45;&gt;Node6</title>
<path fill="none" stroke="midnightblue" d="M470.23,-171.67C460.42,-160.45 447.81,-146.02 439.94,-137.01"/>
<polygon fill="midnightblue" stroke="midnightblue" points="467.83,-174.25 477.05,-179.48 473.1,-169.64 467.83,-174.25"/>
</g>
<!-- Node7 -->
<g id="node7" class="node">
<title>Node7</title>
<g id="a_node7"><a xlink:href="incflo__apply__nodal__projection_8cpp.html" target="_top" xlink:title=" ">
<polygon fill="white" stroke="black" points="482,-112.5 482,-142.5 589,-142.5 589,-112.5 482,-112.5"/>
<text text-anchor="start" x="490" y="-130.5" font-family="Helvetica,sans-Serif" font-size="10.00">incflo_apply_nodal</text>
<text text-anchor="middle" x="535.5" y="-119.5" font-family="Helvetica,sans-Serif" font-size="10.00">_projection.cpp</text>
</a>
</g>
</g>
<!-- Node3&#45;&gt;Node7 -->
<g id="edge6" class="edge">
<title>Node3&#45;&gt;Node7</title>
<path fill="none" stroke="midnightblue" d="M498.38,-171.81C506.23,-162.65 515.95,-151.3 523.48,-142.52"/>
<polygon fill="midnightblue" stroke="midnightblue" points="495.66,-169.6 491.81,-179.48 500.97,-174.16 495.66,-169.6"/>
</g>
<!-- Node8 -->
<g id="node8" class="node">
<title>Node8</title>
<g id="a_node8"><a xlink:href="init_8cpp.html" target="_top" xlink:title=" ">
<polygon fill="white" stroke="black" points="607,-118 607,-137 660,-137 660,-118 607,-118"/>
<text text-anchor="middle" x="633.5" y="-125" font-family="Helvetica,sans-Serif" font-size="10.00">init.cpp</text>
</a>
</g>
</g>
<!-- Node3&#45;&gt;Node8 -->
<g id="edge7" class="edge">
<title>Node3&#45;&gt;Node8</title>
<path fill="none" stroke="midnightblue" d="M515.63,-175.64C538.34,-166.62 569.84,-154.08 597.5,-143 602.25,-141.1 607.36,-139.04 612.19,-137.1"/>
<polygon fill="midnightblue" stroke="midnightblue" points="514.17,-172.45 506.17,-179.4 516.76,-178.96 514.17,-172.45"/>
</g>
<!-- Node3&#45;&gt;Node9 -->
<g id="edge8" class="edge">
<title>Node3&#45;&gt;Node9</title>
<path fill="none" stroke="midnightblue" d="M517.95,-181.13C555.09,-173.21 616.64,-159.17 668.5,-143 674.03,-141.28 679.91,-139.17 685.36,-137.1"/>
<polygon fill="midnightblue" stroke="midnightblue" points="516.76,-177.81 507.7,-183.3 518.21,-184.66 516.76,-177.81"/>
</g>
<!-- Node10 -->
<g id="node10" class="node">
<title>Node10</title>
<g id="a_node10"><a xlink:href="_a_b_l_wall_function_8cpp.html" target="_top" xlink:title=" ">
<polygon fill="white" stroke="black" points="0,-118 0,-137 117,-137 117,-118 0,-118"/>
<text text-anchor="middle" x="58.5" y="-125" font-family="Helvetica,sans-Serif" font-size="10.00">ABLWallFunction.cpp</text>
</a>
</g>
</g>
<!-- Node3&#45;&gt;Node10 -->
<g id="edge9" class="edge">
<title>Node3&#45;&gt;Node10</title>
<path fill="none" stroke="midnightblue" d="M451.07,-184.81C387.43,-178.51 244.62,-163.31 125.5,-143 115.65,-141.32 105.04,-139.18 95.25,-137.07"/>
<polygon fill="midnightblue" stroke="midnightblue" points="451,-188.32 461.3,-185.81 451.69,-181.35 451,-188.32"/>
</g>
<!-- Node12&#45;&gt;Node11 -->
<g id="edge13" class="edge">
<title>Node12&#45;&gt;Node11</title>
<path fill="none" stroke="midnightblue" d="M843.88,-174.87C866.17,-163.33 897.94,-146.9 917.05,-137.01"/>
<polygon fill="midnightblue" stroke="midnightblue" points="842.25,-171.77 834.98,-179.48 845.47,-177.99 842.25,-171.77"/>
</g>
<!-- Node13 -->
<g id="node13" class="node">
<title>Node13</title>
<g id="a_node13"><a xlink:href="_a_b_l_fill_inflow_8cpp.html" target="_top" xlink:title=" ">
<polygon fill="white" stroke="black" points="752.5,-118 752.5,-137 850.5,-137 850.5,-118 752.5,-118"/>
<text text-anchor="middle" x="801.5" y="-125" font-family="Helvetica,sans-Serif" font-size="10.00">ABLFillInflow.cpp</text>
</a>
</g>
</g>
<!-- Node12&#45;&gt;Node13 -->
<g id="edge14" class="edge">
<title>Node12&#45;&gt;Node13</title>
<path fill="none" stroke="midnightblue" d="M813.26,-169.66C810.15,-158.77 806.35,-145.49 803.93,-137.01"/>
<polygon fill="midnightblue" stroke="midnightblue" points="809.95,-170.82 816.06,-179.48 816.68,-168.9 809.95,-170.82"/>
</g>
<!-- Node18 -->
<g id="node18" class="node">
<title>Node18</title>
<g id="a_node18"><a xlink:href="_line_sampler_8_h.html" target="_top" xlink:title=" ">
<polygon fill="white" stroke="black" points="1134,-179.5 1134,-198.5 1221,-198.5 1221,-179.5 1134,-179.5"/>
<text text-anchor="middle" x="1177.5" y="-186.5" font-family="Helvetica,sans-Serif" font-size="10.00">LineSampler.H</text>
</a>
</g>
</g>
<!-- Node17&#45;&gt;Node18 -->
<g id="edge19" class="edge">
<title>Node17&#45;&gt;Node18</title>
<path fill="none" stroke="midnightblue" d="M1519.42,-235.04C1389.25,-216.75 1354.83,-217.61 1229.5,-199 1226.78,-198.6 1223.99,-198.16 1221.17,-197.71"/>
<polygon fill="midnightblue" stroke="midnightblue" points="1518.98,-238.52 1529.38,-236.45 1519.96,-231.58 1518.98,-238.52"/>
</g>
<!-- Node24 -->
<g id="node24" class="node">
<title>Node24</title>
<g id="a_node24"><a xlink:href="_plane_sampler_8_h.html" target="_top" xlink:title=" ">
<polygon fill="white" stroke="black" points="1386.5,-179.5 1386.5,-198.5 1480.5,-198.5 1480.5,-179.5 1386.5,-179.5"/>
<text text-anchor="middle" x="1433.5" y="-186.5" font-family="Helvetica,sans-Serif" font-size="10.00">PlaneSampler.H</text>
</a>
</g>
</g>
<!-- Node17&#45;&gt;Node24 -->
<g id="edge25" class="edge">
<title>Node17&#45;&gt;Node24</title>
<path fill="none" stroke="midnightblue" d="M1543.34,-231.77C1516.67,-221.63 1479.43,-207.47 1455.9,-198.52"/>
<polygon fill="midnightblue" stroke="midnightblue" points="1542.41,-235.16 1553,-235.44 1544.9,-228.62 1542.41,-235.16"/>
</g>
<!-- Node26 -->
<g id="node26" class="node">
<title>Node26</title>
<g id="a_node26"><a xlink:href="_probe_sampler_8_h.html" target="_top" xlink:title=" ">
<polygon fill="white" stroke="black" points="1021,-179.5 1021,-198.5 1116,-198.5 1116,-179.5 1021,-179.5"/>
<text text-anchor="middle" x="1068.5" y="-186.5" font-family="Helvetica,sans-Serif" font-size="10.00">ProbeSampler.H</text>
</a>
</g>
</g>
<!-- Node17&#45;&gt;Node26 -->
<g id="edge27" class="edge">
<title>Node17&#45;&gt;Node26</title>
<path fill="none" stroke="midnightblue" d="M1519.25,-235.07C1342.87,-213.29 1296.16,-220.59 1124.5,-199 1121.76,-198.66 1118.96,-198.28 1116.13,-197.88"/>
<polygon fill="midnightblue" stroke="midnightblue" points="1519.03,-238.57 1529.39,-236.33 1519.9,-231.62 1519.03,-238.57"/>
</g>
<!-- Node28 -->
<g id="node28" class="node">
<title>Node28</title>
<g id="a_node28"><a xlink:href="_sampling_8_h.html" target="_top" xlink:title=" ">
<polygon fill="white" stroke="black" points="1499,-179.5 1499,-198.5 1572,-198.5 1572,-179.5 1499,-179.5"/>
<text text-anchor="middle" x="1535.5" y="-186.5" font-family="Helvetica,sans-Serif" font-size="10.00">Sampling.H</text>
</a>
</g>
</g>
<!-- Node17&#45;&gt;Node28 -->
<g id="edge29" class="edge">
<title>Node17&#45;&gt;Node28</title>
<path fill="none" stroke="midnightblue" d="M1562.8,-226.86C1555.87,-217.5 1547.59,-206.33 1541.98,-198.75"/>
<polygon fill="midnightblue" stroke="midnightblue" points="1560.13,-229.13 1568.89,-235.08 1565.75,-224.96 1560.13,-229.13"/>
</g>
<!-- Node30 -->
<g id="node30" class="node">
<title>Node30</title>
<g id="a_node30"><a xlink:href="_sampling_container_8cpp.html" target="_top" xlink:title=" ">
<polygon fill="white" stroke="black" points="1239,-179.5 1239,-198.5 1368,-198.5 1368,-179.5 1239,-179.5"/>
<text text-anchor="middle" x="1303.5" y="-186.5" font-family="Helvetica,sans-Serif" font-size="10.00">SamplingContainer.cpp</text>
</a>
</g>
</g>
<!-- Node17&#45;&gt;Node30 -->
<g id="edge31" class="edge">
<title>Node17&#45;&gt;Node30</title>
<path fill="none" stroke="midnightblue" d="M1522.48,-233.47C1471.07,-223.27 1394.06,-207.98 1346.4,-198.52"/>
<polygon fill="midnightblue" stroke="midnightblue" points="1521.91,-236.93 1532.4,-235.44 1523.27,-230.06 1521.91,-236.93"/>
</g>
<!-- Node31 -->
<g id="node31" class="node">
<title>Node31</title>
<g id="a_node31"><a xlink:href="_a_b_l_stats_8_h.html" target="_top" xlink:title=" ">
<polygon fill="white" stroke="black" points="1590,-179.5 1590,-198.5 1661,-198.5 1661,-179.5 1590,-179.5"/>
<text text-anchor="middle" x="1625.5" y="-186.5" font-family="Helvetica,sans-Serif" font-size="10.00">ABLStats.H</text>
</a>
</g>
</g>
<!-- Node17&#45;&gt;Node31 -->
<g id="edge32" class="edge">
<title>Node17&#45;&gt;Node31</title>
<path fill="none" stroke="midnightblue" d="M1590.58,-227.72C1599.39,-218.2 1610.17,-206.56 1617.4,-198.75"/>
<polygon fill="midnightblue" stroke="midnightblue" points="1587.98,-225.37 1583.76,-235.08 1593.12,-230.12 1587.98,-225.37"/>
</g>
<!-- Node19 -->
<g id="node19" class="node">
<title>Node19</title>
<g id="a_node19"><a xlink:href="_lidar_sampler_8_h.html" target="_top" xlink:title=" ">
<polygon fill="white" stroke="black" points="1139,-118 1139,-137 1230,-137 1230,-118 1139,-118"/>
<text text-anchor="middle" x="1184.5" y="-125" font-family="Helvetica,sans-Serif" font-size="10.00">LidarSampler.H</text>
</a>
</g>
</g>
<!-- Node18&#45;&gt;Node19 -->
<g id="edge20" class="edge">
<title>Node18&#45;&gt;Node19</title>
<path fill="none" stroke="midnightblue" d="M1179.7,-169.32C1180.97,-158.5 1182.51,-145.4 1183.5,-137.01"/>
<polygon fill="midnightblue" stroke="midnightblue" points="1176.2,-169.13 1178.5,-179.48 1183.15,-169.95 1176.2,-169.13"/>
</g>
<!-- Node23 -->
<g id="node23" class="node">
<title>Node23</title>
<g id="a_node23"><a xlink:href="_line_sampler_8cpp.html" target="_top" xlink:title=" ">
<polygon fill="white" stroke="black" points="1248,-118 1248,-137 1345,-137 1345,-118 1248,-118"/>
<text text-anchor="middle" x="1296.5" y="-125" font-family="Helvetica,sans-Serif" font-size="10.00">LineSampler.cpp</text>
</a>
</g>
</g>
<!-- Node18&#45;&gt;Node23 -->
<g id="edge24" class="edge">
<title>Node18&#45;&gt;Node23</title>
<path fill="none" stroke="midnightblue" d="M1203.77,-174.87C1226.83,-163.33 1259.7,-146.9 1279.48,-137.01"/>
<polygon fill="midnightblue" stroke="midnightblue" points="1201.93,-171.87 1194.55,-179.48 1205.06,-178.13 1201.93,-171.87"/>
</g>
<!-- Node20 -->
<g id="node20" class="node">
<title>Node20</title>
<g id="a_node20"><a xlink:href="_d_t_u_spinner_sampler_8_h.html" target="_top" xlink:title=" ">
<polygon fill="white" stroke="black" points="1056,-56.5 1056,-75.5 1181,-75.5 1181,-56.5 1056,-56.5"/>
<text text-anchor="middle" x="1118.5" y="-63.5" font-family="Helvetica,sans-Serif" font-size="10.00">DTUSpinnerSampler.H</text>
</a>
</g>
</g>
<!-- Node19&#45;&gt;Node20 -->
<g id="edge21" class="edge">
<title>Node19&#45;&gt;Node20</title>
<path fill="none" stroke="midnightblue" d="M1167.47,-111.15C1154.89,-99.81 1138.22,-84.78 1127.94,-75.51"/>
<polygon fill="midnightblue" stroke="midnightblue" points="1165.27,-113.88 1175.04,-117.98 1169.96,-108.68 1165.27,-113.88"/>
</g>
<!-- Node22 -->
<g id="node22" class="node">
<title>Node22</title>
<g id="a_node22"><a xlink:href="_lidar_sampler_8cpp.html" target="_top" xlink:title=" ">
<polygon fill="white" stroke="black" points="1199,-56.5 1199,-75.5 1300,-75.5 1300,-56.5 1199,-56.5"/>
<text text-anchor="middle" x="1249.5" y="-63.5" font-family="Helvetica,sans-Serif" font-size="10.00">LidarSampler.cpp</text>
</a>
</g>
</g>
<!-- Node19&#45;&gt;Node22 -->
<g id="edge23" class="edge">
<title>Node19&#45;&gt;Node22</title>
<path fill="none" stroke="midnightblue" d="M1201.27,-111.15C1213.66,-99.81 1230.08,-84.78 1240.2,-75.51"/>
<polygon fill="midnightblue" stroke="midnightblue" points="1198.83,-108.64 1193.81,-117.98 1203.55,-113.8 1198.83,-108.64"/>
</g>
<!-- Node21 -->
<g id="node21" class="node">
<title>Node21</title>
<g id="a_node21"><a xlink:href="_d_t_u_spinner_sampler_8cpp.html" target="_top" xlink:title=" ">
<polygon fill="white" stroke="black" points="1051.5,-0.5 1051.5,-19.5 1185.5,-19.5 1185.5,-0.5 1051.5,-0.5"/>
<text text-anchor="middle" x="1118.5" y="-7.5" font-family="Helvetica,sans-Serif" font-size="10.00">DTUSpinnerSampler.cpp</text>
</a>
</g>
</g>
<!-- Node20&#45;&gt;Node21 -->
<g id="edge22" class="edge">
<title>Node20&#45;&gt;Node21</title>
<path fill="none" stroke="midnightblue" d="M1118.5,-45.8C1118.5,-36.91 1118.5,-26.78 1118.5,-19.75"/>
<polygon fill="midnightblue" stroke="midnightblue" points="1115,-46.08 1118.5,-56.08 1122,-46.08 1115,-46.08"/>
</g>
<!-- Node25 -->
<g id="node25" class="node">
<title>Node25</title>
<g id="a_node25"><a xlink:href="_plane_sampler_8cpp.html" target="_top" xlink:title=" ">
<polygon fill="white" stroke="black" points="1381.5,-118 1381.5,-137 1485.5,-137 1485.5,-118 1381.5,-118"/>
<text text-anchor="middle" x="1433.5" y="-125" font-family="Helvetica,sans-Serif" font-size="10.00">PlaneSampler.cpp</text>
</a>
</g>
</g>
<!-- Node24&#45;&gt;Node25 -->
<g id="edge26" class="edge">
<title>Node24&#45;&gt;Node25</title>
<path fill="none" stroke="midnightblue" d="M1433.5,-169.32C1433.5,-158.5 1433.5,-145.4 1433.5,-137.01"/>
<polygon fill="midnightblue" stroke="midnightblue" points="1430,-169.48 1433.5,-179.48 1437,-169.48 1430,-169.48"/>
</g>
<!-- Node27 -->
<g id="node27" class="node">
<title>Node27</title>
<g id="a_node27"><a xlink:href="_probe_sampler_8cpp.html" target="_top" xlink:title=" ">
<polygon fill="white" stroke="black" points="1016.5,-118 1016.5,-137 1120.5,-137 1120.5,-118 1016.5,-118"/>
<text text-anchor="middle" x="1068.5" y="-125" font-family="Helvetica,sans-Serif" font-size="10.00">ProbeSampler.cpp</text>
</a>
</g>
</g>
<!-- Node26&#45;&gt;Node27 -->
<g id="edge28" class="edge">
<title>Node26&#45;&gt;Node27</title>
<path fill="none" stroke="midnightblue" d="M1068.5,-169.32C1068.5,-158.5 1068.5,-145.4 1068.5,-137.01"/>
<polygon fill="midnightblue" stroke="midnightblue" points="1065,-169.48 1068.5,-179.48 1072,-169.48 1065,-169.48"/>
</g>
<!-- Node28&#45;&gt;Node29 -->
<g id="edge30" class="edge">
<title>Node28&#45;&gt;Node29</title>
<path fill="none" stroke="midnightblue" d="M1544.7,-170.33C1550.44,-159.33 1557.56,-145.66 1562.07,-137.01"/>
<polygon fill="midnightblue" stroke="midnightblue" points="1541.46,-168.99 1539.94,-179.48 1547.67,-172.22 1541.46,-168.99"/>
</g>
<!-- Node31&#45;&gt;Node32 -->
<g id="edge33" class="edge">
<title>Node31&#45;&gt;Node32</title>
<path fill="none" stroke="midnightblue" d="M1645.77,-173.29C1661.5,-161.88 1682.75,-146.46 1695.77,-137.01"/>
<polygon fill="midnightblue" stroke="midnightblue" points="1643.29,-170.77 1637.25,-179.48 1647.4,-176.43 1643.29,-170.77"/>
</g>
</g>
</svg>
        <g id="navigator" transform="translate(0 0)" fill="#404254">
                <rect fill="#f2f5e9" fill-opacity="0.5" stroke="#606060" stroke-width=".5" x="0" y="0" width="60" height="60"/>
                <use id="zoomplus" xlink:href="#zoomPlus" x="17" y="9" onmousedown="handleZoom(evt,'in')"/>
                <use id="zoomminus" xlink:href="#zoomMin" x="42" y="9" onmousedown="handleZoom(evt,'out')"/>
                <use id="reset" xlink:href="#resetDef" x="30" y="36" onmousedown="handleReset()"/>
                <g id="arrowUp" xlink:href="#dirArrow" transform="translate(30 24)" onmousedown="handlePan(0,-1)">
                  <use xlink:href="#rim" fill="#404040">
                        <set attributeName="fill" to="#808080" begin="arrowUp.mouseover" end="arrowUp.mouseout"/>
                  </use>
                  <path fill="none" stroke="white" stroke-width="1.5" d="M0,-3.0v7 M-2.5,-0.5L0,-3.0L2.5,-0.5"/>
                </g>
                <g id="arrowRight" xlink:href="#dirArrow" transform="rotate(90) translate(36 -43)" onmousedown="handlePan(1,0)">
                  <use xlink:href="#rim" fill="#404040">
                        <set attributeName="fill" to="#808080" begin="arrowRight.mouseover" end="arrowRight.mouseout"/>
                  </use>
                  <path fill="none" stroke="white" stroke-width="1.5" d="M0,-3.0v7 M-2.5,-0.5L0,-3.0L2.5,-0.5"/>
                </g>
                <g id="arrowDown" xlink:href="#dirArrow" transform="rotate(180) translate(-30 -48)" onmousedown="handlePan(0,1)">
                  <use xlink:href="#rim" fill="#404040">
                        <set attributeName="fill" to="#808080" begin="arrowDown.mouseover" end="arrowDown.mouseout"/>
                  </use>
                  <path fill="none" stroke="white" stroke-width="1.5" d="M0,-3.0v7 M-2.5,-0.5L0,-3.0L2.5,-0.5"/>
                </g>
                <g id="arrowLeft" xlink:href="#dirArrow" transform="rotate(270) translate(-36 17)" onmousedown="handlePan(-1,0)">
                  <use xlink:href="#rim" fill="#404040">
                        <set attributeName="fill" to="#808080" begin="arrowLeft.mouseover" end="arrowLeft.mouseout"/>
                  </use>
                  <path fill="none" stroke="white" stroke-width="1.5" d="M0,-3.0v7 M-2.5,-0.5L0,-3.0L2.5,-0.5"/>
                </g>
        </g>
        <svg viewBox="0 0 15 15" width="100%" height="30px" preserveAspectRatio="xMaxYMin meet">
         <g id="arrow_out" transform="scale(0.3 0.3)">
          <a xlink:href="nc__interface_8_h__dep__incl_org.svg" target="_base">
           <rect id="button" ry="5" rx="5" y="6" x="6" height="38" width="38"
                fill="#f2f5e9" fill-opacity="0.5" stroke="#606060" stroke-width="1.0"/>
           <path id="arrow"
             d="M 11.500037,31.436501 C 11.940474,20.09759 22.043105,11.32322 32.158766,21.979434 L 37.068811,17.246167 C 37.068811,17.246167 37.088388,32 37.088388,32 L 22.160133,31.978069 C 22.160133,31.978069 26.997745,27.140456 26.997745,27.140456 C 18.528582,18.264221 13.291696,25.230495 11.500037,31.436501 z"
             style="fill:#404040;"/>
          </a>
         </g>
        </svg>
</svg>
