<?xml version="1.0" encoding="UTF-8" standalone="no"?>
<!DOCTYPE svg PUBLIC "-//W3C//DTD SVG 1.1//EN"
 "http://www.w3.org/Graphics/SVG/1.1/DTD/svg11.dtd">
<!-- Generated by graphviz version 2.43.0 (0)
 -->
<!-- Title: amr_wind::pde::AdvectionOp&lt; ICNS, fvm::Godunov &gt; Pages: 1 -->
<!--zoomable 322 -->
<svg id="main" version="1.1" xmlns="http://www.w3.org/2000/svg" xmlns:xlink="http://www.w3.org/1999/xlink" xml:space="preserve" onload="init(evt)">
<style type="text/css"><![CDATA[
.edge:hover path { stroke: red; }
.edge:hover polygon { stroke: red; fill: red; }
]]></style>
<script type="text/javascript"><![CDATA[
var edges = document.getElementsByTagName('g');
if (edges && edges.length) {
  for (var i=0;i<edges.length;i++) {
    if (edges[i].id.substr(0,4)=='edge') {
      edges[i].setAttribute('class','edge');
    }
  }
}
]]></script>
        <defs>
                <circle id="rim" cx="0" cy="0" r="7"/>
                <circle id="rim2" cx="0" cy="0" r="3.5"/>
                <g id="zoomPlus">
                        <use xlink:href="#rim" fill="#404040">
                                <set attributeName="fill" to="#808080" begin="zoomplus.mouseover" end="zoomplus.mouseout"/>
                        </use>
                        <path d="M-4,0h8M0,-4v8" fill="none" stroke="white" stroke-width="1.5" pointer-events="none"/>
                </g>
                <g id="zoomMin">
                        <use xlink:href="#rim" fill="#404040">
                                <set attributeName="fill" to="#808080" begin="zoomminus.mouseover" end="zoomminus.mouseout"/>
                        </use>
                        <path d="M-4,0h8" fill="none" stroke="white" stroke-width="1.5" pointer-events="none"/>
                </g>
                <g id="dirArrow">
                        <path fill="none" stroke="white" stroke-width="1.5" d="M0,-3.0v7 M-2.5,-0.5L0,-3.0L2.5,-0.5"/>
                </g>
               <g id="resetDef">
                       <use xlink:href="#rim2" fill="#404040">
                               <set attributeName="fill" to="#808080" begin="reset.mouseover" end="reset.mouseout"/>
                       </use>
               </g>
        </defs>

<script type="text/javascript">
var viewWidth = 1849;
var viewHeight = 322;
var sectionId = 'dynsection-0';
</script>
<script xlink:href="svgpan.js"/>
<svg id="graph" class="graph">
<g id="viewport">
<title>amr_wind::pde::AdvectionOp&lt; ICNS, fvm::Godunov &gt;</title>
<polygon fill="white" stroke="transparent" points="-4,4 -4,-318.2 1845,-318.2 1845,4 -4,4"/>
<!-- Node1 -->
<g id="node1" class="node">
<title>Node1</title>
<g id="a_node1"><a xlink:title="Godunov scheme for ICNS.">
<polygon fill="#bfbfbf" stroke="black" points="1690,-187.5 1690,-217.5 1841,-217.5 1841,-187.5 1690,-187.5"/>
<text text-anchor="start" x="1698" y="-205.5" font-family="Helvetica,sans-Serif" font-size="10.00">amr_wind::pde::Advection</text>
<text text-anchor="middle" x="1765.5" y="-194.5" font-family="Helvetica,sans-Serif" font-size="10.00">Op&lt; ICNS, fvm::Godunov &gt;</text>
</a>
</g>
</g>
<!-- Node2 -->
<g id="node2" class="node">
<title>Node2</title>
<g id="a_node2"><a xlink:href="classamr__wind_1_1pde_1_1_mac_proj_op.html" target="_top" xlink:title=" ">
<polygon fill="white" stroke="black" points="1246,-55 1246,-74 1393,-74 1393,-55 1246,-55"/>
<text text-anchor="middle" x="1319.5" y="-62" font-family="Helvetica,sans-Serif" font-size="10.00">amr_wind::pde::MacProjOp</text>
</a>
</g>
</g>
<!-- Node2&#45;&gt;Node1 -->
<g id="edge1" class="edge">
<title>Node2&#45;&gt;Node1</title>
<path fill="none" stroke="#9a32cd" stroke-dasharray="5,2" d="M1403.35,-71.97C1465.55,-79.44 1552.03,-93.79 1624,-120.5 1669.54,-137.4 1717.31,-168.61 1743.76,-187.27"/>
<polygon fill="#9a32cd" stroke="#9a32cd" points="1403.53,-68.47 1393.2,-70.79 1402.72,-75.43 1403.53,-68.47"/>
<text text-anchor="middle" x="1552.5" y="-123.5" font-family="Helvetica,sans-Serif" font-size="10.00"> m_macproj_op</text>
</g>
<!-- Node3 -->
<g id="node3" class="node">
<title>Node3</title>
<g id="a_node3"><a xlink:href="structamr__wind_1_1_m_l_m_g_options.html" target="_top" xlink:title="Interface to control the behavior of AMReX LinearSolvers.">
<polygon fill="white" stroke="black" points="860,-49 860,-68 999,-68 999,-49 860,-49"/>
<text text-anchor="middle" x="929.5" y="-56" font-family="Helvetica,sans-Serif" font-size="10.00">amr_wind::MLMGOptions</text>
</a>
</g>
</g>
<!-- Node3&#45;&gt;Node2 -->
<g id="edge2" class="edge">
<title>Node3&#45;&gt;Node2</title>
<path fill="none" stroke="#9a32cd" stroke-dasharray="5,2" d="M1009.84,-59.73C1079.1,-60.8 1178.77,-62.34 1245.94,-63.38"/>
<polygon fill="#9a32cd" stroke="#9a32cd" points="1009.47,-56.22 999.42,-59.57 1009.36,-63.22 1009.47,-56.22"/>
<text text-anchor="middle" x="1077" y="-65.5" font-family="Helvetica,sans-Serif" font-size="10.00"> m_options</text>
</g>
<!-- Node4 -->
<g id="node4" class="node">
<title>Node4</title>
<g id="a_node4"><a xlink:title="STL class.">
<polygon fill="white" stroke="#bfbfbf" points="437,-169 437,-188 502,-188 502,-169 437,-169"/>
<text text-anchor="middle" x="469.5" y="-176" font-family="Helvetica,sans-Serif" font-size="10.00">std::string</text>
</a>
</g>
</g>
<!-- Node4&#45;&gt;Node1 -->
<g id="edge25" class="edge">
<title>Node4&#45;&gt;Node1</title>
<path fill="none" stroke="#9a32cd" stroke-dasharray="5,2" d="M498.17,-192.66C518.17,-202.29 546.12,-214.5 572,-221.5 644.79,-241.19 938.06,-281.5 1076,-281.5 1076,-281.5 1076,-281.5 1553.5,-281.5 1625.67,-281.5 1703.41,-240.47 1741.2,-217.55"/>
<polygon fill="#9a32cd" stroke="#9a32cd" points="499.55,-189.44 489.03,-188.18 496.47,-195.72 499.55,-189.44"/>
<text text-anchor="middle" x="1191.5" y="-284.5" font-family="Helvetica,sans-Serif" font-size="10.00"> godunov_type</text>
</g>
<!-- Node4&#45;&gt;Node3 -->
<g id="edge3" class="edge">
<title>Node4&#45;&gt;Node3</title>
<path fill="none" stroke="#9a32cd" stroke-dasharray="5,2" d="M507.82,-164.85C524.02,-157.25 541.99,-146.29 554,-131.5 570.75,-110.88 550.93,-90.68 572,-74.5 615.43,-41.15 768.83,-46.23 859.64,-52.56"/>
<polygon fill="#9a32cd" stroke="#9a32cd" points="506.28,-161.71 498.54,-168.94 509.1,-168.11 506.28,-161.71"/>
<text text-anchor="middle" x="637" y="-99.5" font-family="Helvetica,sans-Serif" font-size="10.00"> hypre_namespace</text>
<text text-anchor="middle" x="637" y="-88.5" font-family="Helvetica,sans-Serif" font-size="10.00">bottom_solver_type</text>
<text text-anchor="middle" x="637" y="-77.5" font-family="Helvetica,sans-Serif" font-size="10.00">hypre_interface</text>
</g>
<!-- Node7 -->
<g id="node7" class="node">
<title>Node7</title>
<g id="a_node7"><a xlink:title=" ">
<polygon fill="white" stroke="#bfbfbf" points="720,-102.5 720,-132.5 842,-132.5 842,-102.5 720,-102.5"/>
<text text-anchor="start" x="728" y="-120.5" font-family="Helvetica,sans-Serif" font-size="10.00">std::unordered_map</text>
<text text-anchor="middle" x="781" y="-109.5" font-family="Helvetica,sans-Serif" font-size="10.00">&lt; std::string, size_t &gt;</text>
</a>
</g>
</g>
<!-- Node4&#45;&gt;Node7 -->
<g id="edge7" class="edge">
<title>Node4&#45;&gt;Node7</title>
<path fill="none" stroke="#9a32cd" stroke-dasharray="5,2" d="M512.07,-166.46C530.35,-161.42 552.14,-155.75 572,-151.5 599.46,-145.62 668.77,-134.57 719.87,-126.66"/>
<polygon fill="#9a32cd" stroke="#9a32cd" points="511,-163.12 502.31,-169.18 512.88,-169.86 511,-163.12"/>
<text text-anchor="middle" x="637" y="-154.5" font-family="Helvetica,sans-Serif" font-size="10.00"> keys</text>
</g>
<!-- Node13 -->
<g id="node13" class="node">
<title>Node13</title>
<g id="a_node13"><a xlink:href="classamr__wind_1_1_field.html" target="_top" xlink:title="Computational field.">
<polygon fill="white" stroke="black" points="1272.5,-167 1272.5,-186 1366.5,-186 1366.5,-167 1272.5,-167"/>
<text text-anchor="middle" x="1319.5" y="-174" font-family="Helvetica,sans-Serif" font-size="10.00">amr_wind::Field</text>
</a>
</g>
</g>
<!-- Node4&#45;&gt;Node13 -->
<g id="edge23" class="edge">
<title>Node4&#45;&gt;Node13</title>
<path fill="none" stroke="#9a32cd" stroke-dasharray="5,2" d="M512.3,-178.4C655.11,-178.06 1123.11,-176.96 1272.34,-176.61"/>
<polygon fill="#9a32cd" stroke="#9a32cd" points="512.19,-174.9 502.19,-178.43 512.2,-181.9 512.19,-174.9"/>
<text text-anchor="middle" x="929.5" y="-181.5" font-family="Helvetica,sans-Serif" font-size="10.00"> m_name</text>
</g>
<!-- Node15 -->
<g id="node15" class="node">
<title>Node15</title>
<g id="a_node15"><a xlink:href="structamr__wind_1_1_field_info.html" target="_top" xlink:title="Information common to a field that has multiple states.">
<polygon fill="white" stroke="black" points="724.5,-212 724.5,-231 837.5,-231 837.5,-212 724.5,-212"/>
<text text-anchor="middle" x="781" y="-219" font-family="Helvetica,sans-Serif" font-size="10.00">amr_wind::FieldInfo</text>
</a>
</g>
</g>
<!-- Node4&#45;&gt;Node15 -->
<g id="edge20" class="edge">
<title>Node4&#45;&gt;Node15</title>
<path fill="none" stroke="#9a32cd" stroke-dasharray="5,2" d="M512.31,-184.24C558.68,-190.62 635.69,-201.24 702,-210.5 709.18,-211.5 716.73,-212.56 724.19,-213.61"/>
<polygon fill="#9a32cd" stroke="#9a32cd" points="512.72,-180.77 502.33,-182.87 511.76,-187.7 512.72,-180.77"/>
<text text-anchor="middle" x="637" y="-213.5" font-family="Helvetica,sans-Serif" font-size="10.00"> m_basename</text>
</g>
<!-- Node5 -->
<g id="node5" class="node">
<title>Node5</title>
<g id="a_node5"><a xlink:title="STL class.">
<polygon fill="white" stroke="#bfbfbf" points="97,-174.5 97,-204.5 201,-204.5 201,-174.5 97,-174.5"/>
<text text-anchor="start" x="105" y="-192.5" font-family="Helvetica,sans-Serif" font-size="10.00">std::basic_string&lt;</text>
<text text-anchor="middle" x="149" y="-181.5" font-family="Helvetica,sans-Serif" font-size="10.00"> char &gt;</text>
</a>
</g>
</g>
<!-- Node5&#45;&gt;Node4 -->
<g id="edge4" class="edge">
<title>Node5&#45;&gt;Node4</title>
<path fill="none" stroke="midnightblue" d="M211.24,-187.39C278.64,-185.06 384.37,-181.41 436.81,-179.59"/>
<polygon fill="midnightblue" stroke="midnightblue" points="211.05,-183.89 201.17,-187.73 211.29,-190.89 211.05,-183.89"/>
</g>
<!-- Node6 -->
<g id="node6" class="node">
<title>Node6</title>
<g id="a_node6"><a xlink:href="classamr__wind_1_1_field_repo.html" target="_top" xlink:title="Field Repository.">
<polygon fill="white" stroke="black" points="1017.5,-108 1017.5,-127 1136.5,-127 1136.5,-108 1017.5,-108"/>
<text text-anchor="middle" x="1077" y="-115" font-family="Helvetica,sans-Serif" font-size="10.00">amr_wind::FieldRepo</text>
</a>
</g>
</g>
<!-- Node6&#45;&gt;Node2 -->
<g id="edge5" class="edge">
<title>Node6&#45;&gt;Node2</title>
<path fill="none" stroke="#9a32cd" stroke-dasharray="5,2" d="M1113.57,-104.76C1126.5,-100.45 1141.3,-95.88 1155,-92.5 1185.76,-84.92 1220.27,-78.68 1249.63,-74.03"/>
<polygon fill="#9a32cd" stroke="#9a32cd" points="1112.44,-101.45 1104.1,-107.99 1114.69,-108.08 1112.44,-101.45"/>
<text text-anchor="middle" x="1191.5" y="-95.5" font-family="Helvetica,sans-Serif" font-size="10.00"> m_repo</text>
</g>
<!-- Node6&#45;&gt;Node13 -->
<g id="edge24" class="edge">
<title>Node6&#45;&gt;Node13</title>
<path fill="none" stroke="#9a32cd" stroke-dasharray="5,2" d="M1132.23,-129.15C1160.8,-135.45 1196.38,-143.55 1228,-151.5 1247.13,-156.31 1268.39,-162.16 1285.5,-166.99"/>
<polygon fill="#9a32cd" stroke="#9a32cd" points="1132.95,-125.73 1122.43,-127 1131.45,-132.56 1132.95,-125.73"/>
<text text-anchor="middle" x="1191.5" y="-154.5" font-family="Helvetica,sans-Serif" font-size="10.00"> m_repo</text>
</g>
<!-- Node19 -->
<g id="node19" class="node">
<title>Node19</title>
<g id="a_node19"><a xlink:href="structamr__wind_1_1pde_1_1_p_d_e_fields.html" target="_top" xlink:title="Collection of fields related to a PDE.">
<polygon fill="white" stroke="black" points="1481,-141 1481,-160 1624,-160 1624,-141 1481,-141"/>
<text text-anchor="middle" x="1552.5" y="-148" font-family="Helvetica,sans-Serif" font-size="10.00">amr_wind::pde::PDEFields</text>
</a>
</g>
</g>
<!-- Node6&#45;&gt;Node19 -->
<g id="edge28" class="edge">
<title>Node6&#45;&gt;Node19</title>
<path fill="none" stroke="#9a32cd" stroke-dasharray="5,2" d="M1146.54,-122.28C1235.67,-128.49 1390.58,-139.29 1480.77,-145.57"/>
<polygon fill="#9a32cd" stroke="#9a32cd" points="1146.75,-118.78 1136.54,-121.58 1146.27,-125.77 1146.75,-118.78"/>
<text text-anchor="middle" x="1319.5" y="-142.5" font-family="Helvetica,sans-Serif" font-size="10.00"> repo</text>
</g>
<!-- Node7&#45;&gt;Node6 -->
<g id="edge6" class="edge">
<title>Node7&#45;&gt;Node6</title>
<path fill="none" stroke="#9a32cd" stroke-dasharray="5,2" d="M852.37,-117.5C902.78,-117.5 969.87,-117.5 1017.38,-117.5"/>
<polygon fill="#9a32cd" stroke="#9a32cd" points="852.2,-114 842.2,-117.5 852.2,-121 852.2,-114"/>
<text text-anchor="middle" x="929.5" y="-131.5" font-family="Helvetica,sans-Serif" font-size="10.00"> m_fid_map</text>
<text text-anchor="middle" x="929.5" y="-120.5" font-family="Helvetica,sans-Serif" font-size="10.00">m_int_fid_map</text>
</g>
<!-- Node8 -->
<g id="node8" class="node">
<title>Node8</title>
<g id="a_node8"><a xlink:title="STL class.">
<polygon fill="white" stroke="#bfbfbf" points="412.5,-92.5 412.5,-122.5 526.5,-122.5 526.5,-92.5 412.5,-92.5"/>
<text text-anchor="start" x="420.5" y="-110.5" font-family="Helvetica,sans-Serif" font-size="10.00">std::unordered_map</text>
<text text-anchor="middle" x="469.5" y="-99.5" font-family="Helvetica,sans-Serif" font-size="10.00">&lt; K, T &gt;</text>
</a>
</g>
</g>
<!-- Node8&#45;&gt;Node7 -->
<g id="edge8" class="edge">
<title>Node8&#45;&gt;Node7</title>
<path fill="none" stroke="orange" stroke-dasharray="5,2" d="M536.77,-109.64C591.08,-111.4 667.3,-113.86 719.88,-115.56"/>
<polygon fill="orange" stroke="orange" points="536.66,-106.14 526.55,-109.31 536.43,-113.13 536.66,-106.14"/>
<text text-anchor="middle" x="637" y="-118.5" font-family="Helvetica,sans-Serif" font-size="10.00"> &lt; std::string, size_t &gt;</text>
</g>
<!-- Node9 -->
<g id="node9" class="node">
<title>Node9</title>
<g id="a_node9"><a xlink:title=" ">
<polygon fill="white" stroke="#bfbfbf" points="134.5,-98 134.5,-117 163.5,-117 163.5,-98 134.5,-98"/>
<text text-anchor="middle" x="149" y="-105" font-family="Helvetica,sans-Serif" font-size="10.00">K</text>
</a>
</g>
</g>
<!-- Node9&#45;&gt;Node8 -->
<g id="edge9" class="edge">
<title>Node9&#45;&gt;Node8</title>
<path fill="none" stroke="#9a32cd" stroke-dasharray="5,2" d="M173.87,-107.5C224.1,-107.5 341.85,-107.5 412.34,-107.5"/>
<polygon fill="#9a32cd" stroke="#9a32cd" points="173.69,-104 163.69,-107.5 173.69,-111 173.69,-104"/>
<text text-anchor="middle" x="300.5" y="-110.5" font-family="Helvetica,sans-Serif" font-size="10.00"> keys</text>
</g>
<!-- Node10 -->
<g id="node10" class="node">
<title>Node10</title>
<g id="a_node10"><a xlink:title=" ">
<polygon fill="white" stroke="#bfbfbf" points="0,-136 0,-155 29,-155 29,-136 0,-136"/>
<text text-anchor="middle" x="14.5" y="-143" font-family="Helvetica,sans-Serif" font-size="10.00">T</text>
</a>
</g>
</g>
<!-- Node10&#45;&gt;Node8 -->
<g id="edge10" class="edge">
<title>Node10&#45;&gt;Node8</title>
<path fill="none" stroke="#9a32cd" stroke-dasharray="5,2" d="M26.75,-127.61C38.31,-111.08 57.99,-87.6 82,-77.5 140.08,-53.06 319.98,-80.42 412.41,-96.88"/>
<polygon fill="#9a32cd" stroke="#9a32cd" points="23.83,-125.69 21.19,-135.95 29.65,-129.58 23.83,-125.69"/>
<text text-anchor="middle" x="149" y="-80.5" font-family="Helvetica,sans-Serif" font-size="10.00"> elements</text>
</g>
<!-- Node12 -->
<g id="node12" class="node">
<title>Node12</title>
<g id="a_node12"><a xlink:title="STL class.">
<polygon fill="white" stroke="#bfbfbf" points="90,-136 90,-155 208,-155 208,-136 90,-136"/>
<text text-anchor="middle" x="149" y="-143" font-family="Helvetica,sans-Serif" font-size="10.00">std::unique_ptr&lt; T &gt;</text>
</a>
</g>
</g>
<!-- Node10&#45;&gt;Node12 -->
<g id="edge13" class="edge">
<title>Node10&#45;&gt;Node12</title>
<path fill="none" stroke="#9a32cd" stroke-dasharray="5,2" d="M39.44,-145.5C53.53,-145.5 72.01,-145.5 89.72,-145.5"/>
<polygon fill="#9a32cd" stroke="#9a32cd" points="39.18,-142 29.18,-145.5 39.18,-149 39.18,-142"/>
<text text-anchor="middle" x="55.5" y="-148.5" font-family="Helvetica,sans-Serif" font-size="10.00"> ptr</text>
</g>
<!-- Node18 -->
<g id="node18" class="node">
<title>Node18</title>
<g id="a_node18"><a xlink:title="STL class.">
<polygon fill="white" stroke="#bfbfbf" points="241.5,-293 241.5,-312 359.5,-312 359.5,-293 241.5,-293"/>
<text text-anchor="middle" x="300.5" y="-300" font-family="Helvetica,sans-Serif" font-size="10.00">std::shared_ptr&lt; T &gt;</text>
</a>
</g>
</g>
<!-- Node10&#45;&gt;Node18 -->
<g id="edge22" class="edge">
<title>Node10&#45;&gt;Node18</title>
<path fill="none" stroke="#9a32cd" stroke-dasharray="5,2" d="M18.73,-165.33C24.93,-196.33 41.66,-255.64 82,-283.5 128.78,-315.81 195.41,-316.78 242.57,-312.04"/>
<polygon fill="#9a32cd" stroke="#9a32cd" points="22.14,-164.5 16.9,-155.29 15.25,-165.76 22.14,-164.5"/>
<text text-anchor="middle" x="55.5" y="-268.5" font-family="Helvetica,sans-Serif" font-size="10.00"> ptr</text>
</g>
<!-- Node11 -->
<g id="node11" class="node">
<title>Node11</title>
<g id="a_node11"><a xlink:title=" ">
<polygon fill="white" stroke="#bfbfbf" points="572,-0.5 572,-30.5 702,-30.5 702,-0.5 572,-0.5"/>
<text text-anchor="start" x="580" y="-18.5" font-family="Helvetica,sans-Serif" font-size="10.00">std::unique_ptr&lt; Hydro</text>
<text text-anchor="middle" x="637" y="-7.5" font-family="Helvetica,sans-Serif" font-size="10.00">::MacProjector &gt;</text>
</a>
</g>
</g>
<!-- Node11&#45;&gt;Node2 -->
<g id="edge11" class="edge">
<title>Node11&#45;&gt;Node2</title>
<path fill="none" stroke="#9a32cd" stroke-dasharray="5,2" d="M712.34,-16.52C785.39,-17.92 899.99,-21.15 999,-28.5 1084.87,-34.87 1183.25,-46.64 1247.9,-54.98"/>
<polygon fill="#9a32cd" stroke="#9a32cd" points="712.38,-13.02 702.31,-16.34 712.25,-20.02 712.38,-13.02"/>
<text text-anchor="middle" x="929.5" y="-31.5" font-family="Helvetica,sans-Serif" font-size="10.00"> m_mac_proj</text>
</g>
<!-- Node12&#45;&gt;Node11 -->
<g id="edge12" class="edge">
<title>Node12&#45;&gt;Node11</title>
<path fill="none" stroke="orange" stroke-dasharray="5,2" d="M208.78,-131.48C211.32,-129.99 213.74,-128.33 216,-126.5 229.27,-115.72 220.25,-102.66 234,-92.5 334.43,-18.26 486.43,-9.66 571.86,-11.57"/>
<polygon fill="orange" stroke="orange" points="207.15,-128.38 199.77,-135.98 210.28,-134.65 207.15,-128.38"/>
<text text-anchor="middle" x="300.5" y="-95.5" font-family="Helvetica,sans-Serif" font-size="10.00"> &lt; Hydro::MacProjector &gt;</text>
</g>
<!-- Node16 -->
<g id="node16" class="node">
<title>Node16</title>
<g id="a_node16"><a xlink:title=" ">
<polygon fill="white" stroke="#bfbfbf" points="385,-243.5 385,-273.5 554,-273.5 554,-243.5 385,-243.5"/>
<text text-anchor="start" x="393" y="-261.5" font-family="Helvetica,sans-Serif" font-size="10.00">std::unique_ptr&lt; amr</text>
<text text-anchor="middle" x="469.5" y="-250.5" font-family="Helvetica,sans-Serif" font-size="10.00">_wind::FieldFillPatchOpsBase &gt;</text>
</a>
</g>
</g>
<!-- Node12&#45;&gt;Node16 -->
<g id="edge19" class="edge">
<title>Node12&#45;&gt;Node16</title>
<path fill="none" stroke="orange" stroke-dasharray="5,2" d="M192.69,-158.04C200.47,-160.43 208.5,-162.98 216,-165.5 292.4,-191.12 380.49,-224.44 429.82,-243.45"/>
<polygon fill="orange" stroke="orange" points="193.61,-154.66 183.02,-155.09 191.57,-161.35 193.61,-154.66"/>
<text text-anchor="start" x="234" y="-232.5" font-family="Helvetica,sans-Serif" font-size="10.00"> &lt; amr_wind::FieldFillPatch</text>
<text text-anchor="middle" x="300.5" y="-221.5" font-family="Helvetica,sans-Serif" font-size="10.00">OpsBase &gt;</text>
</g>
<!-- Node13&#45;&gt;Node1 -->
<g id="edge14" class="edge">
<title>Node13&#45;&gt;Node1</title>
<path fill="none" stroke="#9a32cd" stroke-dasharray="5,2" d="M1352.17,-189.77C1369.26,-196.22 1390.92,-203.26 1411,-206.5 1506.28,-221.88 1617.89,-216.86 1689.81,-210.69"/>
<polygon fill="#9a32cd" stroke="#9a32cd" points="1353.27,-186.44 1342.68,-186.08 1350.73,-192.96 1353.27,-186.44"/>
<text text-anchor="middle" x="1552.5" y="-241.5" font-family="Helvetica,sans-Serif" font-size="10.00"> u_mac</text>
<text text-anchor="middle" x="1552.5" y="-230.5" font-family="Helvetica,sans-Serif" font-size="10.00">v_mac</text>
<text text-anchor="middle" x="1552.5" y="-219.5" font-family="Helvetica,sans-Serif" font-size="10.00">w_mac</text>
</g>
<!-- Node13&#45;&gt;Node19 -->
<g id="edge27" class="edge">
<title>Node13&#45;&gt;Node19</title>
<path fill="none" stroke="#9a32cd" stroke-dasharray="5,2" d="M1357.48,-163.92C1373.7,-159.02 1393.08,-153.99 1411,-151.5 1433.59,-148.36 1458.42,-147.37 1480.84,-147.4"/>
<polygon fill="#9a32cd" stroke="#9a32cd" points="1356.34,-160.61 1347.83,-166.93 1358.42,-167.29 1356.34,-160.61"/>
<text text-anchor="middle" x="1437" y="-198.5" font-family="Helvetica,sans-Serif" font-size="10.00"> src_term</text>
<text text-anchor="middle" x="1437" y="-187.5" font-family="Helvetica,sans-Serif" font-size="10.00">field</text>
<text text-anchor="middle" x="1437" y="-176.5" font-family="Helvetica,sans-Serif" font-size="10.00">diff_term</text>
<text text-anchor="middle" x="1437" y="-165.5" font-family="Helvetica,sans-Serif" font-size="10.00">mueff</text>
<text text-anchor="middle" x="1437" y="-154.5" font-family="Helvetica,sans-Serif" font-size="10.00">conv_term</text>
</g>
<!-- Node14 -->
<g id="node14" class="node">
<title>Node14</title>
<g id="a_node14"><a xlink:title=" ">
<polygon fill="white" stroke="#bfbfbf" points="1017,-206.5 1017,-236.5 1137,-236.5 1137,-206.5 1017,-206.5"/>
<text text-anchor="start" x="1025" y="-224.5" font-family="Helvetica,sans-Serif" font-size="10.00">std::shared_ptr&lt; amr</text>
<text text-anchor="middle" x="1077" y="-213.5" font-family="Helvetica,sans-Serif" font-size="10.00">_wind::FieldInfo &gt;</text>
</a>
</g>
</g>
<!-- Node14&#45;&gt;Node13 -->
<g id="edge15" class="edge">
<title>Node14&#45;&gt;Node13</title>
<path fill="none" stroke="#9a32cd" stroke-dasharray="5,2" d="M1147.15,-208.56C1187.37,-201.04 1236.96,-191.76 1272.43,-185.12"/>
<polygon fill="#9a32cd" stroke="#9a32cd" points="1146.33,-205.15 1137.14,-210.43 1147.61,-212.04 1146.33,-205.15"/>
<text text-anchor="middle" x="1191.5" y="-209.5" font-family="Helvetica,sans-Serif" font-size="10.00"> m_info</text>
</g>
<!-- Node15&#45;&gt;Node14 -->
<g id="edge16" class="edge">
<title>Node15&#45;&gt;Node14</title>
<path fill="none" stroke="#9a32cd" stroke-dasharray="5,2" d="M847.84,-221.5C898.49,-221.5 967.88,-221.5 1016.8,-221.5"/>
<polygon fill="#9a32cd" stroke="#9a32cd" points="847.64,-218 837.64,-221.5 847.64,-225 847.64,-218"/>
<text text-anchor="middle" x="929.5" y="-224.5" font-family="Helvetica,sans-Serif" font-size="10.00"> ptr</text>
</g>
<!-- Node16&#45;&gt;Node15 -->
<g id="edge17" class="edge">
<title>Node16&#45;&gt;Node15</title>
<path fill="none" stroke="#9a32cd" stroke-dasharray="5,2" d="M564.2,-247.3C616.36,-241.06 679.56,-233.51 724.04,-228.19"/>
<polygon fill="#9a32cd" stroke="#9a32cd" points="563.77,-243.82 554.26,-248.49 564.6,-250.78 563.77,-243.82"/>
<text text-anchor="middle" x="637" y="-247.5" font-family="Helvetica,sans-Serif" font-size="10.00"> m_fillpatch_op</text>
</g>
<!-- Node17 -->
<g id="node17" class="node">
<title>Node17</title>
<g id="a_node17"><a xlink:href="classamr__wind_1_1_field_fill_patch_ops_base.html" target="_top" xlink:title="Abstract interface for classes that handle fill patch and physical boundary condition operations for ...">
<polygon fill="white" stroke="black" points="82,-243.5 82,-273.5 216,-273.5 216,-243.5 82,-243.5"/>
<text text-anchor="start" x="90" y="-261.5" font-family="Helvetica,sans-Serif" font-size="10.00">amr_wind::FieldFillPatch</text>
<text text-anchor="middle" x="149" y="-250.5" font-family="Helvetica,sans-Serif" font-size="10.00">OpsBase</text>
</a>
</g>
</g>
<!-- Node17&#45;&gt;Node16 -->
<g id="edge18" class="edge">
<title>Node17&#45;&gt;Node16</title>
<path fill="none" stroke="#9a32cd" stroke-dasharray="5,2" d="M226.66,-258.5C274.42,-258.5 335.87,-258.5 384.88,-258.5"/>
<polygon fill="#9a32cd" stroke="#9a32cd" points="226.38,-255 216.38,-258.5 226.38,-262 226.38,-255"/>
<text text-anchor="middle" x="300.5" y="-261.5" font-family="Helvetica,sans-Serif" font-size="10.00"> ptr</text>
</g>
<!-- Node18&#45;&gt;Node14 -->
<g id="edge21" class="edge">
<title>Node18&#45;&gt;Node14</title>
<path fill="none" stroke="orange" stroke-dasharray="5,2" d="M369.92,-297.91C420.74,-294.37 491.74,-289.13 554,-283.5 752.07,-265.59 802.32,-265.99 999,-236.5 1004.79,-235.63 1010.81,-234.63 1016.82,-233.57"/>
<polygon fill="orange" stroke="orange" points="369.44,-294.44 359.71,-298.62 369.93,-301.42 369.44,-294.44"/>
<text text-anchor="middle" x="637" y="-284.5" font-family="Helvetica,sans-Serif" font-size="10.00"> &lt; amr_wind::FieldInfo &gt;</text>
</g>
<!-- Node19&#45;&gt;Node1 -->
<g id="edge26" class="edge">
<title>Node19&#45;&gt;Node1</title>
<path fill="none" stroke="#9a32cd" stroke-dasharray="5,2" d="M1602.05,-162.46C1632.14,-169.88 1671.06,-179.47 1703.26,-187.41"/>
<polygon fill="#9a32cd" stroke="#9a32cd" points="1602.75,-159.03 1592.2,-160.04 1601.07,-165.83 1602.75,-159.03"/>
<text text-anchor="middle" x="1657" y="-182.5" font-family="Helvetica,sans-Serif" font-size="10.00"> fields</text>
</g>
</g>
</svg>
        <g id="navigator" transform="translate(0 0)" fill="#404254">
                <rect fill="#f2f5e9" fill-opacity="0.5" stroke="#606060" stroke-width=".5" x="0" y="0" width="60" height="60"/>
                <use id="zoomplus" xlink:href="#zoomPlus" x="17" y="9" onmousedown="handleZoom(evt,'in')"/>
                <use id="zoomminus" xlink:href="#zoomMin" x="42" y="9" onmousedown="handleZoom(evt,'out')"/>
                <use id="reset" xlink:href="#resetDef" x="30" y="36" onmousedown="handleReset()"/>
                <g id="arrowUp" xlink:href="#dirArrow" transform="translate(30 24)" onmousedown="handlePan(0,-1)">
                  <use xlink:href="#rim" fill="#404040">
                        <set attributeName="fill" to="#808080" begin="arrowUp.mouseover" end="arrowUp.mouseout"/>
                  </use>
                  <path fill="none" stroke="white" stroke-width="1.5" d="M0,-3.0v7 M-2.5,-0.5L0,-3.0L2.5,-0.5"/>
                </g>
                <g id="arrowRight" xlink:href="#dirArrow" transform="rotate(90) translate(36 -43)" onmousedown="handlePan(1,0)">
                  <use xlink:href="#rim" fill="#404040">
                        <set attributeName="fill" to="#808080" begin="arrowRight.mouseover" end="arrowRight.mouseout"/>
                  </use>
                  <path fill="none" stroke="white" stroke-width="1.5" d="M0,-3.0v7 M-2.5,-0.5L0,-3.0L2.5,-0.5"/>
                </g>
                <g id="arrowDown" xlink:href="#dirArrow" transform="rotate(180) translate(-30 -48)" onmousedown="handlePan(0,1)">
                  <use xlink:href="#rim" fill="#404040">
                        <set attributeName="fill" to="#808080" begin="arrowDown.mouseover" end="arrowDown.mouseout"/>
                  </use>
                  <path fill="none" stroke="white" stroke-width="1.5" d="M0,-3.0v7 M-2.5,-0.5L0,-3.0L2.5,-0.5"/>
                </g>
                <g id="arrowLeft" xlink:href="#dirArrow" transform="rotate(270) translate(-36 17)" onmousedown="handlePan(-1,0)">
                  <use xlink:href="#rim" fill="#404040">
                        <set attributeName="fill" to="#808080" begin="arrowLeft.mouseover" end="arrowLeft.mouseout"/>
                  </use>
                  <path fill="none" stroke="white" stroke-width="1.5" d="M0,-3.0v7 M-2.5,-0.5L0,-3.0L2.5,-0.5"/>
                </g>
        </g>
        <svg viewBox="0 0 15 15" width="100%" height="30px" preserveAspectRatio="xMaxYMin meet">
         <g id="arrow_out" transform="scale(0.3 0.3)">
          <a xlink:href="structamr__wind_1_1pde_1_1_advection_op_3_01_i_c_n_s_00_01fvm_1_1_godunov_01_4__coll__graph_org.svg" target="_base">
           <rect id="button" ry="5" rx="5" y="6" x="6" height="38" width="38"
                fill="#f2f5e9" fill-opacity="0.5" stroke="#606060" stroke-width="1.0"/>
           <path id="arrow"
             d="M 11.500037,31.436501 C 11.940474,20.09759 22.043105,11.32322 32.158766,21.979434 L 37.068811,17.246167 C 37.068811,17.246167 37.088388,32 37.088388,32 L 22.160133,31.978069 C 22.160133,31.978069 26.997745,27.140456 26.997745,27.140456 C 18.528582,18.264221 13.291696,25.230495 11.500037,31.436501 z"
             style="fill:#404040;"/>
          </a>
         </g>
        </svg>
</svg>
