<?xml version="1.0" encoding="UTF-8" standalone="no"?>
<!DOCTYPE svg PUBLIC "-//W3C//DTD SVG 1.1//EN"
 "http://www.w3.org/Graphics/SVG/1.1/DTD/svg11.dtd">
<!-- Generated by graphviz version 2.43.0 (0)
 -->
<!-- Title: amr_wind::pde::AdvectionOp&lt; ICNS, fvm::MOL &gt; Pages: 1 -->
<svg width="1808pt" height="286pt"
 viewBox="0.00 0.00 1808.00 285.50" xmlns="http://www.w3.org/2000/svg" xmlns:xlink="http://www.w3.org/1999/xlink">
<g id="graph0" class="graph" transform="scale(1 1) rotate(0) translate(4 281.5)">
<title>amr_wind::pde::AdvectionOp&lt; ICNS, fvm::MOL &gt;</title>
<polygon fill="white" stroke="transparent" points="-4,4 -4,-281.5 1804,-281.5 1804,4 -4,4"/>
<!-- Node1 -->
<g id="node1" class="node">
<title>Node1</title>
<g id="a_node1"><a xlink:title="MOL scheme for ICNS.">
<polygon fill="#bfbfbf" stroke="black" points="1657,-117 1657,-147 1800,-147 1800,-117 1657,-117"/>
<text text-anchor="start" x="1665" y="-135" font-family="Helvetica,sans-Serif" font-size="10.00">amr_wind::pde::Advection</text>
<text text-anchor="middle" x="1728.5" y="-124" font-family="Helvetica,sans-Serif" font-size="10.00">Op&lt; ICNS, fvm::MOL &gt;</text>
</a>
</g>
</g>
<!-- Node2 -->
<g id="node2" class="node">
<title>Node2</title>
<g id="a_node2"><a xlink:href="classamr__wind_1_1pde_1_1_mac_proj_op.html" target="_top" xlink:title=" ">
<polygon fill="white" stroke="black" points="1213,-203.5 1213,-222.5 1360,-222.5 1360,-203.5 1213,-203.5"/>
<text text-anchor="middle" x="1286.5" y="-210.5" font-family="Helvetica,sans-Serif" font-size="10.00">amr_wind::pde::MacProjOp</text>
</a>
</g>
</g>
<!-- Node2&#45;&gt;Node1 -->
<g id="edge1" class="edge">
<title>Node2&#45;&gt;Node1</title>
<path fill="none" stroke="#9a32cd" stroke-dasharray="5,2" d="M1349.3,-201.62C1430.18,-186.73 1571.61,-160.7 1656.7,-145.03"/>
<polygon fill="#9a32cd" stroke="#9a32cd" points="1348.47,-198.22 1339.27,-203.47 1349.74,-205.1 1348.47,-198.22"/>
<text text-anchor="middle" x="1519.5" y="-186" font-family="Helvetica,sans-Serif" font-size="10.00"> m_macproj_op</text>
</g>
<!-- Node3 -->
<g id="node3" class="node">
<title>Node3</title>
<g id="a_node3"><a xlink:href="structamr__wind_1_1_m_l_m_g_options.html" target="_top" xlink:title="Interface to control the behavior of AMReX LinearSolvers.">
<polygon fill="white" stroke="black" points="860,-208.5 860,-227.5 999,-227.5 999,-208.5 860,-208.5"/>
<text text-anchor="middle" x="929.5" y="-215.5" font-family="Helvetica,sans-Serif" font-size="10.00">amr_wind::MLMGOptions</text>
</a>
</g>
</g>
<!-- Node3&#45;&gt;Node2 -->
<g id="edge2" class="edge">
<title>Node3&#45;&gt;Node2</title>
<path fill="none" stroke="#9a32cd" stroke-dasharray="5,2" d="M1009.69,-216.88C1070.48,-216.03 1153.76,-214.86 1212.86,-214.02"/>
<polygon fill="#9a32cd" stroke="#9a32cd" points="1009.32,-213.39 999.37,-217.03 1009.42,-220.39 1009.32,-213.39"/>
<text text-anchor="middle" x="1077" y="-219" font-family="Helvetica,sans-Serif" font-size="10.00"> m_options</text>
</g>
<!-- Node4 -->
<g id="node4" class="node">
<title>Node4</title>
<g id="a_node4"><a xlink:title="STL class.">
<polygon fill="white" stroke="#bfbfbf" points="437,-128.5 437,-147.5 502,-147.5 502,-128.5 437,-128.5"/>
<text text-anchor="middle" x="469.5" y="-135.5" font-family="Helvetica,sans-Serif" font-size="10.00">std::string</text>
</a>
</g>
</g>
<!-- Node4&#45;&gt;Node3 -->
<g id="edge3" class="edge">
<title>Node4&#45;&gt;Node3</title>
<path fill="none" stroke="#9a32cd" stroke-dasharray="5,2" d="M512.13,-137.5C530.49,-137.3 552.32,-137.1 572,-137 629.78,-136.72 644.66,-129.94 702,-137 765.66,-144.84 790.74,-133.45 842,-172 854.73,-181.58 847.13,-193.61 860,-203 862.85,-205.08 865.94,-206.88 869.17,-208.44"/>
<polygon fill="#9a32cd" stroke="#9a32cd" points="512.01,-134 502.05,-137.61 512.08,-141 512.01,-134"/>
<text text-anchor="middle" x="637" y="-162" font-family="Helvetica,sans-Serif" font-size="10.00"> hypre_namespace</text>
<text text-anchor="middle" x="637" y="-151" font-family="Helvetica,sans-Serif" font-size="10.00">bottom_solver_type</text>
<text text-anchor="middle" x="637" y="-140" font-family="Helvetica,sans-Serif" font-size="10.00">hypre_interface</text>
</g>
<!-- Node7 -->
<g id="node7" class="node">
<title>Node7</title>
<g id="a_node7"><a xlink:title=" ">
<polygon fill="white" stroke="#bfbfbf" points="720,-181 720,-211 842,-211 842,-181 720,-181"/>
<text text-anchor="start" x="728" y="-199" font-family="Helvetica,sans-Serif" font-size="10.00">std::unordered_map</text>
<text text-anchor="middle" x="781" y="-188" font-family="Helvetica,sans-Serif" font-size="10.00">&lt; std::string, size_t &gt;</text>
</a>
</g>
</g>
<!-- Node4&#45;&gt;Node7 -->
<g id="edge7" class="edge">
<title>Node4&#45;&gt;Node7</title>
<path fill="none" stroke="#9a32cd" stroke-dasharray="5,2" d="M511.94,-147.21C525.66,-150.96 540.78,-155.88 554,-162 562.72,-166.04 562.96,-170.73 572,-174 598.3,-183.5 668.23,-189.53 719.78,-192.83"/>
<polygon fill="#9a32cd" stroke="#9a32cd" points="512.81,-143.82 502.25,-144.68 511.05,-150.59 512.81,-143.82"/>
<text text-anchor="middle" x="637" y="-194" font-family="Helvetica,sans-Serif" font-size="10.00"> keys</text>
</g>
<!-- Node13 -->
<g id="node13" class="node">
<title>Node13</title>
<g id="a_node13"><a xlink:href="classamr__wind_1_1_field.html" target="_top" xlink:title="Computational field.">
<polygon fill="white" stroke="black" points="1239.5,-84.5 1239.5,-103.5 1333.5,-103.5 1333.5,-84.5 1239.5,-84.5"/>
<text text-anchor="middle" x="1286.5" y="-91.5" font-family="Helvetica,sans-Serif" font-size="10.00">amr_wind::Field</text>
</a>
</g>
</g>
<!-- Node4&#45;&gt;Node13 -->
<g id="edge23" class="edge">
<title>Node4&#45;&gt;Node13</title>
<path fill="none" stroke="#9a32cd" stroke-dasharray="5,2" d="M512.1,-133.94C530.45,-132.24 552.29,-130.36 572,-129 823.48,-111.69 1125.39,-99.8 1239.13,-95.64"/>
<polygon fill="#9a32cd" stroke="#9a32cd" points="511.65,-130.47 502.02,-134.88 512.3,-137.43 511.65,-130.47"/>
<text text-anchor="middle" x="929.5" y="-115" font-family="Helvetica,sans-Serif" font-size="10.00"> m_name</text>
</g>
<!-- Node15 -->
<g id="node15" class="node">
<title>Node15</title>
<g id="a_node15"><a xlink:href="structamr__wind_1_1_field_info.html" target="_top" xlink:title="Information common to a field that has multiple states.">
<polygon fill="white" stroke="black" points="724.5,-44.5 724.5,-63.5 837.5,-63.5 837.5,-44.5 724.5,-44.5"/>
<text text-anchor="middle" x="781" y="-51.5" font-family="Helvetica,sans-Serif" font-size="10.00">amr_wind::FieldInfo</text>
</a>
</g>
</g>
<!-- Node4&#45;&gt;Node15 -->
<g id="edge20" class="edge">
<title>Node4&#45;&gt;Node15</title>
<path fill="none" stroke="#9a32cd" stroke-dasharray="5,2" d="M491.35,-122.44C511.06,-108.6 542,-89.04 572,-79 599.33,-69.85 672.55,-62.45 724.36,-58.13"/>
<polygon fill="#9a32cd" stroke="#9a32cd" points="489.22,-119.67 483.13,-128.34 493.3,-125.35 489.22,-119.67"/>
<text text-anchor="middle" x="637" y="-82" font-family="Helvetica,sans-Serif" font-size="10.00"> m_basename</text>
</g>
<!-- Node5 -->
<g id="node5" class="node">
<title>Node5</title>
<g id="a_node5"><a xlink:title="STL class.">
<polygon fill="white" stroke="#bfbfbf" points="97,-127 97,-157 201,-157 201,-127 97,-127"/>
<text text-anchor="start" x="105" y="-145" font-family="Helvetica,sans-Serif" font-size="10.00">std::basic_string&lt;</text>
<text text-anchor="middle" x="149" y="-134" font-family="Helvetica,sans-Serif" font-size="10.00"> char &gt;</text>
</a>
</g>
</g>
<!-- Node5&#45;&gt;Node4 -->
<g id="edge4" class="edge">
<title>Node5&#45;&gt;Node4</title>
<path fill="none" stroke="midnightblue" d="M211.24,-141.23C278.64,-140.38 384.37,-139.06 436.81,-138.4"/>
<polygon fill="midnightblue" stroke="midnightblue" points="211.13,-137.73 201.17,-141.36 211.22,-144.73 211.13,-137.73"/>
</g>
<!-- Node6 -->
<g id="node6" class="node">
<title>Node6</title>
<g id="a_node6"><a xlink:href="classamr__wind_1_1_field_repo.html" target="_top" xlink:title="Field Repository.">
<polygon fill="white" stroke="black" points="1017.5,-161.5 1017.5,-180.5 1136.5,-180.5 1136.5,-161.5 1017.5,-161.5"/>
<text text-anchor="middle" x="1077" y="-168.5" font-family="Helvetica,sans-Serif" font-size="10.00">amr_wind::FieldRepo</text>
</a>
</g>
</g>
<!-- Node6&#45;&gt;Node2 -->
<g id="edge5" class="edge">
<title>Node6&#45;&gt;Node2</title>
<path fill="none" stroke="#9a32cd" stroke-dasharray="5,2" d="M1134.89,-182.51C1167.34,-189.08 1207.54,-197.22 1238.24,-203.43"/>
<polygon fill="#9a32cd" stroke="#9a32cd" points="1135.58,-179.08 1125.08,-180.53 1134.19,-185.94 1135.58,-179.08"/>
<text text-anchor="middle" x="1175" y="-197" font-family="Helvetica,sans-Serif" font-size="10.00"> m_repo</text>
</g>
<!-- Node6&#45;&gt;Node13 -->
<g id="edge24" class="edge">
<title>Node6&#45;&gt;Node13</title>
<path fill="none" stroke="#9a32cd" stroke-dasharray="5,2" d="M1109.65,-157.33C1123.49,-151.48 1139.97,-144.71 1155,-139 1189.39,-125.94 1229.46,-112.36 1256.03,-103.58"/>
<polygon fill="#9a32cd" stroke="#9a32cd" points="1107.93,-154.26 1100.09,-161.39 1110.67,-160.7 1107.93,-154.26"/>
<text text-anchor="middle" x="1175" y="-142" font-family="Helvetica,sans-Serif" font-size="10.00"> m_repo</text>
</g>
<!-- Node19 -->
<g id="node19" class="node">
<title>Node19</title>
<g id="a_node19"><a xlink:href="structamr__wind_1_1pde_1_1_p_d_e_fields.html" target="_top" xlink:title="Collection of fields related to a PDE.">
<polygon fill="white" stroke="black" points="1448,-122.5 1448,-141.5 1591,-141.5 1591,-122.5 1448,-122.5"/>
<text text-anchor="middle" x="1519.5" y="-129.5" font-family="Helvetica,sans-Serif" font-size="10.00">amr_wind::pde::PDEFields</text>
</a>
</g>
</g>
<!-- Node6&#45;&gt;Node19 -->
<g id="edge27" class="edge">
<title>Node6&#45;&gt;Node19</title>
<path fill="none" stroke="#9a32cd" stroke-dasharray="5,2" d="M1146.97,-169.76C1218.13,-167.8 1332.22,-162.8 1430,-150 1445.7,-147.95 1462.79,-144.71 1477.73,-141.55"/>
<polygon fill="#9a32cd" stroke="#9a32cd" points="1146.69,-166.26 1136.79,-170.02 1146.87,-173.26 1146.69,-166.26"/>
<text text-anchor="middle" x="1286.5" y="-170" font-family="Helvetica,sans-Serif" font-size="10.00"> repo</text>
</g>
<!-- Node7&#45;&gt;Node6 -->
<g id="edge6" class="edge">
<title>Node7&#45;&gt;Node6</title>
<path fill="none" stroke="#9a32cd" stroke-dasharray="5,2" d="M847.43,-179.01C851.66,-178.23 855.88,-177.55 860,-177 912.8,-169.92 973.48,-168.85 1017.06,-169.3"/>
<polygon fill="#9a32cd" stroke="#9a32cd" points="846.68,-175.59 837.54,-180.96 848.03,-182.46 846.68,-175.59"/>
<text text-anchor="middle" x="929.5" y="-191" font-family="Helvetica,sans-Serif" font-size="10.00"> m_fid_map</text>
<text text-anchor="middle" x="929.5" y="-180" font-family="Helvetica,sans-Serif" font-size="10.00">m_int_fid_map</text>
</g>
<!-- Node8 -->
<g id="node8" class="node">
<title>Node8</title>
<g id="a_node8"><a xlink:title="STL class.">
<polygon fill="white" stroke="#bfbfbf" points="412.5,-215 412.5,-245 526.5,-245 526.5,-215 412.5,-215"/>
<text text-anchor="start" x="420.5" y="-233" font-family="Helvetica,sans-Serif" font-size="10.00">std::unordered_map</text>
<text text-anchor="middle" x="469.5" y="-222" font-family="Helvetica,sans-Serif" font-size="10.00">&lt; K, T &gt;</text>
</a>
</g>
</g>
<!-- Node8&#45;&gt;Node7 -->
<g id="edge8" class="edge">
<title>Node8&#45;&gt;Node7</title>
<path fill="none" stroke="orange" stroke-dasharray="5,2" d="M536.95,-224.71C583.28,-220.77 646.5,-214.9 702,-208 707.71,-207.29 713.65,-206.49 719.58,-205.65"/>
<polygon fill="orange" stroke="orange" points="536.41,-221.25 526.73,-225.57 536.99,-228.22 536.41,-221.25"/>
<text text-anchor="middle" x="637" y="-224" font-family="Helvetica,sans-Serif" font-size="10.00"> &lt; std::string, size_t &gt;</text>
</g>
<!-- Node9 -->
<g id="node9" class="node">
<title>Node9</title>
<g id="a_node9"><a xlink:title=" ">
<polygon fill="white" stroke="#bfbfbf" points="134.5,-190.5 134.5,-209.5 163.5,-209.5 163.5,-190.5 134.5,-190.5"/>
<text text-anchor="middle" x="149" y="-197.5" font-family="Helvetica,sans-Serif" font-size="10.00">K</text>
</a>
</g>
</g>
<!-- Node9&#45;&gt;Node8 -->
<g id="edge9" class="edge">
<title>Node9&#45;&gt;Node8</title>
<path fill="none" stroke="#9a32cd" stroke-dasharray="5,2" d="M173.87,-202.25C224.1,-206.98 341.85,-218.07 412.34,-224.71"/>
<polygon fill="#9a32cd" stroke="#9a32cd" points="173.97,-198.74 163.69,-201.29 173.31,-205.71 173.97,-198.74"/>
<text text-anchor="middle" x="300.5" y="-223" font-family="Helvetica,sans-Serif" font-size="10.00"> keys</text>
</g>
<!-- Node10 -->
<g id="node10" class="node">
<title>Node10</title>
<g id="a_node10"><a xlink:title=" ">
<polygon fill="white" stroke="#bfbfbf" points="0,-88.5 0,-107.5 29,-107.5 29,-88.5 0,-88.5"/>
<text text-anchor="middle" x="14.5" y="-95.5" font-family="Helvetica,sans-Serif" font-size="10.00">T</text>
</a>
</g>
</g>
<!-- Node10&#45;&gt;Node8 -->
<g id="edge10" class="edge">
<title>Node10&#45;&gt;Node8</title>
<path fill="none" stroke="#9a32cd" stroke-dasharray="5,2" d="M20.03,-117.4C27.63,-145.16 45.81,-195.46 82,-219 183.42,-284.99 333.63,-263.5 413.65,-245.01"/>
<polygon fill="#9a32cd" stroke="#9a32cd" points="23.41,-116.47 17.54,-107.65 16.62,-118.2 23.41,-116.47"/>
<text text-anchor="middle" x="149" y="-264" font-family="Helvetica,sans-Serif" font-size="10.00"> elements</text>
</g>
<!-- Node12 -->
<g id="node12" class="node">
<title>Node12</title>
<g id="a_node12"><a xlink:title="STL class.">
<polygon fill="white" stroke="#bfbfbf" points="90,-88.5 90,-107.5 208,-107.5 208,-88.5 90,-88.5"/>
<text text-anchor="middle" x="149" y="-95.5" font-family="Helvetica,sans-Serif" font-size="10.00">std::unique_ptr&lt; T &gt;</text>
</a>
</g>
</g>
<!-- Node10&#45;&gt;Node12 -->
<g id="edge13" class="edge">
<title>Node10&#45;&gt;Node12</title>
<path fill="none" stroke="#9a32cd" stroke-dasharray="5,2" d="M39.44,-98C53.53,-98 72.01,-98 89.72,-98"/>
<polygon fill="#9a32cd" stroke="#9a32cd" points="39.18,-94.5 29.18,-98 39.18,-101.5 39.18,-94.5"/>
<text text-anchor="middle" x="55.5" y="-101" font-family="Helvetica,sans-Serif" font-size="10.00"> ptr</text>
</g>
<!-- Node18 -->
<g id="node18" class="node">
<title>Node18</title>
<g id="a_node18"><a xlink:title="STL class.">
<polygon fill="white" stroke="#bfbfbf" points="241.5,-0.5 241.5,-19.5 359.5,-19.5 359.5,-0.5 241.5,-0.5"/>
<text text-anchor="middle" x="300.5" y="-7.5" font-family="Helvetica,sans-Serif" font-size="10.00">std::shared_ptr&lt; T &gt;</text>
</a>
</g>
</g>
<!-- Node10&#45;&gt;Node18 -->
<g id="edge22" class="edge">
<title>Node10&#45;&gt;Node18</title>
<path fill="none" stroke="#9a32cd" stroke-dasharray="5,2" d="M27.08,-80.05C38.77,-63.64 58.44,-40.25 82,-29 131.94,-5.15 195.66,-2.33 241.2,-4.3"/>
<polygon fill="#9a32cd" stroke="#9a32cd" points="24.18,-78.1 21.43,-88.34 29.96,-82.05 24.18,-78.1"/>
<text text-anchor="middle" x="55.5" y="-58" font-family="Helvetica,sans-Serif" font-size="10.00"> ptr</text>
</g>
<!-- Node11 -->
<g id="node11" class="node">
<title>Node11</title>
<g id="a_node11"><a xlink:title=" ">
<polygon fill="white" stroke="#bfbfbf" points="572,-247 572,-277 702,-277 702,-247 572,-247"/>
<text text-anchor="start" x="580" y="-265" font-family="Helvetica,sans-Serif" font-size="10.00">std::unique_ptr&lt; Hydro</text>
<text text-anchor="middle" x="637" y="-254" font-family="Helvetica,sans-Serif" font-size="10.00">::MacProjector &gt;</text>
</a>
</g>
</g>
<!-- Node11&#45;&gt;Node2 -->
<g id="edge11" class="edge">
<title>Node11&#45;&gt;Node2</title>
<path fill="none" stroke="#9a32cd" stroke-dasharray="5,2" d="M712.13,-259.91C819.07,-256.34 1022.7,-247.48 1195,-228 1207.5,-226.59 1220.91,-224.62 1233.47,-222.57"/>
<polygon fill="#9a32cd" stroke="#9a32cd" points="711.97,-256.41 702.09,-260.24 712.2,-263.41 711.97,-256.41"/>
<text text-anchor="middle" x="929.5" y="-256" font-family="Helvetica,sans-Serif" font-size="10.00"> m_mac_proj</text>
</g>
<!-- Node12&#45;&gt;Node11 -->
<g id="edge12" class="edge">
<title>Node12&#45;&gt;Node11</title>
<path fill="none" stroke="orange" stroke-dasharray="5,2" d="M198.83,-110.02C303.17,-135.83 539.57,-195.12 554,-206 566.42,-215.36 560.19,-225.89 572,-236 576.92,-240.21 582.61,-243.8 588.53,-246.85"/>
<polygon fill="orange" stroke="orange" points="199.41,-106.55 188.86,-107.55 197.73,-113.35 199.41,-106.55"/>
<text text-anchor="middle" x="300.5" y="-154" font-family="Helvetica,sans-Serif" font-size="10.00"> &lt; Hydro::MacProjector &gt;</text>
</g>
<!-- Node16 -->
<g id="node16" class="node">
<title>Node16</title>
<g id="a_node16"><a xlink:title=" ">
<polygon fill="white" stroke="#bfbfbf" points="385,-39 385,-69 554,-69 554,-39 385,-39"/>
<text text-anchor="start" x="393" y="-57" font-family="Helvetica,sans-Serif" font-size="10.00">std::unique_ptr&lt; amr</text>
<text text-anchor="middle" x="469.5" y="-46" font-family="Helvetica,sans-Serif" font-size="10.00">_wind::FieldFillPatchOpsBase &gt;</text>
</a>
</g>
</g>
<!-- Node12&#45;&gt;Node16 -->
<g id="edge19" class="edge">
<title>Node12&#45;&gt;Node16</title>
<path fill="none" stroke="orange" stroke-dasharray="5,2" d="M218.07,-89.15C260.85,-83.53 317.17,-76.01 367,-69 372.82,-68.18 378.83,-67.32 384.88,-66.45"/>
<polygon fill="orange" stroke="orange" points="217.51,-85.69 208.06,-90.46 218.43,-92.63 217.51,-85.69"/>
<text text-anchor="start" x="234" y="-101" font-family="Helvetica,sans-Serif" font-size="10.00"> &lt; amr_wind::FieldFillPatch</text>
<text text-anchor="middle" x="300.5" y="-90" font-family="Helvetica,sans-Serif" font-size="10.00">OpsBase &gt;</text>
</g>
<!-- Node13&#45;&gt;Node1 -->
<g id="edge14" class="edge">
<title>Node13&#45;&gt;Node1</title>
<path fill="none" stroke="#9a32cd" stroke-dasharray="5,2" d="M1343.94,-83.81C1405.28,-74.49 1505.92,-64.34 1591,-80 1629.16,-87.02 1670.46,-104.22 1697.52,-116.93"/>
<polygon fill="#9a32cd" stroke="#9a32cd" points="1343.04,-80.41 1333.7,-85.41 1344.12,-87.33 1343.04,-80.41"/>
<text text-anchor="middle" x="1519.5" y="-105" font-family="Helvetica,sans-Serif" font-size="10.00"> u_mac</text>
<text text-anchor="middle" x="1519.5" y="-94" font-family="Helvetica,sans-Serif" font-size="10.00">v_mac</text>
<text text-anchor="middle" x="1519.5" y="-83" font-family="Helvetica,sans-Serif" font-size="10.00">w_mac</text>
</g>
<!-- Node13&#45;&gt;Node19 -->
<g id="edge26" class="edge">
<title>Node13&#45;&gt;Node19</title>
<path fill="none" stroke="#9a32cd" stroke-dasharray="5,2" d="M1343.75,-89.41C1370.18,-88.52 1401.97,-89.27 1430,-95 1455.94,-100.3 1483.8,-113.29 1501.18,-122.37"/>
<polygon fill="#9a32cd" stroke="#9a32cd" points="1343.38,-85.92 1333.53,-89.84 1343.67,-92.91 1343.38,-85.92"/>
<text text-anchor="middle" x="1404" y="-142" font-family="Helvetica,sans-Serif" font-size="10.00"> src_term</text>
<text text-anchor="middle" x="1404" y="-131" font-family="Helvetica,sans-Serif" font-size="10.00">field</text>
<text text-anchor="middle" x="1404" y="-120" font-family="Helvetica,sans-Serif" font-size="10.00">diff_term</text>
<text text-anchor="middle" x="1404" y="-109" font-family="Helvetica,sans-Serif" font-size="10.00">mueff</text>
<text text-anchor="middle" x="1404" y="-98" font-family="Helvetica,sans-Serif" font-size="10.00">conv_term</text>
</g>
<!-- Node14 -->
<g id="node14" class="node">
<title>Node14</title>
<g id="a_node14"><a xlink:title=" ">
<polygon fill="white" stroke="#bfbfbf" points="1017,-39 1017,-69 1137,-69 1137,-39 1017,-39"/>
<text text-anchor="start" x="1025" y="-57" font-family="Helvetica,sans-Serif" font-size="10.00">std::shared_ptr&lt; amr</text>
<text text-anchor="middle" x="1077" y="-46" font-family="Helvetica,sans-Serif" font-size="10.00">_wind::FieldInfo &gt;</text>
</a>
</g>
</g>
<!-- Node14&#45;&gt;Node13 -->
<g id="edge15" class="edge">
<title>Node14&#45;&gt;Node13</title>
<path fill="none" stroke="#9a32cd" stroke-dasharray="5,2" d="M1147.28,-67.36C1177.6,-73.2 1212.36,-79.9 1239.43,-85.12"/>
<polygon fill="#9a32cd" stroke="#9a32cd" points="1147.67,-63.87 1137.18,-65.41 1146.34,-70.74 1147.67,-63.87"/>
<text text-anchor="middle" x="1175" y="-80" font-family="Helvetica,sans-Serif" font-size="10.00"> m_info</text>
</g>
<!-- Node15&#45;&gt;Node14 -->
<g id="edge16" class="edge">
<title>Node15&#45;&gt;Node14</title>
<path fill="none" stroke="#9a32cd" stroke-dasharray="5,2" d="M847.84,-54C898.49,-54 967.88,-54 1016.8,-54"/>
<polygon fill="#9a32cd" stroke="#9a32cd" points="847.64,-50.5 837.64,-54 847.64,-57.5 847.64,-50.5"/>
<text text-anchor="middle" x="929.5" y="-57" font-family="Helvetica,sans-Serif" font-size="10.00"> ptr</text>
</g>
<!-- Node16&#45;&gt;Node15 -->
<g id="edge17" class="edge">
<title>Node16&#45;&gt;Node15</title>
<path fill="none" stroke="#9a32cd" stroke-dasharray="5,2" d="M564.25,-45.38C566.86,-45.24 569.45,-45.11 572,-45 629.72,-42.45 644.32,-41.68 702,-45 709.21,-45.41 716.78,-46.04 724.25,-46.78"/>
<polygon fill="#9a32cd" stroke="#9a32cd" points="563.87,-41.9 554.1,-46 564.29,-48.89 563.87,-41.9"/>
<text text-anchor="middle" x="637" y="-48" font-family="Helvetica,sans-Serif" font-size="10.00"> m_fillpatch_op</text>
</g>
<!-- Node17 -->
<g id="node17" class="node">
<title>Node17</title>
<g id="a_node17"><a xlink:href="classamr__wind_1_1_field_fill_patch_ops_base.html" target="_top" xlink:title="Abstract interface for classes that handle fill patch and physical boundary condition operations for ...">
<polygon fill="white" stroke="black" points="82,-39 82,-69 216,-69 216,-39 82,-39"/>
<text text-anchor="start" x="90" y="-57" font-family="Helvetica,sans-Serif" font-size="10.00">amr_wind::FieldFillPatch</text>
<text text-anchor="middle" x="149" y="-46" font-family="Helvetica,sans-Serif" font-size="10.00">OpsBase</text>
</a>
</g>
</g>
<!-- Node17&#45;&gt;Node16 -->
<g id="edge18" class="edge">
<title>Node17&#45;&gt;Node16</title>
<path fill="none" stroke="#9a32cd" stroke-dasharray="5,2" d="M226.66,-54C274.42,-54 335.87,-54 384.88,-54"/>
<polygon fill="#9a32cd" stroke="#9a32cd" points="226.38,-50.5 216.38,-54 226.38,-57.5 226.38,-50.5"/>
<text text-anchor="middle" x="300.5" y="-57" font-family="Helvetica,sans-Serif" font-size="10.00"> ptr</text>
</g>
<!-- Node18&#45;&gt;Node14 -->
<g id="edge21" class="edge">
<title>Node18&#45;&gt;Node14</title>
<path fill="none" stroke="orange" stroke-dasharray="5,2" d="M369.75,-12.31C472.32,-15.98 672.31,-23.87 842,-35 901.58,-38.91 969.6,-44.57 1016.89,-48.69"/>
<polygon fill="orange" stroke="orange" points="369.65,-8.81 359.53,-11.95 369.4,-15.8 369.65,-8.81"/>
<text text-anchor="middle" x="637" y="-30" font-family="Helvetica,sans-Serif" font-size="10.00"> &lt; amr_wind::FieldInfo &gt;</text>
</g>
<!-- Node19&#45;&gt;Node1 -->
<g id="edge25" class="edge">
<title>Node19&#45;&gt;Node1</title>
<path fill="none" stroke="#9a32cd" stroke-dasharray="5,2" d="M1601.23,-132C1619.57,-132 1638.92,-132 1656.81,-132"/>
<polygon fill="#9a32cd" stroke="#9a32cd" points="1601.16,-128.5 1591.16,-132 1601.16,-135.5 1601.16,-128.5"/>
<text text-anchor="middle" x="1624" y="-135" font-family="Helvetica,sans-Serif" font-size="10.00"> fields</text>
</g>
</g>
</svg>
