<?xml version="1.0" encoding="UTF-8" standalone="no"?>
<!DOCTYPE svg PUBLIC "-//W3C//DTD SVG 1.1//EN"
 "http://www.w3.org/Graphics/SVG/1.1/DTD/svg11.dtd">
<!-- Generated by graphviz version 2.43.0 (0)
 -->
<!-- Title: tensor_ops.H Pages: 1 -->
<svg width="1282pt" height="364pt"
 viewBox="0.00 0.00 1282.17 364.00" xmlns="http://www.w3.org/2000/svg" xmlns:xlink="http://www.w3.org/1999/xlink">
<g id="graph0" class="graph" transform="scale(1 1) rotate(0) translate(4 360)">
<title>tensor_ops.H</title>
<polygon fill="white" stroke="transparent" points="-4,4 -4,-360 1278.17,-360 1278.17,4 -4,4"/>
<!-- Node1 -->
<g id="node1" class="node">
<title>Node1</title>
<g id="a_node1"><a xlink:title=" ">
<polygon fill="#bfbfbf" stroke="black" points="560.5,-336.5 560.5,-355.5 640.5,-355.5 640.5,-336.5 560.5,-336.5"/>
<text text-anchor="middle" x="600.5" y="-343.5" font-family="Helvetica,sans-Serif" font-size="10.00">tensor_ops.H</text>
</a>
</g>
</g>
<!-- Node2 -->
<g id="node2" class="node">
<title>Node2</title>
<g id="a_node2"><a xlink:href="_coriolis_forcing_8cpp.html" target="_top" xlink:title=" ">
<polygon fill="white" stroke="black" points="0,-280.5 0,-299.5 109,-299.5 109,-280.5 0,-280.5"/>
<text text-anchor="middle" x="54.5" y="-287.5" font-family="Helvetica,sans-Serif" font-size="10.00">CoriolisForcing.cpp</text>
</a>
</g>
</g>
<!-- Node1&#45;&gt;Node2 -->
<g id="edge1" class="edge">
<title>Node1&#45;&gt;Node2</title>
<path fill="none" stroke="midnightblue" d="M550.13,-341.13C462.2,-334.18 275.03,-318.58 117.5,-300 114.76,-299.68 111.95,-299.33 109.11,-298.97"/>
<polygon fill="midnightblue" stroke="midnightblue" points="550.11,-344.63 560.36,-341.93 550.66,-337.66 550.11,-344.63"/>
</g>
<!-- Node3 -->
<g id="node3" class="node">
<title>Node3</title>
<g id="a_node3"><a xlink:href="_synthetic_turbulence_8cpp.html" target="_top" xlink:title=" ">
<polygon fill="white" stroke="black" points="127,-280.5 127,-299.5 262,-299.5 262,-280.5 127,-280.5"/>
<text text-anchor="middle" x="194.5" y="-287.5" font-family="Helvetica,sans-Serif" font-size="10.00">SyntheticTurbulence.cpp</text>
</a>
</g>
</g>
<!-- Node1&#45;&gt;Node3 -->
<g id="edge2" class="edge">
<title>Node1&#45;&gt;Node3</title>
<path fill="none" stroke="midnightblue" d="M550.52,-338.35C477,-328.57 339.67,-310.31 258.75,-299.55"/>
<polygon fill="midnightblue" stroke="midnightblue" points="550.09,-341.83 560.46,-339.67 551.01,-334.89 550.09,-341.83"/>
</g>
<!-- Node4 -->
<g id="node4" class="node">
<title>Node4</title>
<g id="a_node4"><a xlink:href="_d_t_u_spinner_sampler_8cpp.html" target="_top" xlink:title=" ">
<polygon fill="white" stroke="black" points="280.5,-280.5 280.5,-299.5 414.5,-299.5 414.5,-280.5 280.5,-280.5"/>
<text text-anchor="middle" x="347.5" y="-287.5" font-family="Helvetica,sans-Serif" font-size="10.00">DTUSpinnerSampler.cpp</text>
</a>
</g>
</g>
<!-- Node1&#45;&gt;Node4 -->
<g id="edge3" class="edge">
<title>Node1&#45;&gt;Node4</title>
<path fill="none" stroke="midnightblue" d="M550.58,-334.35C502.77,-324.14 431.55,-308.94 387.4,-299.52"/>
<polygon fill="midnightblue" stroke="midnightblue" points="549.9,-337.78 560.41,-336.44 551.36,-330.93 549.9,-337.78"/>
</g>
<!-- Node5 -->
<g id="node5" class="node">
<title>Node5</title>
<g id="a_node5"><a xlink:href="_lidar_sampler_8cpp.html" target="_top" xlink:title=" ">
<polygon fill="white" stroke="black" points="433,-280.5 433,-299.5 534,-299.5 534,-280.5 433,-280.5"/>
<text text-anchor="middle" x="483.5" y="-287.5" font-family="Helvetica,sans-Serif" font-size="10.00">LidarSampler.cpp</text>
</a>
</g>
</g>
<!-- Node1&#45;&gt;Node5 -->
<g id="edge4" class="edge">
<title>Node1&#45;&gt;Node5</title>
<path fill="none" stroke="midnightblue" d="M572.84,-332.23C550.95,-322.13 521,-308.31 501.95,-299.52"/>
<polygon fill="midnightblue" stroke="midnightblue" points="571.41,-335.43 581.96,-336.44 574.35,-329.08 571.41,-335.43"/>
</g>
<!-- Node6 -->
<g id="node6" class="node">
<title>Node6</title>
<g id="a_node6"><a xlink:href="_line_sampler_8cpp.html" target="_top" xlink:title=" ">
<polygon fill="white" stroke="black" points="552,-280.5 552,-299.5 649,-299.5 649,-280.5 552,-280.5"/>
<text text-anchor="middle" x="600.5" y="-287.5" font-family="Helvetica,sans-Serif" font-size="10.00">LineSampler.cpp</text>
</a>
</g>
</g>
<!-- Node1&#45;&gt;Node6 -->
<g id="edge5" class="edge">
<title>Node1&#45;&gt;Node6</title>
<path fill="none" stroke="midnightblue" d="M600.5,-325.8C600.5,-316.91 600.5,-306.78 600.5,-299.75"/>
<polygon fill="midnightblue" stroke="midnightblue" points="597,-326.08 600.5,-336.08 604,-326.08 597,-326.08"/>
</g>
<!-- Node7 -->
<g id="node7" class="node">
<title>Node7</title>
<g id="a_node7"><a xlink:href="_a_b_l_stats_8cpp.html" target="_top" xlink:title=" ">
<polygon fill="white" stroke="black" points="667.5,-280.5 667.5,-299.5 747.5,-299.5 747.5,-280.5 667.5,-280.5"/>
<text text-anchor="middle" x="707.5" y="-287.5" font-family="Helvetica,sans-Serif" font-size="10.00">ABLStats.cpp</text>
</a>
</g>
</g>
<!-- Node1&#45;&gt;Node7 -->
<g id="edge6" class="edge">
<title>Node1&#45;&gt;Node7</title>
<path fill="none" stroke="midnightblue" d="M626.8,-331.73C646.61,-321.73 673.21,-308.31 690.35,-299.65"/>
<polygon fill="midnightblue" stroke="midnightblue" points="625.04,-328.69 617.69,-336.32 628.2,-334.94 625.04,-328.69"/>
</g>
<!-- Node8 -->
<g id="node8" class="node">
<title>Node8</title>
<g id="a_node8"><a xlink:href="_a_b_l_wall_function_8cpp.html" target="_top" xlink:title=" ">
<polygon fill="white" stroke="black" points="766,-280.5 766,-299.5 883,-299.5 883,-280.5 766,-280.5"/>
<text text-anchor="middle" x="824.5" y="-287.5" font-family="Helvetica,sans-Serif" font-size="10.00">ABLWallFunction.cpp</text>
</a>
</g>
</g>
<!-- Node1&#45;&gt;Node8 -->
<g id="edge7" class="edge">
<title>Node1&#45;&gt;Node8</title>
<path fill="none" stroke="midnightblue" d="M645.76,-334.09C688.08,-323.89 750.41,-308.86 789.17,-299.52"/>
<polygon fill="midnightblue" stroke="midnightblue" points="644.89,-330.7 635.99,-336.44 646.54,-337.5 644.89,-330.7"/>
</g>
<!-- Node9 -->
<g id="node9" class="node">
<title>Node9</title>
<g id="a_node9"><a xlink:href="actuator__utils_8_h.html" target="_top" xlink:title=" ">
<polygon fill="white" stroke="black" points="901.5,-280.5 901.5,-299.5 995.5,-299.5 995.5,-280.5 901.5,-280.5"/>
<text text-anchor="middle" x="948.5" y="-287.5" font-family="Helvetica,sans-Serif" font-size="10.00">actuator_utils.H</text>
</a>
</g>
</g>
<!-- Node1&#45;&gt;Node9 -->
<g id="edge8" class="edge">
<title>Node1&#45;&gt;Node9</title>
<path fill="none" stroke="midnightblue" d="M650.51,-337.32C708.49,-328.4 806.93,-313.22 891.5,-300 894.67,-299.51 897.93,-298.99 901.22,-298.48"/>
<polygon fill="midnightblue" stroke="midnightblue" points="649.87,-333.87 640.52,-338.85 650.93,-340.79 649.87,-333.87"/>
</g>
<!-- Node21 -->
<g id="node21" class="node">
<title>Node21</title>
<g id="a_node21"><a xlink:href="uniform__ct__ops_8_h.html" target="_top" xlink:title=" ">
<polygon fill="white" stroke="black" points="1146.5,-112.5 1146.5,-131.5 1248.5,-131.5 1248.5,-112.5 1146.5,-112.5"/>
<text text-anchor="middle" x="1197.5" y="-119.5" font-family="Helvetica,sans-Serif" font-size="10.00">uniform_ct_ops.H</text>
</a>
</g>
</g>
<!-- Node1&#45;&gt;Node21 -->
<g id="edge44" class="edge">
<title>Node1&#45;&gt;Node21</title>
<path fill="none" stroke="midnightblue" d="M650.76,-342.89C744.37,-338.38 941.66,-326.04 1004.5,-300 1095.22,-262.41 1170.25,-162.24 1191.48,-131.86"/>
<polygon fill="midnightblue" stroke="midnightblue" points="650.5,-339.39 640.68,-343.36 650.83,-346.39 650.5,-339.39"/>
</g>
<!-- Node10 -->
<g id="node10" class="node">
<title>Node10</title>
<g id="a_node10"><a xlink:href="actuator__ops_i_8_h.html" target="_top" xlink:title=" ">
<polygon fill="white" stroke="black" points="808,-224.5 808,-243.5 901,-243.5 901,-224.5 808,-224.5"/>
<text text-anchor="middle" x="854.5" y="-231.5" font-family="Helvetica,sans-Serif" font-size="10.00">actuator_opsI.H</text>
</a>
</g>
</g>
<!-- Node9&#45;&gt;Node10 -->
<g id="edge9" class="edge">
<title>Node9&#45;&gt;Node10</title>
<path fill="none" stroke="midnightblue" d="M924.44,-275.18C907.14,-265.24 884.35,-252.15 869.57,-243.65"/>
<polygon fill="midnightblue" stroke="midnightblue" points="922.98,-278.38 933.4,-280.32 926.47,-272.31 922.98,-278.38"/>
</g>
<!-- Node12 -->
<g id="node12" class="node">
<title>Node12</title>
<g id="a_node12"><a xlink:href="_act_src_line_op_8_h.html" target="_top" xlink:title=" ">
<polygon fill="white" stroke="black" points="924.5,-112.5 924.5,-131.5 1016.5,-131.5 1016.5,-112.5 924.5,-112.5"/>
<text text-anchor="middle" x="970.5" y="-119.5" font-family="Helvetica,sans-Serif" font-size="10.00">ActSrcLineOp.H</text>
</a>
</g>
</g>
<!-- Node9&#45;&gt;Node12 -->
<g id="edge36" class="edge">
<title>Node9&#45;&gt;Node12</title>
<path fill="none" stroke="midnightblue" d="M951.03,-269.93C955.8,-233.92 965.96,-157.23 969.36,-131.57"/>
<polygon fill="midnightblue" stroke="midnightblue" points="947.53,-269.7 949.68,-280.08 954.47,-270.62 947.53,-269.7"/>
</g>
<!-- Node19 -->
<g id="node19" class="node">
<title>Node19</title>
<g id="a_node19"><a xlink:href="_act_src_disk_op___turbine_8_h.html" target="_top" xlink:title=" ">
<polygon fill="white" stroke="black" points="772.5,-112.5 772.5,-131.5 906.5,-131.5 906.5,-112.5 772.5,-112.5"/>
<text text-anchor="middle" x="839.5" y="-119.5" font-family="Helvetica,sans-Serif" font-size="10.00">ActSrcDiskOp_Turbine.H</text>
</a>
</g>
</g>
<!-- Node9&#45;&gt;Node19 -->
<g id="edge37" class="edge">
<title>Node9&#45;&gt;Node19</title>
<path fill="none" stroke="midnightblue" d="M938.45,-271.55C930.75,-258.35 919.74,-239.86 909.5,-224 886.94,-189.05 858.13,-148.74 845.69,-131.52"/>
<polygon fill="midnightblue" stroke="midnightblue" points="935.58,-273.58 943.63,-280.48 941.64,-270.07 935.58,-273.58"/>
</g>
<!-- Node20 -->
<g id="node20" class="node">
<title>Node20</title>
<g id="a_node20"><a xlink:href="_act_src_disk_op_8_h.html" target="_top" xlink:title=" ">
<polygon fill="white" stroke="black" points="1035,-112.5 1035,-131.5 1128,-131.5 1128,-112.5 1035,-112.5"/>
<text text-anchor="middle" x="1081.5" y="-119.5" font-family="Helvetica,sans-Serif" font-size="10.00">ActSrcDiskOp.H</text>
</a>
</g>
</g>
<!-- Node9&#45;&gt;Node20 -->
<g id="edge38" class="edge">
<title>Node9&#45;&gt;Node20</title>
<path fill="none" stroke="midnightblue" d="M957.26,-271.52C970.14,-246.83 995.86,-201.1 1025.5,-168 1038.48,-153.51 1056.44,-139.97 1068.48,-131.6"/>
<polygon fill="midnightblue" stroke="midnightblue" points="954.14,-269.93 952.7,-280.43 960.37,-273.12 954.14,-269.93"/>
</g>
<!-- Node23 -->
<g id="node23" class="node">
<title>Node23</title>
<g id="a_node23"><a xlink:href="turbine__fast__ops_8_h.html" target="_top" xlink:title=" ">
<polygon fill="white" stroke="black" points="440.5,-112.5 440.5,-131.5 548.5,-131.5 548.5,-112.5 440.5,-112.5"/>
<text text-anchor="middle" x="494.5" y="-119.5" font-family="Helvetica,sans-Serif" font-size="10.00">turbine_fast_ops.H</text>
</a>
</g>
</g>
<!-- Node9&#45;&gt;Node23 -->
<g id="edge43" class="edge">
<title>Node9&#45;&gt;Node23</title>
<path fill="none" stroke="midnightblue" d="M891.1,-279.81C812.78,-267.23 681.49,-245.97 676.5,-244 603.78,-215.35 530.24,-154.46 504.29,-131.77"/>
<polygon fill="midnightblue" stroke="midnightblue" points="890.88,-283.32 901.31,-281.45 891.99,-276.41 890.88,-283.32"/>
</g>
<!-- Node28 -->
<g id="node28" class="node">
<title>Node28</title>
<g id="a_node28"><a xlink:href="disk__spreading_8_h.html" target="_top" xlink:title=" ">
<polygon fill="white" stroke="black" points="1034,-168.5 1034,-187.5 1135,-187.5 1135,-168.5 1034,-168.5"/>
<text text-anchor="middle" x="1084.5" y="-175.5" font-family="Helvetica,sans-Serif" font-size="10.00">disk_spreading.H</text>
</a>
</g>
</g>
<!-- Node9&#45;&gt;Node28 -->
<g id="edge39" class="edge">
<title>Node9&#45;&gt;Node28</title>
<path fill="none" stroke="midnightblue" d="M972.8,-275.41C986.95,-267.06 1004.83,-255.75 1019.5,-244 1042.17,-225.85 1065.46,-200.65 1077.03,-187.6"/>
<polygon fill="midnightblue" stroke="midnightblue" points="971.02,-272.4 964.12,-280.44 974.53,-278.46 971.02,-272.4"/>
</g>
<!-- Node29 -->
<g id="node29" class="node">
<title>Node29</title>
<g id="a_node29"><a xlink:href="actuator__utils_8cpp.html" target="_top" xlink:title=" ">
<polygon fill="white" stroke="black" points="685.5,-224.5 685.5,-243.5 789.5,-243.5 789.5,-224.5 685.5,-224.5"/>
<text text-anchor="middle" x="737.5" y="-231.5" font-family="Helvetica,sans-Serif" font-size="10.00">actuator_utils.cpp</text>
</a>
</g>
</g>
<!-- Node9&#45;&gt;Node29 -->
<g id="edge42" class="edge">
<title>Node9&#45;&gt;Node29</title>
<path fill="none" stroke="midnightblue" d="M905.36,-277.96C865.51,-267.76 807.14,-252.82 770.78,-243.52"/>
<polygon fill="midnightblue" stroke="midnightblue" points="904.51,-281.35 915.07,-280.44 906.25,-274.57 904.51,-281.35"/>
</g>
<!-- Node11 -->
<g id="node11" class="node">
<title>Node11</title>
<g id="a_node11"><a xlink:href="actuator__ops_8_h.html" target="_top" xlink:title=" ">
<polygon fill="white" stroke="black" points="746.5,-168.5 746.5,-187.5 836.5,-187.5 836.5,-168.5 746.5,-168.5"/>
<text text-anchor="middle" x="791.5" y="-175.5" font-family="Helvetica,sans-Serif" font-size="10.00">actuator_ops.H</text>
</a>
</g>
</g>
<!-- Node10&#45;&gt;Node11 -->
<g id="edge10" class="edge">
<title>Node10&#45;&gt;Node11</title>
<path fill="none" stroke="midnightblue" d="M836.46,-217.54C825.23,-207.91 811.18,-195.87 801.81,-187.83"/>
<polygon fill="midnightblue" stroke="midnightblue" points="834.51,-220.47 844.38,-224.32 839.06,-215.16 834.51,-220.47"/>
</g>
<!-- Node11&#45;&gt;Node12 -->
<g id="edge11" class="edge">
<title>Node11&#45;&gt;Node12</title>
<path fill="none" stroke="midnightblue" d="M829.83,-165.44C863.58,-155.26 911.95,-140.66 942.27,-131.52"/>
<polygon fill="midnightblue" stroke="midnightblue" points="828.43,-162.2 819.86,-168.44 830.45,-168.91 828.43,-162.2"/>
</g>
<!-- Node13 -->
<g id="node13" class="node">
<title>Node13</title>
<g id="a_node13"><a xlink:href="_actuator_model_8_h.html" target="_top" xlink:title=" ">
<polygon fill="white" stroke="black" points="856.5,-56.5 856.5,-75.5 954.5,-75.5 954.5,-56.5 856.5,-56.5"/>
<text text-anchor="middle" x="905.5" y="-63.5" font-family="Helvetica,sans-Serif" font-size="10.00">ActuatorModel.H</text>
</a>
</g>
</g>
<!-- Node11&#45;&gt;Node13 -->
<g id="edge18" class="edge">
<title>Node11&#45;&gt;Node13</title>
<path fill="none" stroke="midnightblue" d="M775.64,-160.64C764.21,-146.82 752.56,-126.94 763.5,-112 775.03,-96.25 822.37,-83.42 859.25,-75.55"/>
<polygon fill="midnightblue" stroke="midnightblue" points="773.26,-163.23 782.52,-168.37 778.48,-158.58 773.26,-163.23"/>
</g>
<!-- Node11&#45;&gt;Node19 -->
<g id="edge19" class="edge">
<title>Node11&#45;&gt;Node19</title>
<path fill="none" stroke="midnightblue" d="M806.23,-160.43C814.64,-150.97 824.85,-139.48 831.72,-131.75"/>
<polygon fill="midnightblue" stroke="midnightblue" points="803.45,-158.28 799.43,-168.08 808.69,-162.93 803.45,-158.28"/>
</g>
<!-- Node11&#45;&gt;Node20 -->
<g id="edge21" class="edge">
<title>Node11&#45;&gt;Node20</title>
<path fill="none" stroke="midnightblue" d="M846.69,-166.72C901.41,-156.53 984.3,-141.1 1035.55,-131.56"/>
<polygon fill="midnightblue" stroke="midnightblue" points="846,-163.29 836.81,-168.56 847.28,-170.17 846,-163.29"/>
</g>
<!-- Node11&#45;&gt;Node21 -->
<g id="edge23" class="edge">
<title>Node11&#45;&gt;Node21</title>
<path fill="none" stroke="midnightblue" d="M846.71,-170.16C915.04,-161.61 1034.93,-146.36 1137.5,-132 1140.42,-131.59 1143.42,-131.16 1146.45,-130.73"/>
<polygon fill="midnightblue" stroke="midnightblue" points="846.09,-166.71 836.6,-171.42 846.96,-173.65 846.09,-166.71"/>
</g>
<!-- Node11&#45;&gt;Node23 -->
<g id="edge26" class="edge">
<title>Node11&#45;&gt;Node23</title>
<path fill="none" stroke="midnightblue" d="M736.29,-166.96C680.24,-156.77 594.4,-141.16 541.51,-131.55"/>
<polygon fill="midnightblue" stroke="midnightblue" points="735.93,-170.45 746.39,-168.8 737.18,-163.57 735.93,-170.45"/>
</g>
<!-- Node24 -->
<g id="node24" class="node">
<title>Node24</title>
<g id="a_node24"><a xlink:href="fixed__wing__ops_8_h.html" target="_top" xlink:title=" ">
<polygon fill="white" stroke="black" points="523,-56.5 523,-75.5 624,-75.5 624,-56.5 523,-56.5"/>
<text text-anchor="middle" x="573.5" y="-63.5" font-family="Helvetica,sans-Serif" font-size="10.00">fixed_wing_ops.H</text>
</a>
</g>
</g>
<!-- Node11&#45;&gt;Node24 -->
<g id="edge28" class="edge">
<title>Node11&#45;&gt;Node24</title>
<path fill="none" stroke="midnightblue" d="M735.97,-170.35C685.51,-163.24 615.91,-150.45 595.5,-132 579.06,-117.14 574.9,-89.56 573.85,-75.59"/>
<polygon fill="midnightblue" stroke="midnightblue" points="735.72,-173.85 746.11,-171.74 736.67,-166.91 735.72,-173.85"/>
</g>
<!-- Node25 -->
<g id="node25" class="node">
<title>Node25</title>
<g id="a_node25"><a xlink:href="wing__ops_8_h.html" target="_top" xlink:title=" ">
<polygon fill="white" stroke="black" points="605,-112.5 605,-131.5 678,-131.5 678,-112.5 605,-112.5"/>
<text text-anchor="middle" x="641.5" y="-119.5" font-family="Helvetica,sans-Serif" font-size="10.00">wing_ops.H</text>
</a>
</g>
</g>
<!-- Node11&#45;&gt;Node25 -->
<g id="edge30" class="edge">
<title>Node11&#45;&gt;Node25</title>
<path fill="none" stroke="midnightblue" d="M758.28,-165.04C730.05,-154.88 690.24,-140.55 665.16,-131.52"/>
<polygon fill="midnightblue" stroke="midnightblue" points="757.14,-168.35 767.73,-168.44 759.51,-161.76 757.14,-168.35"/>
</g>
<!-- Node26 -->
<g id="node26" class="node">
<title>Node26</title>
<g id="a_node26"><a xlink:href="flat__plate__ops_8_h.html" target="_top" xlink:title=" ">
<polygon fill="white" stroke="black" points="743,-56.5 743,-75.5 838,-75.5 838,-56.5 743,-56.5"/>
<text text-anchor="middle" x="790.5" y="-63.5" font-family="Helvetica,sans-Serif" font-size="10.00">flat_plate_ops.H</text>
</a>
</g>
</g>
<!-- Node11&#45;&gt;Node26 -->
<g id="edge35" class="edge">
<title>Node11&#45;&gt;Node26</title>
<path fill="none" stroke="midnightblue" d="M762.5,-163.33C750.27,-155.92 737.31,-145.48 730.5,-132 718.52,-108.28 750.14,-86.94 771.89,-75.59"/>
<polygon fill="midnightblue" stroke="midnightblue" points="761.16,-166.59 771.59,-168.41 764.57,-160.48 761.16,-166.59"/>
</g>
<!-- Node12&#45;&gt;Node13 -->
<g id="edge12" class="edge">
<title>Node12&#45;&gt;Node13</title>
<path fill="none" stroke="midnightblue" d="M952.23,-105.82C940.58,-96.15 925.9,-83.95 916.13,-75.83"/>
<polygon fill="midnightblue" stroke="midnightblue" points="950.13,-108.63 960.06,-112.32 954.6,-103.24 950.13,-108.63"/>
</g>
<!-- Node14 -->
<g id="node14" class="node">
<title>Node14</title>
<g id="a_node14"><a xlink:href="_actuator_8cpp.html" target="_top" xlink:title=" ">
<polygon fill="white" stroke="black" points="867,-0.5 867,-19.5 944,-19.5 944,-0.5 867,-0.5"/>
<text text-anchor="middle" x="905.5" y="-7.5" font-family="Helvetica,sans-Serif" font-size="10.00">Actuator.cpp</text>
</a>
</g>
</g>
<!-- Node13&#45;&gt;Node14 -->
<g id="edge13" class="edge">
<title>Node13&#45;&gt;Node14</title>
<path fill="none" stroke="midnightblue" d="M905.5,-45.8C905.5,-36.91 905.5,-26.78 905.5,-19.75"/>
<polygon fill="midnightblue" stroke="midnightblue" points="902,-46.08 905.5,-56.08 909,-46.08 902,-46.08"/>
</g>
<!-- Node15 -->
<g id="node15" class="node">
<title>Node15</title>
<g id="a_node15"><a xlink:href="_actuator_disk_8cpp.html" target="_top" xlink:title=" ">
<polygon fill="white" stroke="black" points="1060.5,-0.5 1060.5,-19.5 1160.5,-19.5 1160.5,-0.5 1060.5,-0.5"/>
<text text-anchor="middle" x="1110.5" y="-7.5" font-family="Helvetica,sans-Serif" font-size="10.00">ActuatorDisk.cpp</text>
</a>
</g>
</g>
<!-- Node13&#45;&gt;Node15 -->
<g id="edge14" class="edge">
<title>Node13&#45;&gt;Node15</title>
<path fill="none" stroke="midnightblue" d="M947.91,-53.83C986.61,-43.63 1042.99,-28.78 1078.17,-19.52"/>
<polygon fill="midnightblue" stroke="midnightblue" points="946.76,-50.51 937.98,-56.44 948.54,-57.28 946.76,-50.51"/>
</g>
<!-- Node16 -->
<g id="node16" class="node">
<title>Node16</title>
<g id="a_node16"><a xlink:href="_turbine_fast_8cpp.html" target="_top" xlink:title=" ">
<polygon fill="white" stroke="black" points="479.5,-0.5 479.5,-19.5 571.5,-19.5 571.5,-0.5 479.5,-0.5"/>
<text text-anchor="middle" x="525.5" y="-7.5" font-family="Helvetica,sans-Serif" font-size="10.00">TurbineFast.cpp</text>
</a>
</g>
</g>
<!-- Node13&#45;&gt;Node16 -->
<g id="edge15" class="edge">
<title>Node13&#45;&gt;Node16</title>
<path fill="none" stroke="midnightblue" d="M846.14,-55.96C741.52,-40.69 631.91,-25.54 571.51,-17.27"/>
<polygon fill="midnightblue" stroke="midnightblue" points="845.85,-59.46 856.25,-57.44 846.86,-52.53 845.85,-59.46"/>
</g>
<!-- Node17 -->
<g id="node17" class="node">
<title>Node17</title>
<g id="a_node17"><a xlink:href="_fixed_wing_8cpp.html" target="_top" xlink:title=" ">
<polygon fill="white" stroke="black" points="633,-0.5 633,-19.5 720,-19.5 720,-0.5 633,-0.5"/>
<text text-anchor="middle" x="676.5" y="-7.5" font-family="Helvetica,sans-Serif" font-size="10.00">FixedWing.cpp</text>
</a>
</g>
</g>
<!-- Node13&#45;&gt;Node17 -->
<g id="edge16" class="edge">
<title>Node13&#45;&gt;Node17</title>
<path fill="none" stroke="midnightblue" d="M859.23,-54.09C815.96,-43.89 752.24,-28.86 712.62,-19.52"/>
<polygon fill="midnightblue" stroke="midnightblue" points="858.68,-57.55 869.21,-56.44 860.28,-50.74 858.68,-57.55"/>
</g>
<!-- Node18 -->
<g id="node18" class="node">
<title>Node18</title>
<g id="a_node18"><a xlink:href="_flat_plate_8cpp.html" target="_top" xlink:title=" ">
<polygon fill="white" stroke="black" points="759.5,-0.5 759.5,-19.5 839.5,-19.5 839.5,-0.5 759.5,-0.5"/>
<text text-anchor="middle" x="799.5" y="-7.5" font-family="Helvetica,sans-Serif" font-size="10.00">FlatPlate.cpp</text>
</a>
</g>
</g>
<!-- Node13&#45;&gt;Node18 -->
<g id="edge17" class="edge">
<title>Node13&#45;&gt;Node18</title>
<path fill="none" stroke="midnightblue" d="M879.44,-51.73C859.82,-41.73 833.47,-28.31 816.49,-19.65"/>
<polygon fill="midnightblue" stroke="midnightblue" points="877.97,-54.9 888.47,-56.32 881.15,-48.67 877.97,-54.9"/>
</g>
<!-- Node19&#45;&gt;Node13 -->
<g id="edge20" class="edge">
<title>Node19&#45;&gt;Node13</title>
<path fill="none" stroke="midnightblue" d="M858.05,-105.82C869.88,-96.15 884.79,-83.95 894.7,-75.83"/>
<polygon fill="midnightblue" stroke="midnightblue" points="855.63,-103.28 850.1,-112.32 860.06,-108.7 855.63,-103.28"/>
</g>
<!-- Node20&#45;&gt;Node13 -->
<g id="edge22" class="edge">
<title>Node20&#45;&gt;Node13</title>
<path fill="none" stroke="midnightblue" d="M1043.81,-109.44C1010.63,-99.26 963.07,-84.66 933.26,-75.52"/>
<polygon fill="midnightblue" stroke="midnightblue" points="1043.03,-112.86 1053.61,-112.44 1045.08,-106.16 1043.03,-112.86"/>
</g>
<!-- Node21&#45;&gt;Node15 -->
<g id="edge24" class="edge">
<title>Node21&#45;&gt;Node15</title>
<path fill="none" stroke="midnightblue" d="M1168.38,-107.71C1154.8,-100.17 1139.47,-89.52 1129.5,-76 1116.8,-58.78 1112.56,-33.19 1111.16,-19.84"/>
<polygon fill="midnightblue" stroke="midnightblue" points="1166.93,-110.9 1177.42,-112.43 1170.17,-104.7 1166.93,-110.9"/>
</g>
<!-- Node22 -->
<g id="node22" class="node">
<title>Node22</title>
<g id="a_node22"><a xlink:href="uniform__ct__ops_8cpp.html" target="_top" xlink:title=" ">
<polygon fill="white" stroke="black" points="1138.5,-56.5 1138.5,-75.5 1250.5,-75.5 1250.5,-56.5 1138.5,-56.5"/>
<text text-anchor="middle" x="1194.5" y="-63.5" font-family="Helvetica,sans-Serif" font-size="10.00">uniform_ct_ops.cpp</text>
</a>
</g>
</g>
<!-- Node21&#45;&gt;Node22 -->
<g id="edge25" class="edge">
<title>Node21&#45;&gt;Node22</title>
<path fill="none" stroke="midnightblue" d="M1196.43,-101.8C1195.94,-92.91 1195.38,-82.78 1194.99,-75.75"/>
<polygon fill="midnightblue" stroke="midnightblue" points="1192.96,-102.29 1197,-112.08 1199.94,-101.9 1192.96,-102.29"/>
</g>
<!-- Node23&#45;&gt;Node16 -->
<g id="edge27" class="edge">
<title>Node23&#45;&gt;Node16</title>
<path fill="none" stroke="midnightblue" d="M499.66,-102.67C506.44,-78.62 518.06,-37.39 523.08,-19.59"/>
<polygon fill="midnightblue" stroke="midnightblue" points="496.28,-101.79 496.93,-112.37 503.01,-103.69 496.28,-101.79"/>
</g>
<!-- Node24&#45;&gt;Node17 -->
<g id="edge29" class="edge">
<title>Node24&#45;&gt;Node17</title>
<path fill="none" stroke="midnightblue" d="M599.08,-51.59C618.12,-41.61 643.56,-28.27 659.99,-19.65"/>
<polygon fill="midnightblue" stroke="midnightblue" points="597.28,-48.58 590.05,-56.32 600.53,-54.78 597.28,-48.58"/>
</g>
<!-- Node25&#45;&gt;Node24 -->
<g id="edge31" class="edge">
<title>Node25&#45;&gt;Node24</title>
<path fill="none" stroke="midnightblue" d="M622.74,-106.1C610.5,-96.38 594.94,-84.03 584.62,-75.83"/>
<polygon fill="midnightblue" stroke="midnightblue" points="620.57,-108.85 630.57,-112.32 624.92,-103.36 620.57,-108.85"/>
</g>
<!-- Node25&#45;&gt;Node26 -->
<g id="edge32" class="edge">
<title>Node25&#45;&gt;Node26</title>
<path fill="none" stroke="midnightblue" d="M674.87,-108.91C702.88,-98.75 742.2,-84.51 767,-75.52"/>
<polygon fill="midnightblue" stroke="midnightblue" points="673.32,-105.75 665.11,-112.44 675.7,-112.33 673.32,-105.75"/>
</g>
<!-- Node27 -->
<g id="node27" class="node">
<title>Node27</title>
<g id="a_node27"><a xlink:href="wing__ops_8cpp.html" target="_top" xlink:title=" ">
<polygon fill="white" stroke="black" points="642,-56.5 642,-75.5 725,-75.5 725,-56.5 642,-56.5"/>
<text text-anchor="middle" x="683.5" y="-63.5" font-family="Helvetica,sans-Serif" font-size="10.00">wing_ops.cpp</text>
</a>
</g>
</g>
<!-- Node25&#45;&gt;Node27 -->
<g id="edge34" class="edge">
<title>Node25&#45;&gt;Node27</title>
<path fill="none" stroke="midnightblue" d="M654.61,-104.14C661.93,-94.74 670.74,-83.4 676.69,-75.75"/>
<polygon fill="midnightblue" stroke="midnightblue" points="651.81,-102.04 648.44,-112.08 657.34,-106.34 651.81,-102.04"/>
</g>
<!-- Node26&#45;&gt;Node18 -->
<g id="edge33" class="edge">
<title>Node26&#45;&gt;Node18</title>
<path fill="none" stroke="midnightblue" d="M793.65,-46.1C795.14,-37.14 796.86,-26.86 798.04,-19.75"/>
<polygon fill="midnightblue" stroke="midnightblue" points="790.18,-45.64 791.99,-56.08 797.08,-46.79 790.18,-45.64"/>
</g>
<!-- Node28&#45;&gt;Node15 -->
<g id="edge41" class="edge">
<title>Node28&#45;&gt;Node15</title>
<path fill="none" stroke="midnightblue" d="M1145.34,-168.95C1189.31,-161.77 1243.36,-149.63 1257.5,-132 1278.64,-105.64 1279.64,-83.13 1259.5,-56 1236.95,-25.63 1194.5,-15.02 1160.66,-11.64"/>
<polygon fill="midnightblue" stroke="midnightblue" points="1144.6,-165.53 1135.27,-170.54 1145.69,-172.44 1144.6,-165.53"/>
</g>
<!-- Node28&#45;&gt;Node20 -->
<g id="edge40" class="edge">
<title>Node28&#45;&gt;Node20</title>
<path fill="none" stroke="midnightblue" d="M1083.43,-157.8C1082.94,-148.91 1082.38,-138.78 1081.99,-131.75"/>
<polygon fill="midnightblue" stroke="midnightblue" points="1079.96,-158.29 1084,-168.08 1086.94,-157.9 1079.96,-158.29"/>
</g>
</g>
</svg>
