<?xml version="1.0" encoding="UTF-8" standalone="no"?>
<!DOCTYPE svg PUBLIC "-//W3C//DTD SVG 1.1//EN"
 "http://www.w3.org/Graphics/SVG/1.1/DTD/svg11.dtd">
<!-- Generated by graphviz version 2.43.0 (0)
 -->
<!-- Title: trig_ops.H Pages: 1 -->
<svg width="2887pt" height="476pt"
 viewBox="0.00 0.00 2886.50 476.00" xmlns="http://www.w3.org/2000/svg" xmlns:xlink="http://www.w3.org/1999/xlink">
<g id="graph0" class="graph" transform="scale(1 1) rotate(0) translate(4 472)">
<title>trig_ops.H</title>
<polygon fill="white" stroke="transparent" points="-4,4 -4,-472 2882.5,-472 2882.5,4 -4,4"/>
<!-- Node1 -->
<g id="node1" class="node">
<title>Node1</title>
<g id="a_node1"><a xlink:title=" ">
<polygon fill="#bfbfbf" stroke="black" points="1932.5,-448.5 1932.5,-467.5 1998.5,-467.5 1998.5,-448.5 1932.5,-448.5"/>
<text text-anchor="middle" x="1965.5" y="-455.5" font-family="Helvetica,sans-Serif" font-size="10.00">trig_ops.H</text>
</a>
</g>
</g>
<!-- Node2 -->
<g id="node2" class="node">
<title>Node2</title>
<g id="a_node2"><a xlink:href="tensor_i_8_h.html" target="_top" xlink:title=" ">
<polygon fill="white" stroke="black" points="671,-392.5 671,-411.5 732,-411.5 732,-392.5 671,-392.5"/>
<text text-anchor="middle" x="701.5" y="-399.5" font-family="Helvetica,sans-Serif" font-size="10.00">tensorI.H</text>
</a>
</g>
</g>
<!-- Node1&#45;&gt;Node2 -->
<g id="edge1" class="edge">
<title>Node1&#45;&gt;Node2</title>
<path fill="none" stroke="midnightblue" d="M1922.06,-455.22C1776.99,-449.28 1296.06,-429.46 898.5,-412 839.67,-409.42 770.96,-406.24 732.21,-404.44"/>
<polygon fill="midnightblue" stroke="midnightblue" points="1922.17,-458.73 1932.31,-455.64 1922.46,-451.74 1922.17,-458.73"/>
</g>
<!-- Node43 -->
<g id="node9" class="node">
<title>Node43</title>
<g id="a_node9"><a xlink:href="_synthetic_turbulence_8cpp.html" target="_top" xlink:title=" ">
<polygon fill="white" stroke="black" points="716,-168.5 716,-187.5 851,-187.5 851,-168.5 716,-168.5"/>
<text text-anchor="middle" x="783.5" y="-175.5" font-family="Helvetica,sans-Serif" font-size="10.00">SyntheticTurbulence.cpp</text>
</a>
</g>
</g>
<!-- Node1&#45;&gt;Node43 -->
<g id="edge60" class="edge">
<title>Node1&#45;&gt;Node43</title>
<path fill="none" stroke="midnightblue" d="M1922.2,-457.1C1723.96,-457 912.5,-450.27 912.5,-347 912.5,-347 912.5,-347 912.5,-289 912.5,-258.77 912.86,-246.34 892.5,-224 875.33,-205.16 849.08,-194 826.65,-187.51"/>
<polygon fill="midnightblue" stroke="midnightblue" points="1922.25,-460.6 1932.25,-457.1 1922.25,-453.6 1922.25,-460.6"/>
</g>
<!-- Node66 -->
<g id="node27" class="node">
<title>Node66</title>
<g id="a_node27"><a xlink:href="_m_o_data_8_h.html" target="_top" xlink:title=" ">
<polygon fill="white" stroke="black" points="1581,-392.5 1581,-411.5 1648,-411.5 1648,-392.5 1581,-392.5"/>
<text text-anchor="middle" x="1614.5" y="-399.5" font-family="Helvetica,sans-Serif" font-size="10.00">MOData.H</text>
</a>
</g>
</g>
<!-- Node1&#45;&gt;Node66 -->
<g id="edge37" class="edge">
<title>Node1&#45;&gt;Node66</title>
<path fill="none" stroke="midnightblue" d="M1921.92,-451.49C1862.12,-443.73 1751.36,-428.66 1657.5,-412 1654.5,-411.47 1651.38,-410.88 1648.26,-410.27"/>
<polygon fill="midnightblue" stroke="midnightblue" points="1921.75,-455 1932.12,-452.8 1922.65,-448.05 1921.75,-455"/>
</g>
<!-- Node75 -->
<g id="node32" class="node">
<title>Node75</title>
<g id="a_node32"><a xlink:href="_a_b_l_wall_function_8cpp.html" target="_top" xlink:title=" ">
<polygon fill="white" stroke="black" points="1573,-168.5 1573,-187.5 1690,-187.5 1690,-168.5 1573,-168.5"/>
<text text-anchor="middle" x="1631.5" y="-175.5" font-family="Helvetica,sans-Serif" font-size="10.00">ABLWallFunction.cpp</text>
</a>
</g>
</g>
<!-- Node1&#45;&gt;Node75 -->
<g id="edge63" class="edge">
<title>Node1&#45;&gt;Node75</title>
<path fill="none" stroke="midnightblue" d="M1922.19,-455.25C1824.68,-450.85 1594.55,-437.84 1571.5,-412 1510.6,-343.74 1597.8,-221.75 1624.29,-187.92"/>
<polygon fill="midnightblue" stroke="midnightblue" points="1922.16,-458.75 1932.31,-455.69 1922.47,-451.76 1922.16,-458.75"/>
</g>
<!-- Node82 -->
<g id="node38" class="node">
<title>Node82</title>
<g id="a_node38"><a xlink:href="_body_force_8cpp.html" target="_top" xlink:title=" ">
<polygon fill="white" stroke="black" points="1666.5,-392.5 1666.5,-411.5 1754.5,-411.5 1754.5,-392.5 1666.5,-392.5"/>
<text text-anchor="middle" x="1710.5" y="-399.5" font-family="Helvetica,sans-Serif" font-size="10.00">BodyForce.cpp</text>
</a>
</g>
</g>
<!-- Node1&#45;&gt;Node82 -->
<g id="edge52" class="edge">
<title>Node1&#45;&gt;Node82</title>
<path fill="none" stroke="midnightblue" d="M1922.35,-447.86C1874.35,-437.7 1797.41,-421.4 1750.65,-411.5"/>
<polygon fill="midnightblue" stroke="midnightblue" points="1921.92,-451.35 1932.42,-450 1923.37,-444.5 1921.92,-451.35"/>
</g>
<!-- Node83 -->
<g id="node39" class="node">
<title>Node83</title>
<g id="a_node39"><a xlink:href="_coriolis_forcing_8cpp.html" target="_top" xlink:title=" ">
<polygon fill="white" stroke="black" points="1773,-392.5 1773,-411.5 1882,-411.5 1882,-392.5 1773,-392.5"/>
<text text-anchor="middle" x="1827.5" y="-399.5" font-family="Helvetica,sans-Serif" font-size="10.00">CoriolisForcing.cpp</text>
</a>
</g>
</g>
<!-- Node1&#45;&gt;Node83 -->
<g id="edge53" class="edge">
<title>Node1&#45;&gt;Node83</title>
<path fill="none" stroke="midnightblue" d="M1934.25,-444.77C1908.33,-434.63 1872.14,-420.47 1849.26,-411.52"/>
<polygon fill="midnightblue" stroke="midnightblue" points="1933.05,-448.06 1943.63,-448.44 1935.6,-441.54 1933.05,-448.06"/>
</g>
<!-- Node84 -->
<g id="node40" class="node">
<title>Node84</title>
<g id="a_node40"><a xlink:href="_geostrophic_forcing_8cpp.html" target="_top" xlink:title=" ">
<polygon fill="white" stroke="black" points="1900,-392.5 1900,-411.5 2031,-411.5 2031,-392.5 1900,-392.5"/>
<text text-anchor="middle" x="1965.5" y="-399.5" font-family="Helvetica,sans-Serif" font-size="10.00">GeostrophicForcing.cpp</text>
</a>
</g>
</g>
<!-- Node1&#45;&gt;Node84 -->
<g id="edge54" class="edge">
<title>Node1&#45;&gt;Node84</title>
<path fill="none" stroke="midnightblue" d="M1965.5,-437.8C1965.5,-428.91 1965.5,-418.78 1965.5,-411.75"/>
<polygon fill="midnightblue" stroke="midnightblue" points="1962,-438.08 1965.5,-448.08 1969,-438.08 1962,-438.08"/>
</g>
<!-- Node85 -->
<g id="node41" class="node">
<title>Node85</title>
<g id="a_node41"><a xlink:href="_channel_flow_8cpp.html" target="_top" xlink:title=" ">
<polygon fill="white" stroke="black" points="2049,-392.5 2049,-411.5 2148,-411.5 2148,-392.5 2049,-392.5"/>
<text text-anchor="middle" x="2098.5" y="-399.5" font-family="Helvetica,sans-Serif" font-size="10.00">ChannelFlow.cpp</text>
</a>
</g>
</g>
<!-- Node1&#45;&gt;Node85 -->
<g id="edge55" class="edge">
<title>Node1&#45;&gt;Node85</title>
<path fill="none" stroke="midnightblue" d="M1995.95,-444.64C2020.91,-434.5 2055.58,-420.43 2077.52,-411.52"/>
<polygon fill="midnightblue" stroke="midnightblue" points="1994.52,-441.44 1986.57,-448.44 1997.16,-447.92 1994.52,-441.44"/>
</g>
<!-- Node86 -->
<g id="node42" class="node">
<title>Node86</title>
<g id="a_node42"><a xlink:href="_convecting_taylor_vortex_8cpp.html" target="_top" xlink:title=" ">
<polygon fill="white" stroke="black" points="2166.5,-392.5 2166.5,-411.5 2318.5,-411.5 2318.5,-392.5 2166.5,-392.5"/>
<text text-anchor="middle" x="2242.5" y="-399.5" font-family="Helvetica,sans-Serif" font-size="10.00">ConvectingTaylorVortex.cpp</text>
</a>
</g>
</g>
<!-- Node1&#45;&gt;Node86 -->
<g id="edge56" class="edge">
<title>Node1&#45;&gt;Node86</title>
<path fill="none" stroke="midnightblue" d="M2008.51,-448.62C2060.3,-438.52 2146.78,-421.66 2198.85,-411.51"/>
<polygon fill="midnightblue" stroke="midnightblue" points="2007.78,-445.19 1998.64,-450.54 2009.12,-452.06 2007.78,-445.19"/>
</g>
<!-- Node87 -->
<g id="node43" class="node">
<title>Node87</title>
<g id="a_node43"><a xlink:href="_ekman_spiral_8cpp.html" target="_top" xlink:title=" ">
<polygon fill="white" stroke="black" points="2336.5,-392.5 2336.5,-411.5 2434.5,-411.5 2434.5,-392.5 2336.5,-392.5"/>
<text text-anchor="middle" x="2385.5" y="-399.5" font-family="Helvetica,sans-Serif" font-size="10.00">EkmanSpiral.cpp</text>
</a>
</g>
</g>
<!-- Node1&#45;&gt;Node87 -->
<g id="edge57" class="edge">
<title>Node1&#45;&gt;Node87</title>
<path fill="none" stroke="midnightblue" d="M2009.33,-451.99C2077.46,-444.09 2212.89,-428.01 2327.5,-412 2330.43,-411.59 2333.43,-411.16 2336.47,-410.72"/>
<polygon fill="midnightblue" stroke="midnightblue" points="2008.51,-448.56 1998.98,-453.18 2009.32,-455.51 2008.51,-448.56"/>
</g>
<!-- Node88 -->
<g id="node44" class="node">
<title>Node88</title>
<g id="a_node44"><a xlink:href="_free_stream_8cpp.html" target="_top" xlink:title=" ">
<polygon fill="white" stroke="black" points="2453,-392.5 2453,-411.5 2546,-411.5 2546,-392.5 2453,-392.5"/>
<text text-anchor="middle" x="2499.5" y="-399.5" font-family="Helvetica,sans-Serif" font-size="10.00">FreeStream.cpp</text>
</a>
</g>
</g>
<!-- Node1&#45;&gt;Node88 -->
<g id="edge58" class="edge">
<title>Node1&#45;&gt;Node88</title>
<path fill="none" stroke="midnightblue" d="M2008.8,-453.88C2092.81,-447.61 2283.72,-432.34 2443.5,-412 2446.53,-411.61 2449.64,-411.19 2452.78,-410.74"/>
<polygon fill="midnightblue" stroke="midnightblue" points="2008.33,-450.4 1998.61,-454.63 2008.85,-457.38 2008.33,-450.4"/>
</g>
<!-- Node89 -->
<g id="node45" class="node">
<title>Node89</title>
<g id="a_node45"><a xlink:href="_n_w_b_8cpp.html" target="_top" xlink:title=" ">
<polygon fill="white" stroke="black" points="2564,-392.5 2564,-411.5 2625,-411.5 2625,-392.5 2564,-392.5"/>
<text text-anchor="middle" x="2594.5" y="-399.5" font-family="Helvetica,sans-Serif" font-size="10.00">NWB.cpp</text>
</a>
</g>
</g>
<!-- Node1&#45;&gt;Node89 -->
<g id="edge59" class="edge">
<title>Node1&#45;&gt;Node89</title>
<path fill="none" stroke="midnightblue" d="M2008.74,-455.93C2106.62,-453.02 2352.43,-442.99 2555.5,-412 2558.25,-411.58 2561.09,-411.07 2563.93,-410.51"/>
<polygon fill="midnightblue" stroke="midnightblue" points="2008.54,-452.44 1998.64,-456.22 2008.74,-459.43 2008.54,-452.44"/>
</g>
<!-- Node90 -->
<g id="node46" class="node">
<title>Node90</title>
<g id="a_node46"><a xlink:href="_taylor_green_vortex_8cpp.html" target="_top" xlink:title=" ">
<polygon fill="white" stroke="black" points="2643,-392.5 2643,-411.5 2770,-411.5 2770,-392.5 2643,-392.5"/>
<text text-anchor="middle" x="2706.5" y="-399.5" font-family="Helvetica,sans-Serif" font-size="10.00">TaylorGreenVortex.cpp</text>
</a>
</g>
</g>
<!-- Node1&#45;&gt;Node90 -->
<g id="edge61" class="edge">
<title>Node1&#45;&gt;Node90</title>
<path fill="none" stroke="midnightblue" d="M2008.66,-454.95C2115.11,-449.72 2398.72,-434.65 2634.5,-412 2637.26,-411.74 2640.07,-411.45 2642.92,-411.15"/>
<polygon fill="midnightblue" stroke="midnightblue" points="2008.44,-451.46 1998.62,-455.44 2008.78,-458.45 2008.44,-451.46"/>
</g>
<!-- Node91 -->
<g id="node47" class="node">
<title>Node91</title>
<g id="a_node47"><a xlink:href="_vortex_ring_8cpp.html" target="_top" xlink:title=" ">
<polygon fill="white" stroke="black" points="2788.5,-392.5 2788.5,-411.5 2878.5,-411.5 2878.5,-392.5 2788.5,-392.5"/>
<text text-anchor="middle" x="2833.5" y="-399.5" font-family="Helvetica,sans-Serif" font-size="10.00">VortexRing.cpp</text>
</a>
</g>
</g>
<!-- Node1&#45;&gt;Node91 -->
<g id="edge62" class="edge">
<title>Node1&#45;&gt;Node91</title>
<path fill="none" stroke="midnightblue" d="M2008.58,-456.28C2130.13,-453.91 2485.95,-444.48 2779.5,-412 2782.43,-411.68 2785.44,-411.3 2788.47,-410.89"/>
<polygon fill="midnightblue" stroke="midnightblue" points="2008.49,-452.79 1998.56,-456.47 2008.63,-459.78 2008.49,-452.79"/>
</g>
<!-- Node92 -->
<g id="node48" class="node">
<title>Node92</title>
<g id="a_node48"><a xlink:href="actuator__utils_8_h.html" target="_top" xlink:title=" ">
<polygon fill="white" stroke="black" points="1333.5,-280.5 1333.5,-299.5 1427.5,-299.5 1427.5,-280.5 1333.5,-280.5"/>
<text text-anchor="middle" x="1380.5" y="-287.5" font-family="Helvetica,sans-Serif" font-size="10.00">actuator_utils.H</text>
</a>
</g>
</g>
<!-- Node1&#45;&gt;Node92 -->
<g id="edge64" class="edge">
<title>Node1&#45;&gt;Node92</title>
<path fill="none" stroke="midnightblue" d="M1922.41,-455.42C1828.35,-451.48 1607.58,-439.53 1538.5,-412 1472.06,-385.52 1409.76,-322.75 1388.35,-299.69"/>
<polygon fill="midnightblue" stroke="midnightblue" points="1922.3,-458.91 1932.43,-455.82 1922.59,-451.92 1922.3,-458.91"/>
</g>
<!-- Node3 -->
<g id="node3" class="node">
<title>Node3</title>
<g id="a_node3"><a xlink:href="tensor_8_h.html" target="_top" xlink:title=" ">
<polygon fill="white" stroke="black" points="673,-336.5 673,-355.5 730,-355.5 730,-336.5 673,-336.5"/>
<text text-anchor="middle" x="701.5" y="-343.5" font-family="Helvetica,sans-Serif" font-size="10.00">tensor.H</text>
</a>
</g>
</g>
<!-- Node2&#45;&gt;Node3 -->
<g id="edge2" class="edge">
<title>Node2&#45;&gt;Node3</title>
<path fill="none" stroke="midnightblue" d="M695.03,-382.1C694.4,-373.14 694.84,-362.86 696.37,-355.75"/>
<polygon fill="midnightblue" stroke="midnightblue" points="691.57,-382.62 696.33,-392.08 698.51,-381.71 691.57,-382.62"/>
</g>
<!-- Node3&#45;&gt;Node2 -->
<g id="edge36" class="edge">
<title>Node3&#45;&gt;Node2</title>
<path fill="none" stroke="midnightblue" d="M707.96,-365.69C708.61,-374.64 708.18,-384.93 706.67,-392.08"/>
<polygon fill="midnightblue" stroke="midnightblue" points="711.42,-365.2 706.63,-355.75 704.48,-366.13 711.42,-365.2"/>
</g>
<!-- Node4 -->
<g id="node4" class="node">
<title>Node4</title>
<g id="a_node4"><a xlink:href="vector__space_8_h.html" target="_top" xlink:title=" ">
<polygon fill="white" stroke="black" points="502.5,-280.5 502.5,-299.5 594.5,-299.5 594.5,-280.5 502.5,-280.5"/>
<text text-anchor="middle" x="548.5" y="-287.5" font-family="Helvetica,sans-Serif" font-size="10.00">vector_space.H</text>
</a>
</g>
</g>
<!-- Node3&#45;&gt;Node4 -->
<g id="edge3" class="edge">
<title>Node3&#45;&gt;Node4</title>
<path fill="none" stroke="midnightblue" d="M667.61,-333.04C638.82,-322.88 598.21,-308.55 572.63,-299.52"/>
<polygon fill="midnightblue" stroke="midnightblue" points="666.66,-336.42 677.26,-336.44 668.99,-329.81 666.66,-336.42"/>
</g>
<!-- Node5 -->
<g id="node5" class="node">
<title>Node5</title>
<g id="a_node5"><a xlink:href="_multi_parser_8_h.html" target="_top" xlink:title=" ">
<polygon fill="white" stroke="red" points="439,-224.5 439,-243.5 520,-243.5 520,-224.5 439,-224.5"/>
<text text-anchor="middle" x="479.5" y="-231.5" font-family="Helvetica,sans-Serif" font-size="10.00">MultiParser.H</text>
</a>
</g>
</g>
<!-- Node4&#45;&gt;Node5 -->
<g id="edge4" class="edge">
<title>Node4&#45;&gt;Node5</title>
<path fill="none" stroke="midnightblue" d="M529.46,-274.1C517.04,-264.38 501.26,-252.03 490.79,-243.83"/>
<polygon fill="midnightblue" stroke="midnightblue" points="527.38,-276.92 537.41,-280.32 531.7,-271.4 527.38,-276.92"/>
</g>
<!-- Node36 -->
<g id="node6" class="node">
<title>Node36</title>
<g id="a_node6"><a xlink:href="_i_b_types_8_h.html" target="_top" xlink:title=" ">
<polygon fill="white" stroke="red" points="577,-224.5 577,-243.5 642,-243.5 642,-224.5 577,-224.5"/>
<text text-anchor="middle" x="609.5" y="-231.5" font-family="Helvetica,sans-Serif" font-size="10.00">IBTypes.H</text>
</a>
</g>
</g>
<!-- Node4&#45;&gt;Node36 -->
<g id="edge5" class="edge">
<title>Node4&#45;&gt;Node36</title>
<path fill="none" stroke="midnightblue" d="M565.97,-273.54C576.84,-263.91 590.44,-251.87 599.52,-243.83"/>
<polygon fill="midnightblue" stroke="midnightblue" points="563.47,-271.07 558.3,-280.32 568.11,-276.32 563.47,-271.07"/>
</g>
<!-- Node37 -->
<g id="node7" class="node">
<title>Node37</title>
<g id="a_node7"><a xlink:href="_bluff_body_8_h.html" target="_top" xlink:title=" ">
<polygon fill="white" stroke="red" points="542,-168.5 542,-187.5 615,-187.5 615,-168.5 542,-168.5"/>
<text text-anchor="middle" x="578.5" y="-175.5" font-family="Helvetica,sans-Serif" font-size="10.00">BluffBody.H</text>
</a>
</g>
</g>
<!-- Node4&#45;&gt;Node37 -->
<g id="edge7" class="edge">
<title>Node4&#45;&gt;Node37</title>
<path fill="none" stroke="midnightblue" d="M553.5,-270.67C560.06,-246.62 571.3,-205.39 576.16,-187.59"/>
<polygon fill="midnightblue" stroke="midnightblue" points="550.11,-269.8 550.85,-280.37 556.86,-271.64 550.11,-269.8"/>
</g>
<!-- Node42 -->
<g id="node8" class="node">
<title>Node42</title>
<g id="a_node8"><a xlink:href="_synthetic_turbulence_8_h.html" target="_top" xlink:title=" ">
<polygon fill="white" stroke="black" points="759,-224.5 759,-243.5 884,-243.5 884,-224.5 759,-224.5"/>
<text text-anchor="middle" x="821.5" y="-231.5" font-family="Helvetica,sans-Serif" font-size="10.00">SyntheticTurbulence.H</text>
</a>
</g>
</g>
<!-- Node4&#45;&gt;Node42 -->
<g id="edge8" class="edge">
<title>Node4&#45;&gt;Node42</title>
<path fill="none" stroke="midnightblue" d="M601.72,-278.47C653.31,-268.27 730.6,-252.98 778.44,-243.52"/>
<polygon fill="midnightblue" stroke="midnightblue" points="600.89,-275.07 591.76,-280.44 602.25,-281.94 600.89,-275.07"/>
</g>
<!-- Node44 -->
<g id="node10" class="node">
<title>Node44</title>
<g id="a_node10"><a xlink:href="_lidar_sampler_8_h.html" target="_top" xlink:title=" ">
<polygon fill="white" stroke="red" points="291,-224.5 291,-243.5 382,-243.5 382,-224.5 291,-224.5"/>
<text text-anchor="middle" x="336.5" y="-231.5" font-family="Helvetica,sans-Serif" font-size="10.00">LidarSampler.H</text>
</a>
</g>
</g>
<!-- Node4&#45;&gt;Node44 -->
<g id="edge10" class="edge">
<title>Node4&#45;&gt;Node44</title>
<path fill="none" stroke="midnightblue" d="M505.15,-277.96C465.11,-267.76 406.47,-252.82 369.93,-243.52"/>
<polygon fill="midnightblue" stroke="midnightblue" points="504.35,-281.37 514.91,-280.44 506.08,-274.58 504.35,-281.37"/>
</g>
<!-- Node45 -->
<g id="node11" class="node">
<title>Node45</title>
<g id="a_node11"><a xlink:href="_d_t_u_spinner_sampler_8_h.html" target="_top" xlink:title=" ">
<polygon fill="white" stroke="red" points="320,-168.5 320,-187.5 445,-187.5 445,-168.5 320,-168.5"/>
<text text-anchor="middle" x="382.5" y="-175.5" font-family="Helvetica,sans-Serif" font-size="10.00">DTUSpinnerSampler.H</text>
</a>
</g>
</g>
<!-- Node4&#45;&gt;Node45 -->
<g id="edge12" class="edge">
<title>Node4&#45;&gt;Node45</title>
<path fill="none" stroke="midnightblue" d="M499.85,-277.6C476.92,-270.56 450.13,-259.78 429.5,-244 409.15,-228.43 393.77,-201.66 386.73,-187.84"/>
<polygon fill="midnightblue" stroke="midnightblue" points="499.17,-281.05 509.75,-280.49 501.13,-274.33 499.17,-281.05"/>
</g>
<!-- Node48 -->
<g id="node12" class="node">
<title>Node48</title>
<g id="a_node12"><a xlink:href="_box_refiner_8_h.html" target="_top" xlink:title=" ">
<polygon fill="white" stroke="red" points="660.5,-224.5 660.5,-243.5 740.5,-243.5 740.5,-224.5 660.5,-224.5"/>
<text text-anchor="middle" x="700.5" y="-231.5" font-family="Helvetica,sans-Serif" font-size="10.00">BoxRefiner.H</text>
</a>
</g>
</g>
<!-- Node4&#45;&gt;Node48 -->
<g id="edge13" class="edge">
<title>Node4&#45;&gt;Node48</title>
<path fill="none" stroke="midnightblue" d="M582.17,-277.04C610.77,-266.88 651.11,-252.55 676.53,-243.52"/>
<polygon fill="midnightblue" stroke="midnightblue" points="580.84,-273.8 572.58,-280.44 583.18,-280.39 580.84,-273.8"/>
</g>
<!-- Node50 -->
<g id="node13" class="node">
<title>Node50</title>
<g id="a_node13"><a xlink:href="_cylinder_refiner_8_h.html" target="_top" xlink:title=" ">
<polygon fill="white" stroke="red" points="133,-224.5 133,-243.5 234,-243.5 234,-224.5 133,-224.5"/>
<text text-anchor="middle" x="183.5" y="-231.5" font-family="Helvetica,sans-Serif" font-size="10.00">CylinderRefiner.H</text>
</a>
</g>
</g>
<!-- Node4&#45;&gt;Node50 -->
<g id="edge14" class="edge">
<title>Node4&#45;&gt;Node50</title>
<path fill="none" stroke="midnightblue" d="M492.23,-280.68C421.68,-270.24 301.78,-252.5 234.03,-242.48"/>
<polygon fill="midnightblue" stroke="midnightblue" points="491.87,-284.16 502.27,-282.16 492.89,-277.23 491.87,-284.16"/>
</g>
<!-- Node52 -->
<g id="node14" class="node">
<title>Node52</title>
<g id="a_node14"><a xlink:href="actuator__types_8_h.html" target="_top" xlink:title=" ">
<polygon fill="white" stroke="red" points="978.5,-224.5 978.5,-243.5 1078.5,-243.5 1078.5,-224.5 978.5,-224.5"/>
<text text-anchor="middle" x="1028.5" y="-231.5" font-family="Helvetica,sans-Serif" font-size="10.00">actuator_types.H</text>
</a>
</g>
</g>
<!-- Node4&#45;&gt;Node52 -->
<g id="edge15" class="edge">
<title>Node4&#45;&gt;Node52</title>
<path fill="none" stroke="midnightblue" d="M605.08,-283.46C685.17,-275.48 836.18,-259.96 964.5,-244 968.95,-243.45 973.58,-242.85 978.21,-242.23"/>
<polygon fill="midnightblue" stroke="midnightblue" points="604.33,-280.02 594.73,-284.49 605.02,-286.98 604.33,-280.02"/>
</g>
<!-- Node63 -->
<g id="node24" class="node">
<title>Node63</title>
<g id="a_node24"><a xlink:href="_actuator_wing_8_h.html" target="_top" xlink:title=" ">
<polygon fill="white" stroke="red" points="869,-168.5 869,-187.5 962,-187.5 962,-168.5 869,-168.5"/>
<text text-anchor="middle" x="915.5" y="-175.5" font-family="Helvetica,sans-Serif" font-size="10.00">ActuatorWing.H</text>
</a>
</g>
</g>
<!-- Node4&#45;&gt;Node63 -->
<g id="edge35" class="edge">
<title>Node4&#45;&gt;Node63</title>
<path fill="none" stroke="midnightblue" d="M604.91,-288.59C690.94,-286.84 849.48,-278.82 892.5,-244 909.81,-229.99 914.11,-202.03 915.16,-187.78"/>
<polygon fill="midnightblue" stroke="midnightblue" points="604.73,-285.09 594.8,-288.77 604.86,-292.09 604.73,-285.09"/>
</g>
<!-- Node64 -->
<g id="node25" class="node">
<title>Node64</title>
<g id="a_node25"><a xlink:href="_actuator_container_8_h.html" target="_top" xlink:title=" ">
<polygon fill="white" stroke="red" points="0,-224.5 0,-243.5 115,-243.5 115,-224.5 0,-224.5"/>
<text text-anchor="middle" x="57.5" y="-231.5" font-family="Helvetica,sans-Serif" font-size="10.00">ActuatorContainer.H</text>
</a>
</g>
</g>
<!-- Node4&#45;&gt;Node64 -->
<g id="edge32" class="edge">
<title>Node4&#45;&gt;Node64</title>
<path fill="none" stroke="midnightblue" d="M492.19,-283.58C410.76,-275.62 255.42,-259.97 123.5,-244 120.74,-243.67 117.93,-243.32 115.08,-242.96"/>
<polygon fill="midnightblue" stroke="midnightblue" points="491.93,-287.07 502.22,-284.56 492.61,-280.11 491.93,-287.07"/>
</g>
<!-- Node56 -->
<g id="node26" class="node">
<title>Node56</title>
<g id="a_node26"><a xlink:href="_uniform_ct_8_h.html" target="_top" xlink:title=" ">
<polygon fill="white" stroke="red" points="617,-56.5 617,-75.5 694,-75.5 694,-56.5 617,-56.5"/>
<text text-anchor="middle" x="655.5" y="-63.5" font-family="Helvetica,sans-Serif" font-size="10.00">UniformCt.H</text>
</a>
</g>
</g>
<!-- Node4&#45;&gt;Node56 -->
<g id="edge33" class="edge">
<title>Node4&#45;&gt;Node56</title>
<path fill="none" stroke="midnightblue" d="M492.22,-287.73C422,-284.82 307.93,-275.26 281.5,-244 275.76,-237.21 279.4,-232.64 281.5,-224 315.12,-85.96 528.03,-67.99 616.76,-66.57"/>
<polygon fill="midnightblue" stroke="midnightblue" points="492.12,-291.23 502.24,-288.11 492.38,-284.23 492.12,-291.23"/>
</g>
<!-- Node36&#45;&gt;Node37 -->
<g id="edge6" class="edge">
<title>Node36&#45;&gt;Node37</title>
<path fill="none" stroke="midnightblue" d="M599.32,-215.27C594.03,-206.05 587.78,-195.17 583.52,-187.75"/>
<polygon fill="midnightblue" stroke="midnightblue" points="596.37,-217.15 604.38,-224.08 602.44,-213.67 596.37,-217.15"/>
</g>
<!-- Node42&#45;&gt;Node43 -->
<g id="edge9" class="edge">
<title>Node42&#45;&gt;Node43</title>
<path fill="none" stroke="midnightblue" d="M809.44,-215.86C802.86,-206.5 794.99,-195.33 789.66,-187.75"/>
<polygon fill="midnightblue" stroke="midnightblue" points="806.61,-217.92 815.23,-224.08 812.33,-213.89 806.61,-217.92"/>
</g>
<!-- Node44&#45;&gt;Node45 -->
<g id="edge11" class="edge">
<title>Node44&#45;&gt;Node45</title>
<path fill="none" stroke="midnightblue" d="M350.61,-216.43C358.68,-206.97 368.46,-195.48 375.05,-187.75"/>
<polygon fill="midnightblue" stroke="midnightblue" points="347.92,-214.2 344.1,-224.08 353.25,-218.74 347.92,-214.2"/>
</g>
<!-- Node18 -->
<g id="node15" class="node">
<title>Node18</title>
<g id="a_node15"><a xlink:href="_act_src_line_op_8_h.html" target="_top" xlink:title=" ">
<polygon fill="white" stroke="black" points="1126.5,-112.5 1126.5,-131.5 1218.5,-131.5 1218.5,-112.5 1126.5,-112.5"/>
<text text-anchor="middle" x="1172.5" y="-119.5" font-family="Helvetica,sans-Serif" font-size="10.00">ActSrcLineOp.H</text>
</a>
</g>
</g>
<!-- Node52&#45;&gt;Node18 -->
<g id="edge16" class="edge">
<title>Node52&#45;&gt;Node18</title>
<path fill="none" stroke="midnightblue" d="M1029.52,-214C1031.26,-199.67 1035.8,-180.43 1047.5,-168 1068.04,-146.16 1099.96,-134.9 1126.39,-129.1"/>
<polygon fill="midnightblue" stroke="midnightblue" points="1026.02,-213.94 1028.65,-224.21 1032.99,-214.54 1026.02,-213.94"/>
</g>
<!-- Node19 -->
<g id="node16" class="node">
<title>Node19</title>
<g id="a_node16"><a xlink:href="_actuator_model_8_h.html" target="_top" xlink:title=" ">
<polygon fill="white" stroke="red" points="1234.5,-56.5 1234.5,-75.5 1332.5,-75.5 1332.5,-56.5 1234.5,-56.5"/>
<text text-anchor="middle" x="1283.5" y="-63.5" font-family="Helvetica,sans-Serif" font-size="10.00">ActuatorModel.H</text>
</a>
</g>
</g>
<!-- Node52&#45;&gt;Node19 -->
<g id="edge29" class="edge">
<title>Node52&#45;&gt;Node19</title>
<path fill="none" stroke="midnightblue" d="M1025.39,-214.13C1024.1,-200.42 1024.44,-181.91 1032.5,-168 1055.17,-128.85 1076.26,-130.6 1117.5,-112 1156.02,-94.63 1202.67,-82.72 1236.7,-75.53"/>
<polygon fill="midnightblue" stroke="midnightblue" points="1021.96,-214.85 1026.72,-224.31 1028.9,-213.94 1021.96,-214.85"/>
</g>
<!-- Node17 -->
<g id="node19" class="node">
<title>Node17</title>
<g id="a_node19"><a xlink:href="actuator__ops_8_h.html" target="_top" xlink:title=" ">
<polygon fill="white" stroke="red" points="1374.5,-168.5 1374.5,-187.5 1464.5,-187.5 1464.5,-168.5 1374.5,-168.5"/>
<text text-anchor="middle" x="1419.5" y="-175.5" font-family="Helvetica,sans-Serif" font-size="10.00">actuator_ops.H</text>
</a>
</g>
</g>
<!-- Node52&#45;&gt;Node17 -->
<g id="edge20" class="edge">
<title>Node52&#45;&gt;Node17</title>
<path fill="none" stroke="midnightblue" d="M1089.07,-224.63C1167.88,-213.75 1303.78,-194.98 1374.22,-185.25"/>
<polygon fill="midnightblue" stroke="midnightblue" points="1088.24,-221.22 1078.82,-226.05 1089.2,-228.15 1088.24,-221.22"/>
</g>
<!-- Node57 -->
<g id="node23" class="node">
<title>Node57</title>
<g id="a_node23"><a xlink:href="actuator__utils_8cpp.html" target="_top" xlink:title=" ">
<polygon fill="white" stroke="black" points="1056.5,-168.5 1056.5,-187.5 1160.5,-187.5 1160.5,-168.5 1056.5,-168.5"/>
<text text-anchor="middle" x="1108.5" y="-175.5" font-family="Helvetica,sans-Serif" font-size="10.00">actuator_utils.cpp</text>
</a>
</g>
</g>
<!-- Node52&#45;&gt;Node57 -->
<g id="edge30" class="edge">
<title>Node52&#45;&gt;Node57</title>
<path fill="none" stroke="midnightblue" d="M1049.8,-218.62C1064.42,-208.76 1083.33,-195.99 1095.68,-187.65"/>
<polygon fill="midnightblue" stroke="midnightblue" points="1047.68,-215.83 1041.35,-224.32 1051.6,-221.63 1047.68,-215.83"/>
</g>
<!-- Node52&#45;&gt;Node63 -->
<g id="edge31" class="edge">
<title>Node52&#45;&gt;Node63</title>
<path fill="none" stroke="midnightblue" d="M1001.5,-220.1C980.39,-210.01 951.64,-196.27 933.32,-187.52"/>
<polygon fill="midnightblue" stroke="midnightblue" points="1000.06,-223.29 1010.59,-224.44 1003.08,-216.97 1000.06,-223.29"/>
</g>
<!-- Node18&#45;&gt;Node19 -->
<g id="edge17" class="edge">
<title>Node18&#45;&gt;Node19</title>
<path fill="none" stroke="midnightblue" d="M1199.51,-107.86C1220.09,-97.85 1247.84,-84.35 1265.71,-75.65"/>
<polygon fill="midnightblue" stroke="midnightblue" points="1197.8,-104.8 1190.33,-112.32 1200.86,-111.1 1197.8,-104.8"/>
</g>
<!-- Node21 -->
<g id="node17" class="node">
<title>Node21</title>
<g id="a_node17"><a xlink:href="_actuator_disk_8cpp.html" target="_top" xlink:title=" ">
<polygon fill="white" stroke="black" points="1048.5,-0.5 1048.5,-19.5 1148.5,-19.5 1148.5,-0.5 1048.5,-0.5"/>
<text text-anchor="middle" x="1098.5" y="-7.5" font-family="Helvetica,sans-Serif" font-size="10.00">ActuatorDisk.cpp</text>
</a>
</g>
</g>
<!-- Node19&#45;&gt;Node21 -->
<g id="edge18" class="edge">
<title>Node19&#45;&gt;Node21</title>
<path fill="none" stroke="midnightblue" d="M1244.33,-53.57C1209.43,-43.38 1159.15,-28.7 1127.68,-19.52"/>
<polygon fill="midnightblue" stroke="midnightblue" points="1243.61,-57 1254.19,-56.44 1245.57,-50.28 1243.61,-57"/>
</g>
<!-- Node22 -->
<g id="node18" class="node">
<title>Node22</title>
<g id="a_node18"><a xlink:href="_turbine_fast_8cpp.html" target="_top" xlink:title=" ">
<polygon fill="white" stroke="black" points="1333.5,-0.5 1333.5,-19.5 1425.5,-19.5 1425.5,-0.5 1333.5,-0.5"/>
<text text-anchor="middle" x="1379.5" y="-7.5" font-family="Helvetica,sans-Serif" font-size="10.00">TurbineFast.cpp</text>
</a>
</g>
</g>
<!-- Node19&#45;&gt;Node22 -->
<g id="edge19" class="edge">
<title>Node19&#45;&gt;Node22</title>
<path fill="none" stroke="midnightblue" d="M1308.07,-51.18C1325.74,-41.24 1349.01,-28.15 1364.11,-19.65"/>
<polygon fill="midnightblue" stroke="midnightblue" points="1305.92,-48.37 1298.92,-56.32 1309.36,-54.47 1305.92,-48.37"/>
</g>
<!-- Node17&#45;&gt;Node18 -->
<g id="edge21" class="edge">
<title>Node17&#45;&gt;Node18</title>
<path fill="none" stroke="midnightblue" d="M1370.47,-166.28C1323.8,-156.08 1254.47,-140.92 1211.45,-131.52"/>
<polygon fill="midnightblue" stroke="midnightblue" points="1369.85,-169.73 1380.36,-168.44 1371.34,-162.89 1369.85,-169.73"/>
</g>
<!-- Node17&#45;&gt;Node19 -->
<g id="edge22" class="edge">
<title>Node17&#45;&gt;Node19</title>
<path fill="none" stroke="midnightblue" d="M1400.73,-161.82C1371.76,-138.39 1317.12,-94.19 1294.12,-75.59"/>
<polygon fill="midnightblue" stroke="midnightblue" points="1398.85,-164.8 1408.83,-168.37 1403.25,-159.36 1398.85,-164.8"/>
</g>
<!-- Node25 -->
<g id="node20" class="node">
<title>Node25</title>
<g id="a_node20"><a xlink:href="_act_src_disk_op___turbine_8_h.html" target="_top" xlink:title=" ">
<polygon fill="white" stroke="black" points="1386.5,-112.5 1386.5,-131.5 1520.5,-131.5 1520.5,-112.5 1386.5,-112.5"/>
<text text-anchor="middle" x="1453.5" y="-119.5" font-family="Helvetica,sans-Serif" font-size="10.00">ActSrcDiskOp_Turbine.H</text>
</a>
</g>
</g>
<!-- Node17&#45;&gt;Node25 -->
<g id="edge23" class="edge">
<title>Node17&#45;&gt;Node25</title>
<path fill="none" stroke="midnightblue" d="M1430.48,-159.57C1436.33,-150.27 1443.27,-139.25 1447.99,-131.75"/>
<polygon fill="midnightblue" stroke="midnightblue" points="1427.48,-157.76 1425.11,-168.08 1433.4,-161.49 1427.48,-157.76"/>
</g>
<!-- Node26 -->
<g id="node21" class="node">
<title>Node26</title>
<g id="a_node21"><a xlink:href="_act_src_disk_op_8_h.html" target="_top" xlink:title=" ">
<polygon fill="white" stroke="black" points="1237,-112.5 1237,-131.5 1330,-131.5 1330,-112.5 1237,-112.5"/>
<text text-anchor="middle" x="1283.5" y="-119.5" font-family="Helvetica,sans-Serif" font-size="10.00">ActSrcDiskOp.H</text>
</a>
</g>
</g>
<!-- Node17&#45;&gt;Node26 -->
<g id="edge25" class="edge">
<title>Node17&#45;&gt;Node26</title>
<path fill="none" stroke="midnightblue" d="M1388.37,-164.64C1362.84,-154.5 1327.39,-140.43 1304.95,-131.52"/>
<polygon fill="midnightblue" stroke="midnightblue" points="1387.36,-168.01 1397.95,-168.44 1389.95,-161.5 1387.36,-168.01"/>
</g>
<!-- Node29 -->
<g id="node22" class="node">
<title>Node29</title>
<g id="a_node22"><a xlink:href="turbine__fast__ops_8_h.html" target="_top" xlink:title=" ">
<polygon fill="white" stroke="black" points="1538.5,-112.5 1538.5,-131.5 1646.5,-131.5 1646.5,-112.5 1538.5,-112.5"/>
<text text-anchor="middle" x="1592.5" y="-119.5" font-family="Helvetica,sans-Serif" font-size="10.00">turbine_fast_ops.H</text>
</a>
</g>
</g>
<!-- Node17&#45;&gt;Node29 -->
<g id="edge27" class="edge">
<title>Node17&#45;&gt;Node29</title>
<path fill="none" stroke="midnightblue" d="M1456.55,-165.44C1489.16,-155.26 1535.91,-140.66 1565.22,-131.52"/>
<polygon fill="midnightblue" stroke="midnightblue" points="1455.42,-162.12 1446.91,-168.44 1457.5,-168.8 1455.42,-162.12"/>
</g>
<!-- Node25&#45;&gt;Node19 -->
<g id="edge24" class="edge">
<title>Node25&#45;&gt;Node19</title>
<path fill="none" stroke="midnightblue" d="M1416.68,-109.3C1384.65,-99.13 1338.98,-84.62 1310.31,-75.52"/>
<polygon fill="midnightblue" stroke="midnightblue" points="1415.97,-112.75 1426.56,-112.44 1418.09,-106.08 1415.97,-112.75"/>
</g>
<!-- Node26&#45;&gt;Node19 -->
<g id="edge26" class="edge">
<title>Node26&#45;&gt;Node19</title>
<path fill="none" stroke="midnightblue" d="M1283.5,-101.8C1283.5,-92.91 1283.5,-82.78 1283.5,-75.75"/>
<polygon fill="midnightblue" stroke="midnightblue" points="1280,-102.08 1283.5,-112.08 1287,-102.08 1280,-102.08"/>
</g>
<!-- Node29&#45;&gt;Node22 -->
<g id="edge28" class="edge">
<title>Node29&#45;&gt;Node22</title>
<path fill="none" stroke="midnightblue" d="M1566.81,-107.73C1522.57,-84.88 1433.16,-38.71 1396.14,-19.59"/>
<polygon fill="midnightblue" stroke="midnightblue" points="1565.3,-110.89 1575.79,-112.37 1568.51,-104.67 1565.3,-110.89"/>
</g>
<!-- Node56&#45;&gt;Node21 -->
<g id="edge34" class="edge">
<title>Node56&#45;&gt;Node21</title>
<path fill="none" stroke="midnightblue" d="M704.16,-59.07C788.89,-48.74 962.62,-27.56 1048.37,-17.11"/>
<polygon fill="midnightblue" stroke="midnightblue" points="703.54,-55.62 694.04,-60.3 704.39,-62.57 703.54,-55.62"/>
</g>
<!-- Node67 -->
<g id="node28" class="node">
<title>Node67</title>
<g id="a_node28"><a xlink:href="_a_b_l_wall_function_8_h.html" target="_top" xlink:title=" ">
<polygon fill="white" stroke="black" points="1779,-336.5 1779,-355.5 1886,-355.5 1886,-336.5 1779,-336.5"/>
<text text-anchor="middle" x="1832.5" y="-343.5" font-family="Helvetica,sans-Serif" font-size="10.00">ABLWallFunction.H</text>
</a>
</g>
</g>
<!-- Node66&#45;&gt;Node67 -->
<g id="edge38" class="edge">
<title>Node66&#45;&gt;Node67</title>
<path fill="none" stroke="midnightblue" d="M1657.85,-390.26C1699.06,-380.05 1760.22,-364.9 1798.16,-355.51"/>
<polygon fill="midnightblue" stroke="midnightblue" points="1656.95,-386.88 1648.08,-392.68 1658.63,-393.67 1656.95,-386.88"/>
</g>
<!-- Node80 -->
<g id="node36" class="node">
<title>Node80</title>
<g id="a_node36"><a xlink:href="_shear_stress_8_h.html" target="_top" xlink:title=" ">
<polygon fill="white" stroke="black" points="1581,-336.5 1581,-355.5 1666,-355.5 1666,-336.5 1581,-336.5"/>
<text text-anchor="middle" x="1623.5" y="-343.5" font-family="Helvetica,sans-Serif" font-size="10.00">ShearStress.H</text>
</a>
</g>
</g>
<!-- Node66&#45;&gt;Node80 -->
<g id="edge49" class="edge">
<title>Node66&#45;&gt;Node80</title>
<path fill="none" stroke="midnightblue" d="M1617.65,-382.1C1619.14,-373.14 1620.86,-362.86 1622.04,-355.75"/>
<polygon fill="midnightblue" stroke="midnightblue" points="1614.18,-381.64 1615.99,-392.08 1621.08,-382.79 1614.18,-381.64"/>
</g>
<!-- Node81 -->
<g id="node37" class="node">
<title>Node81</title>
<g id="a_node37"><a xlink:href="_m_o_data_8cpp.html" target="_top" xlink:title=" ">
<polygon fill="white" stroke="black" points="1684,-336.5 1684,-355.5 1761,-355.5 1761,-336.5 1684,-336.5"/>
<text text-anchor="middle" x="1722.5" y="-343.5" font-family="Helvetica,sans-Serif" font-size="10.00">MOData.cpp</text>
</a>
</g>
</g>
<!-- Node66&#45;&gt;Node81 -->
<g id="edge51" class="edge">
<title>Node66&#45;&gt;Node81</title>
<path fill="none" stroke="midnightblue" d="M1641.05,-387.73C1661.05,-377.73 1687.89,-364.31 1705.19,-355.65"/>
<polygon fill="midnightblue" stroke="midnightblue" points="1639.23,-384.72 1631.85,-392.32 1642.36,-390.98 1639.23,-384.72"/>
</g>
<!-- Node68 -->
<g id="node29" class="node">
<title>Node68</title>
<g id="a_node29"><a xlink:href="_a_b_l_8_h.html" target="_top" xlink:title=" ">
<polygon fill="white" stroke="red" points="1886.5,-224.5 1886.5,-243.5 1932.5,-243.5 1932.5,-224.5 1886.5,-224.5"/>
<text text-anchor="middle" x="1909.5" y="-231.5" font-family="Helvetica,sans-Serif" font-size="10.00">ABL.H</text>
</a>
</g>
</g>
<!-- Node67&#45;&gt;Node68 -->
<g id="edge39" class="edge">
<title>Node67&#45;&gt;Node68</title>
<path fill="none" stroke="midnightblue" d="M1895.87,-339.46C1921.84,-333.69 1949.5,-322.31 1965.5,-300 1980.87,-278.58 1948.21,-255.71 1926.6,-243.63"/>
<polygon fill="midnightblue" stroke="midnightblue" points="1895.17,-336.03 1886.03,-341.4 1896.52,-342.89 1895.17,-336.03"/>
</g>
<!-- Node67&#45;&gt;Node75 -->
<g id="edge48" class="edge">
<title>Node67&#45;&gt;Node75</title>
<path fill="none" stroke="midnightblue" d="M1771.64,-334.47C1731.73,-326.42 1684.3,-314.29 1669.5,-300 1652.87,-283.94 1637.95,-212.81 1633.13,-187.76"/>
<polygon fill="midnightblue" stroke="midnightblue" points="1771.11,-337.93 1781.6,-336.43 1772.46,-331.06 1771.11,-337.93"/>
</g>
<!-- Node76 -->
<g id="node33" class="node">
<title>Node76</title>
<g id="a_node33"><a xlink:href="_a_b_l_stats_base_8_h.html" target="_top" xlink:title=" ">
<polygon fill="white" stroke="black" points="1861,-280.5 1861,-299.5 1956,-299.5 1956,-280.5 1861,-280.5"/>
<text text-anchor="middle" x="1908.5" y="-287.5" font-family="Helvetica,sans-Serif" font-size="10.00">ABLStatsBase.H</text>
</a>
</g>
</g>
<!-- Node67&#45;&gt;Node76 -->
<g id="edge43" class="edge">
<title>Node67&#45;&gt;Node76</title>
<path fill="none" stroke="midnightblue" d="M1853.08,-330.38C1866.81,-320.62 1884.43,-308.11 1896.07,-299.83"/>
<polygon fill="midnightblue" stroke="midnightblue" points="1850.84,-327.68 1844.71,-336.32 1854.89,-333.38 1850.84,-327.68"/>
</g>
<!-- Node77 -->
<g id="node34" class="node">
<title>Node77</title>
<g id="a_node34"><a xlink:href="_a_b_l_stats_8_h.html" target="_top" xlink:title=" ">
<polygon fill="white" stroke="red" points="1797,-224.5 1797,-243.5 1868,-243.5 1868,-224.5 1797,-224.5"/>
<text text-anchor="middle" x="1832.5" y="-231.5" font-family="Helvetica,sans-Serif" font-size="10.00">ABLStats.H</text>
</a>
</g>
</g>
<!-- Node67&#45;&gt;Node77 -->
<g id="edge47" class="edge">
<title>Node67&#45;&gt;Node77</title>
<path fill="none" stroke="midnightblue" d="M1832.5,-326.35C1832.5,-302.25 1832.5,-261.31 1832.5,-243.59"/>
<polygon fill="midnightblue" stroke="midnightblue" points="1829,-326.37 1832.5,-336.37 1836,-326.37 1829,-326.37"/>
</g>
<!-- Node79 -->
<g id="node35" class="node">
<title>Node79</title>
<g id="a_node35"><a xlink:href="_boussinesq_bubble_8cpp.html" target="_top" xlink:title=" ">
<polygon fill="white" stroke="black" points="1678.5,-280.5 1678.5,-299.5 1804.5,-299.5 1804.5,-280.5 1678.5,-280.5"/>
<text text-anchor="middle" x="1741.5" y="-287.5" font-family="Helvetica,sans-Serif" font-size="10.00">BoussinesqBubble.cpp</text>
</a>
</g>
</g>
<!-- Node67&#45;&gt;Node79 -->
<g id="edge46" class="edge">
<title>Node67&#45;&gt;Node79</title>
<path fill="none" stroke="midnightblue" d="M1809.21,-331.18C1792.46,-321.24 1770.4,-308.15 1756.08,-299.65"/>
<polygon fill="midnightblue" stroke="midnightblue" points="1807.49,-334.23 1817.88,-336.32 1811.07,-328.21 1807.49,-334.23"/>
</g>
<!-- Node69 -->
<g id="node30" class="node">
<title>Node69</title>
<g id="a_node30"><a xlink:href="_a_b_l_forcing_8cpp.html" target="_top" xlink:title=" ">
<polygon fill="white" stroke="black" points="1797,-168.5 1797,-187.5 1888,-187.5 1888,-168.5 1797,-168.5"/>
<text text-anchor="middle" x="1842.5" y="-175.5" font-family="Helvetica,sans-Serif" font-size="10.00">ABLForcing.cpp</text>
</a>
</g>
</g>
<!-- Node68&#45;&gt;Node69 -->
<g id="edge40" class="edge">
<title>Node68&#45;&gt;Node69</title>
<path fill="none" stroke="midnightblue" d="M1890.67,-217.82C1878.66,-208.15 1863.53,-195.95 1853.46,-187.83"/>
<polygon fill="midnightblue" stroke="midnightblue" points="1888.75,-220.77 1898.74,-224.32 1893.15,-215.32 1888.75,-220.77"/>
</g>
<!-- Node70 -->
<g id="node31" class="node">
<title>Node70</title>
<g id="a_node31"><a xlink:href="_a_b_l_mean_boussinesq_8cpp.html" target="_top" xlink:title=" ">
<polygon fill="white" stroke="black" points="1906.5,-168.5 1906.5,-187.5 2044.5,-187.5 2044.5,-168.5 1906.5,-168.5"/>
<text text-anchor="middle" x="1975.5" y="-175.5" font-family="Helvetica,sans-Serif" font-size="10.00">ABLMeanBoussinesq.cpp</text>
</a>
</g>
</g>
<!-- Node68&#45;&gt;Node70 -->
<g id="edge41" class="edge">
<title>Node68&#45;&gt;Node70</title>
<path fill="none" stroke="midnightblue" d="M1928.05,-217.82C1939.88,-208.15 1954.79,-195.95 1964.7,-187.83"/>
<polygon fill="midnightblue" stroke="midnightblue" points="1925.63,-215.28 1920.1,-224.32 1930.06,-220.7 1925.63,-215.28"/>
</g>
<!-- Node68&#45;&gt;Node75 -->
<g id="edge42" class="edge">
<title>Node68&#45;&gt;Node75</title>
<path fill="none" stroke="midnightblue" d="M1876.8,-224.07C1876.7,-224.05 1876.6,-224.02 1876.5,-224 1811.14,-209.11 1735.11,-195.76 1685.3,-187.53"/>
<polygon fill="midnightblue" stroke="midnightblue" points="1875.94,-227.46 1886.48,-226.46 1877.61,-220.66 1875.94,-227.46"/>
</g>
<!-- Node76&#45;&gt;Node68 -->
<g id="edge44" class="edge">
<title>Node76&#45;&gt;Node68</title>
<path fill="none" stroke="midnightblue" d="M1908.86,-269.8C1909.02,-260.91 1909.21,-250.78 1909.34,-243.75"/>
<polygon fill="midnightblue" stroke="midnightblue" points="1905.35,-270.02 1908.67,-280.08 1912.35,-270.15 1905.35,-270.02"/>
</g>
<!-- Node76&#45;&gt;Node77 -->
<g id="edge45" class="edge">
<title>Node76&#45;&gt;Node77</title>
<path fill="none" stroke="midnightblue" d="M1887.92,-274.38C1874.19,-264.62 1856.57,-252.11 1844.93,-243.83"/>
<polygon fill="midnightblue" stroke="midnightblue" points="1886.11,-277.38 1896.29,-280.32 1890.16,-271.68 1886.11,-277.38"/>
</g>
<!-- Node80&#45;&gt;Node75 -->
<g id="edge50" class="edge">
<title>Node80&#45;&gt;Node75</title>
<path fill="none" stroke="midnightblue" d="M1624.42,-325.93C1626.15,-289.92 1629.85,-213.23 1631.09,-187.57"/>
<polygon fill="midnightblue" stroke="midnightblue" points="1620.92,-325.92 1623.93,-336.08 1627.91,-326.26 1620.92,-325.92"/>
</g>
<!-- Node92&#45;&gt;Node18 -->
<g id="edge67" class="edge">
<title>Node92&#45;&gt;Node18</title>
<path fill="none" stroke="midnightblue" d="M1348.23,-276.55C1310.58,-260.71 1248.32,-230.25 1207.5,-188 1191.11,-171.04 1180.2,-144.88 1175.36,-131.51"/>
<polygon fill="midnightblue" stroke="midnightblue" points="1347.12,-279.88 1357.7,-280.45 1349.78,-273.41 1347.12,-279.88"/>
</g>
<!-- Node92&#45;&gt;Node25 -->
<g id="edge68" class="edge">
<title>Node92&#45;&gt;Node25</title>
<path fill="none" stroke="midnightblue" d="M1429.61,-276.89C1446.5,-270.13 1463.62,-259.75 1473.5,-244 1496.46,-207.38 1470.43,-152.75 1458.67,-131.7"/>
<polygon fill="midnightblue" stroke="midnightblue" points="1427.96,-273.77 1419.75,-280.48 1430.35,-280.35 1427.96,-273.77"/>
</g>
<!-- Node92&#45;&gt;Node26 -->
<g id="edge69" class="edge">
<title>Node92&#45;&gt;Node26</title>
<path fill="none" stroke="midnightblue" d="M1373.3,-270.86C1361.56,-241.67 1338.43,-185.78 1326.5,-168 1316.98,-153.82 1302.83,-140.01 1293.4,-131.5"/>
<polygon fill="midnightblue" stroke="midnightblue" points="1370.1,-272.29 1377.06,-280.28 1376.6,-269.7 1370.1,-272.29"/>
</g>
<!-- Node92&#45;&gt;Node29 -->
<g id="edge74" class="edge">
<title>Node92&#45;&gt;Node29</title>
<path fill="none" stroke="midnightblue" d="M1422.91,-277.26C1444.72,-269.92 1470.96,-258.98 1491.5,-244 1536.82,-210.94 1574.32,-153.24 1587.47,-131.56"/>
<polygon fill="midnightblue" stroke="midnightblue" points="1421.68,-273.98 1413.23,-280.38 1423.83,-280.64 1421.68,-273.98"/>
</g>
<!-- Node92&#45;&gt;Node57 -->
<g id="edge73" class="edge">
<title>Node92&#45;&gt;Node57</title>
<path fill="none" stroke="midnightblue" d="M1323.29,-285.11C1280.2,-280.2 1220.84,-269.1 1174.5,-244 1148.2,-229.75 1125.27,-201.9 1114.71,-187.73"/>
<polygon fill="midnightblue" stroke="midnightblue" points="1323.01,-288.6 1333.32,-286.17 1323.75,-281.64 1323.01,-288.6"/>
</g>
<!-- Node93 -->
<g id="node49" class="node">
<title>Node93</title>
<g id="a_node49"><a xlink:href="actuator__ops_i_8_h.html" target="_top" xlink:title=" ">
<polygon fill="white" stroke="black" points="1372,-224.5 1372,-243.5 1465,-243.5 1465,-224.5 1372,-224.5"/>
<text text-anchor="middle" x="1418.5" y="-231.5" font-family="Helvetica,sans-Serif" font-size="10.00">actuator_opsI.H</text>
</a>
</g>
</g>
<!-- Node92&#45;&gt;Node93 -->
<g id="edge65" class="edge">
<title>Node92&#45;&gt;Node93</title>
<path fill="none" stroke="midnightblue" d="M1392.56,-271.86C1399.14,-262.5 1407.01,-251.33 1412.34,-243.75"/>
<polygon fill="midnightblue" stroke="midnightblue" points="1389.67,-269.89 1386.77,-280.08 1395.39,-273.92 1389.67,-269.89"/>
</g>
<!-- Node94 -->
<g id="node50" class="node">
<title>Node94</title>
<g id="a_node50"><a xlink:href="disk__spreading_8_h.html" target="_top" xlink:title=" ">
<polygon fill="white" stroke="black" points="1217,-168.5 1217,-187.5 1318,-187.5 1318,-168.5 1217,-168.5"/>
<text text-anchor="middle" x="1267.5" y="-175.5" font-family="Helvetica,sans-Serif" font-size="10.00">disk_spreading.H</text>
</a>
</g>
</g>
<!-- Node92&#45;&gt;Node94 -->
<g id="edge70" class="edge">
<title>Node92&#45;&gt;Node94</title>
<path fill="none" stroke="midnightblue" d="M1362.46,-273.75C1352.55,-265.2 1340.14,-254.23 1329.5,-244 1309.27,-224.54 1286.84,-200.31 1275.3,-187.64"/>
<polygon fill="midnightblue" stroke="midnightblue" points="1360.23,-276.45 1370.11,-280.29 1364.78,-271.13 1360.23,-276.45"/>
</g>
<!-- Node93&#45;&gt;Node17 -->
<g id="edge66" class="edge">
<title>Node93&#45;&gt;Node17</title>
<path fill="none" stroke="midnightblue" d="M1418.86,-213.8C1419.02,-204.91 1419.21,-194.78 1419.34,-187.75"/>
<polygon fill="midnightblue" stroke="midnightblue" points="1415.35,-214.02 1418.67,-224.08 1422.35,-214.15 1415.35,-214.02"/>
</g>
<!-- Node94&#45;&gt;Node21 -->
<g id="edge72" class="edge">
<title>Node94&#45;&gt;Node21</title>
<path fill="none" stroke="midnightblue" d="M1207.06,-173.77C1175.86,-168.85 1139.76,-157.51 1117.5,-132 1088.84,-99.16 1093.9,-41.32 1097.05,-19.58"/>
<polygon fill="midnightblue" stroke="midnightblue" points="1206.61,-177.24 1217,-175.15 1207.57,-170.31 1206.61,-177.24"/>
</g>
<!-- Node94&#45;&gt;Node26 -->
<g id="edge71" class="edge">
<title>Node94&#45;&gt;Node26</title>
<path fill="none" stroke="midnightblue" d="M1273.01,-158.4C1275.69,-149.36 1278.78,-138.94 1280.91,-131.75"/>
<polygon fill="midnightblue" stroke="midnightblue" points="1269.63,-157.5 1270.14,-168.08 1276.34,-159.49 1269.63,-157.5"/>
</g>
</g>
</svg>
